<svg width="786" height="226" viewBox="0 0 786 226" fill="none" xmlns="http://www.w3.org/2000/svg">
<path d="M7.02 141H49.77V138.3H13.86V108.24H46.08V105.54H13.86V77.28H48.96V74.58H7.02V141ZM58.218 141H64.968V74.58H58.218V141ZM103.975 141H111.805L94.2546 115.62L110.185 98.34H106.315L82.1046 124.89V74.58H75.4446V141H82.1046V128.76L89.6646 120.39L103.975 141ZM136.842 141.45C142.062 141.45 145.932 140.91 149.622 139.92V137.76C145.932 138.48 142.422 138.75 138.642 138.75C126.132 138.75 121.632 135.24 121.452 120.93H152.142C152.322 120.3 152.322 119.58 152.322 119.13C152.322 104.73 144.672 97.8 133.512 97.8C122.712 97.8 114.522 105.45 114.522 119.67C114.522 136.59 123.882 141.45 136.842 141.45ZM133.602 100.41C142.782 100.41 145.212 106.26 145.482 118.5H121.452C121.722 106.44 124.602 100.41 133.602 100.41ZM182.977 141H203.497C224.827 141 234.547 129.21 234.547 107.88C234.547 86.46 224.827 74.58 203.497 74.58H182.977V141ZM189.727 138.3V77.28H202.957C220.597 77.28 227.167 86.19 227.167 107.7C227.167 129.12 220.597 138.3 202.957 138.3H189.727ZM265.075 141.45C270.295 141.45 274.165 140.91 277.855 139.92V137.76C274.165 138.48 270.655 138.75 266.875 138.75C254.365 138.75 249.865 135.24 249.685 120.93H280.375C280.555 120.3 280.555 119.58 280.555 119.13C280.555 104.73 272.905 97.8 261.745 97.8C250.945 97.8 242.755 105.45 242.755 119.67C242.755 136.59 252.115 141.45 265.075 141.45ZM261.835 100.41C271.015 100.41 273.445 106.26 273.715 118.5H249.685C249.955 106.44 252.835 100.41 261.835 100.41Z" fill="white"/>
<path fill-rule="evenodd" clip-rule="evenodd" d="M388.729 68.2989C402.518 76.9718 418.559 89.7611 418.122 106.081C417.666 123.099 394.022 129.758 386.671 145.148C380.186 158.726 392.324 182.203 378.706 188.607C363.783 195.624 349.739 175.223 334.222 169.811C325.89 166.906 317.446 166.371 308.876 164.256C296.778 161.269 282.219 163.686 273.488 154.818C264.486 145.674 260.241 130.763 263.686 118.353C267.087 106.104 286.244 104.432 290.775 92.5486C298.544 72.1702 278.822 39.6915 297.79 28.9028C315.069 19.0745 328.179 53.0667 346.349 60.9383C359.764 66.7501 376.358 60.5183 388.729 68.2989Z" fill="#EC5F33"/>
<path d="M385.27 141.63C398.68 141.63 409.3 137.94 409.3 121.83V74.58H387.16V126.6C387.16 132.81 384.82 134.43 379.51 134.43C375.55 134.43 371.77 134.07 367.99 133.44V139.83C372.13 140.73 377.26 141.63 385.27 141.63ZM442.2 141.9C460.2 141.9 468.48 132.81 468.48 118.5C468.48 104.28 459.93 95.1 442.2 95.1C424.47 95.1 416.1 104.28 416.1 118.5C416.1 133.17 424.2 141.9 442.2 141.9ZM442.29 135.6C437.97 135.6 437.34 132 437.34 118.77C437.34 105.36 437.97 101.76 442.29 101.76C446.61 101.76 447.24 105.36 447.24 118.77C447.24 132 446.61 135.6 442.29 135.6ZM474.577 141H495.907V104.73C497.167 104.46 498.337 104.28 499.597 104.28C504.277 104.28 504.997 106.8 504.997 110.67V141H526.327V110.94C526.327 99.33 518.857 95.1 509.407 95.1C503.287 95.1 497.617 97.35 495.007 100.95V96H474.577V141ZM559.921 141.45C564.511 141.45 569.281 141 573.781 140.19V134.16C570.991 134.61 568.291 134.88 565.501 134.88C558.301 134.88 553.531 132.81 553.531 118.5C553.531 104.19 558.301 102.12 565.501 102.12C568.291 102.12 570.991 102.39 573.781 102.84V96.81C569.281 96 564.511 95.55 559.921 95.55C543.091 95.55 532.291 102.03 532.291 118.5C532.291 134.97 543.091 141.45 559.921 141.45ZM609.76 141H632.71L617.86 108.87L630.46 96H621.01L600.22 117.33V74.58H579.43V141H600.22V126.15L602.02 124.35L609.76 141ZM663.08 141.45C668.48 141.45 674.24 141.09 679.55 140.1V134.07C675.41 134.61 671 134.88 666.86 134.88C656.33 134.88 653.54 133.35 653.18 122.46H680.99C681.26 120.57 681.35 119.04 681.35 117.24C681.35 101.94 673.25 95.1 657.59 95.1C644 95.1 632.75 101.76 632.75 118.5C632.75 137.22 644.81 141.45 663.08 141.45ZM657.86 101.76C661.82 101.76 662.09 104.01 662.18 116.16H653.18C653.27 103.74 654.08 101.76 657.86 101.76ZM687.184 141H708.514V104.01C711.664 103.2 714.814 102.84 717.874 102.84C719.674 102.84 721.474 102.84 723.274 103.02V96.72C721.564 96.09 718.864 95.73 717.244 95.73C712.294 95.73 708.694 97.08 706.804 99.96V96H687.184V141ZM753.959 141.45C759.359 141.45 765.119 141.09 770.429 140.1V134.07C766.289 134.61 761.879 134.88 757.739 134.88C747.209 134.88 744.419 133.35 744.059 122.46H771.869C772.139 120.57 772.229 119.04 772.229 117.24C772.229 101.94 764.129 95.1 748.469 95.1C734.879 95.1 723.629 101.76 723.629 118.5C723.629 137.22 735.689 141.45 753.959 141.45ZM748.739 101.76C752.699 101.76 752.969 104.01 753.059 116.16H744.059C744.149 103.74 744.959 101.76 748.739 101.76Z" fill="white"/>
<path d="M289.338 177.18C290.346 177.18 291.174 176.91 291.804 176.442V177H295.89V163.716H291.66V168.486C291.066 168.072 290.274 167.82 289.338 167.82C286.8 167.82 285.486 169.71 285.486 172.5C285.486 175.2 286.692 177.18 289.338 177.18ZM291.03 175.632C290.166 175.632 289.734 175.02 289.734 172.536C289.734 170.142 290.13 169.44 291.048 169.44C291.264 169.44 291.498 169.476 291.66 169.53V175.542C291.498 175.596 291.246 175.632 291.03 175.632ZM303.189 177.09C304.269 177.09 305.421 177.018 306.483 176.82V175.614C305.655 175.722 304.773 175.776 303.945 175.776C301.839 175.776 301.281 175.47 301.209 173.292H306.771C306.825 172.914 306.843 172.608 306.843 172.248C306.843 169.188 305.223 167.82 302.091 167.82C299.373 167.82 297.123 169.152 297.123 172.5C297.123 176.244 299.535 177.09 303.189 177.09ZM302.145 169.152C302.937 169.152 302.991 169.602 303.009 172.032H301.209C301.227 169.548 301.389 169.152 302.145 169.152ZM310.306 177H314.194L317.596 168H315.976L313.654 174.156L311.332 168H306.886L310.306 177ZM323.755 177.09C324.835 177.09 325.987 177.018 327.049 176.82V175.614C326.221 175.722 325.339 175.776 324.511 175.776C322.405 175.776 321.847 175.47 321.775 173.292H327.337C327.391 172.914 327.409 172.608 327.409 172.248C327.409 169.188 325.789 167.82 322.657 167.82C319.939 167.82 317.689 169.152 317.689 172.5C317.689 176.244 320.101 177.09 323.755 177.09ZM322.711 169.152C323.503 169.152 323.557 169.602 323.575 172.032H321.775C321.793 169.548 321.955 169.152 322.711 169.152ZM328.576 177H332.842V163.716H328.576V177ZM339.292 177.18C342.892 177.18 344.548 175.362 344.548 172.5C344.548 169.656 342.838 167.82 339.292 167.82C335.746 167.82 334.072 169.656 334.072 172.5C334.072 175.434 335.692 177.18 339.292 177.18ZM339.31 175.92C338.446 175.92 338.32 175.2 338.32 172.554C338.32 169.872 338.446 169.152 339.31 169.152C340.174 169.152 340.3 169.872 340.3 172.554C340.3 175.2 340.174 175.92 339.31 175.92ZM352.319 177.18C354.965 177.18 356.171 175.2 356.171 172.5C356.171 169.71 354.857 167.82 352.319 167.82C351.293 167.82 350.465 168.09 349.853 168.594V168H345.767V180.6H349.997V176.55C350.591 176.964 351.383 177.18 352.319 177.18ZM350.627 175.632C350.411 175.632 350.159 175.596 349.997 175.542V169.53C350.159 169.476 350.393 169.44 350.609 169.44C351.527 169.44 351.923 170.142 351.923 172.536C351.923 175.02 351.491 175.632 350.627 175.632ZM363.218 177.09C364.298 177.09 365.45 177.018 366.512 176.82V175.614C365.684 175.722 364.802 175.776 363.974 175.776C361.868 175.776 361.31 175.47 361.238 173.292H366.8C366.854 172.914 366.872 172.608 366.872 172.248C366.872 169.188 365.252 167.82 362.12 167.82C359.402 167.82 357.152 169.152 357.152 172.5C357.152 176.244 359.564 177.09 363.218 177.09ZM362.174 169.152C362.966 169.152 363.02 169.602 363.038 172.032H361.238C361.256 169.548 361.418 169.152 362.174 169.152ZM368.039 177H372.305V169.602C372.935 169.44 373.565 169.368 374.177 169.368C374.537 169.368 374.897 169.368 375.257 169.404V168.144C374.915 168.018 374.375 167.946 374.051 167.946C373.061 167.946 372.341 168.216 371.963 168.792V168H368.039V177ZM384.042 177.198C385.518 177.198 386.778 176.91 387.912 175.956L388.74 177H393.852L390.432 172.716L393.096 168.882H391.44L389.55 171.6L387.174 168.612C386.418 167.676 385.968 167.064 385.968 166.272C385.968 165.48 386.418 165.03 387.75 165.03C388.524 165.03 389.424 165.066 390.414 165.228V163.95C389.262 163.734 387.984 163.59 386.814 163.59C383.484 163.59 381.522 164.832 381.612 166.902C381.63 167.586 381.918 168.432 382.566 169.242L383.016 169.818C380.748 170.646 379.758 172.212 379.758 173.724C379.758 176.136 381.666 177.198 384.042 177.198ZM385.32 175.47C383.808 175.47 382.944 174.246 382.944 172.338C382.944 171.6 383.07 171.042 383.592 170.556L387.03 174.876C386.49 175.308 385.986 175.47 385.32 175.47ZM402.26 177.18C403.268 177.18 404.096 176.91 404.726 176.442V177H408.812V163.716H404.582V168.486C403.988 168.072 403.196 167.82 402.26 167.82C399.722 167.82 398.408 169.71 398.408 172.5C398.408 175.2 399.614 177.18 402.26 177.18ZM403.952 175.632C403.088 175.632 402.656 175.02 402.656 172.536C402.656 170.142 403.052 169.44 403.97 169.44C404.186 169.44 404.42 169.476 404.582 169.53V175.542C404.42 175.596 404.168 175.632 403.952 175.632ZM416.111 177.09C417.191 177.09 418.343 177.018 419.405 176.82V175.614C418.577 175.722 417.695 175.776 416.867 175.776C414.761 175.776 414.203 175.47 414.131 173.292H419.693C419.747 172.914 419.765 172.608 419.765 172.248C419.765 169.188 418.145 167.82 415.013 167.82C412.295 167.82 410.045 169.152 410.045 172.5C410.045 176.244 412.457 177.09 416.111 177.09ZM415.067 169.152C415.859 169.152 415.913 169.602 415.931 172.032H414.131C414.149 169.548 414.311 169.152 415.067 169.152ZM423.703 177.09C426.799 177.09 429.103 176.388 429.103 173.886C429.103 172.824 428.815 172.194 428.185 171.708C427.663 171.33 426.925 171.114 426.205 170.934C425.701 170.808 425.215 170.682 424.837 170.52C424.549 170.394 424.387 170.25 424.387 169.872C424.387 169.476 424.657 169.224 425.935 169.224C426.727 169.224 427.555 169.278 428.347 169.386V168.18C427.483 168.018 426.331 167.91 425.287 167.91C422.965 167.91 420.679 168.54 420.679 171.132C420.679 171.888 420.895 172.428 421.237 172.896C421.705 173.58 422.695 173.832 423.613 174.066C424.135 174.192 424.639 174.3 425.017 174.48C425.251 174.588 425.395 174.75 425.395 175.074C425.395 175.542 425.215 175.776 423.541 175.776C422.173 175.776 421.345 175.722 420.589 175.614V176.82C421.579 176.964 422.695 177.09 423.703 177.09ZM430.318 177H434.584V168H430.318V177ZM430.318 166.974H434.584V163.896H430.318V166.974ZM439.864 179.376C439.036 179.376 438.136 179.358 437.308 179.25V180.456C438.208 180.636 439.162 180.726 440.08 180.726C443.698 180.726 446.092 179.826 446.092 176.928V168H442.168V168.666C441.538 168.126 440.692 167.82 439.63 167.82C437.092 167.82 435.814 169.62 435.814 172.392C435.814 175.092 436.966 176.982 439.63 176.982C440.584 176.982 441.376 176.748 441.988 176.316V177.504C441.988 179.034 441.358 179.376 439.864 179.376ZM441.322 175.434C440.458 175.434 440.062 174.822 440.062 172.338C440.062 169.944 440.422 169.44 441.34 169.44C441.556 169.44 441.826 169.476 441.988 169.53V175.344C441.826 175.398 441.538 175.434 441.322 175.434ZM447.562 177H451.828V169.746C452.08 169.692 452.314 169.656 452.566 169.656C453.502 169.656 453.646 170.16 453.646 170.934V177H457.912V170.988C457.912 168.666 456.418 167.82 454.528 167.82C453.304 167.82 452.17 168.27 451.648 168.99V168H447.562V177ZM465.171 177.09C466.251 177.09 467.403 177.018 468.465 176.82V175.614C467.637 175.722 466.755 175.776 465.927 175.776C463.821 175.776 463.263 175.47 463.191 173.292H468.753C468.807 172.914 468.825 172.608 468.825 172.248C468.825 169.188 467.205 167.82 464.073 167.82C461.355 167.82 459.105 169.152 459.105 172.5C459.105 176.244 461.517 177.09 465.171 177.09ZM464.127 169.152C464.919 169.152 464.973 169.602 464.991 172.032H463.191C463.209 169.548 463.371 169.152 464.127 169.152ZM469.992 177H474.258V169.602C474.888 169.44 475.518 169.368 476.13 169.368C476.49 169.368 476.85 169.368 477.21 169.404V168.144C476.868 168.018 476.328 167.946 476.004 167.946C475.014 167.946 474.294 168.216 473.916 168.792V168H469.992V177Z" fill="white"/>
</svg>
