<svg width="1440" height="900" viewBox="0 0 1440 900" fill="none" xmlns="http://www.w3.org/2000/svg">
<g clip-path="url(#clip0)">
<path d="M1046.15 404.51C1043.46 414.44 1041.08 424.45 1038.64 434.44C1036.2 444.43 1033.64 454.44 1030.48 464.24C1027.36 474.094 1023.26 483.608 1018.23 492.64C1015.66 497.15 1012.73 501.37 1010.15 505.8C1007.57 510.23 1005 514.68 1002.64 519.23C997.904 528.323 993.811 537.736 990.39 547.4C987.01 557.074 984.336 566.98 982.39 577.04C978.39 597.18 977.1 617.73 976.16 638.25C976.07 640.8 975.91 643.44 975.6 646.02C975.29 648.6 974.86 651.17 974.32 653.71C973.236 658.788 971.85 663.797 970.17 668.71C966.787 678.478 962.662 687.972 957.83 697.11C953.053 706.266 947.685 715.101 941.76 723.56C938.76 727.79 935.7 731.93 932.4 735.9C930.747 737.9 929.05 739.847 927.31 741.74C925.59 743.66 923.81 745.53 922.04 747.4C907.741 762.286 891.788 775.488 874.49 786.75C865.865 792.384 856.872 797.432 847.57 801.86C842.922 804.077 838.166 806.059 833.32 807.8C828.487 809.589 823.499 810.928 818.42 811.8C823.481 810.872 828.445 809.479 833.25 807.64C838.08 805.87 842.78 803.78 847.41 801.54C856.639 797.012 865.553 791.867 874.09 786.14C891.174 774.721 906.938 761.439 921.09 746.54C922.84 744.66 924.6 742.79 926.3 740.87C928 738.95 929.68 737.02 931.3 735.03C934.53 731.03 937.56 726.92 940.47 722.7C946.261 714.237 951.534 705.431 956.26 696.33C961.023 687.253 965.085 677.826 968.41 668.13C971.63 658.44 974.04 648.43 974.21 638.21C975.02 617.65 976.48 597 980.53 576.72C984.498 556.404 991.46 536.79 1001.19 518.52C1003.61 513.96 1006.19 509.52 1008.88 505.09C1011.57 500.66 1014.51 496.44 1017.07 492.03C1022.15 483.116 1026.31 473.712 1029.49 463.96C1032.81 454.24 1035.49 444.31 1038.11 434.36C1040.73 424.41 1043.29 414.39 1046.15 404.51Z" fill="white"/>
<path d="M861.84 814.5C857.414 826.922 854.241 839.756 852.37 852.81C851.448 859.322 850.87 865.877 850.64 872.45C850.427 879.017 850.51 885.613 850.89 892.24C849.732 885.699 849.127 879.072 849.08 872.43C849.026 865.773 849.464 859.122 850.39 852.53C852.194 839.332 856.057 826.5 861.84 814.5Z" fill="white"/>
<path d="M418.17 506.54C426.24 524.06 433.82 541.82 440.71 559.85C444.19 568.857 447.43 577.95 450.43 587.13C453.43 596.3 456.26 605.55 458.63 614.92C459.8 619.6 460.92 624.31 461.85 629.06C462.38 631.42 462.73 633.82 463.15 636.2C463.57 638.58 463.91 640.97 464.28 643.35C465.77 652.88 467.16 662.42 469.08 671.84C470.893 681.275 473.389 690.567 476.55 699.64C479.77 708.672 483.786 717.399 488.55 725.72C498.231 742.338 510.322 757.429 524.43 770.5C538.558 783.549 554.613 794.342 572.03 802.5C576.38 804.5 580.78 806.5 585.28 808.14C589.768 809.906 594.348 811.428 599 812.7C608.303 815.156 617.756 817 627.3 818.22C646.39 820.83 665.69 821.84 684.9 823.51C665.66 822.19 646.35 821.66 627.16 819.3C617.549 818.178 608.022 816.427 598.64 814.06C593.944 812.85 589.32 811.378 584.79 809.65C580.25 807.97 575.79 806.06 571.39 804.04C553.784 795.847 537.555 784.975 523.28 771.81C509.02 758.63 496.782 743.42 486.96 726.67C482.053 718.288 477.971 709.45 474.77 700.28C471.624 691.109 469.151 681.721 467.37 672.19C465.52 662.7 464.07 653.14 462.76 643.58C462.11 638.8 461.41 634.05 460.49 629.33C459.57 624.61 458.49 619.92 457.39 615.24C455.11 605.89 452.39 596.64 449.44 587.47C446.49 578.3 443.36 569.17 440.02 560.13C433.33 542 426 524.17 418.17 506.54Z" fill="white"/>
<path d="M407.47 220.57C407.514 210.355 408.519 200.167 410.47 190.14C414.367 170.006 421.726 150.7 432.22 133.08C437.428 124.298 443.455 116.028 450.22 108.38C444.088 116.483 438.519 124.996 433.55 133.86C428.612 142.71 424.324 151.908 420.72 161.38C413.508 180.379 409.046 200.31 407.47 220.57Z" fill="white"/>
<path d="M646.77 72.33C633.811 81.589 620.096 89.7411 605.77 96.7C591.46 103.7 576.42 109.13 561.45 114.5C546.48 119.87 531.5 125.34 517.45 132.8C513.99 134.74 510.45 136.59 507.16 138.75L504.63 140.32L503.37 141.11L502.14 141.95L497.25 145.33C495.61 146.45 494.07 147.7 492.48 148.88C490.89 150.06 489.31 151.26 487.8 152.55L483.23 156.35L478.81 160.35C455.49 181.87 437.06 208.46 423.94 237.35C410.82 266.24 402.39 297.17 397.2 328.48C395.9 336.32 394.72 344.18 393.78 352.07C393.26 356.01 392.87 359.96 392.43 363.91C391.99 367.86 391.64 371.82 391.31 375.78C389.98 391.62 389.14 407.5 388.95 423.4C388.515 455.205 390.326 487 394.37 518.55C398.37 550.11 404.44 581.39 409 612.91C413.56 644.43 416.48 676.34 414.17 708.14C416.17 676.32 412.85 644.47 408.03 613.06C403.21 581.65 397.03 550.35 392.84 518.75C391.76 510.86 390.89 502.93 390.09 495.01C389.74 491.01 389.35 487.07 389.09 483.1L388.64 477.1L388.28 471.1C387.28 455.19 386.97 439.24 387.15 423.31C387.33 407.38 388.15 391.44 389.43 375.55C389.74 371.55 390.15 367.61 390.52 363.64C390.89 359.67 391.35 355.72 391.86 351.76C392.79 343.84 393.95 335.95 395.25 328.08C400.52 296.65 408.98 265.57 422.31 236.52L424.85 231.1L427.55 225.75L428.91 223.08L430.35 220.46L433.25 215.22C435.31 211.8 437.25 208.31 439.48 204.98C440.57 203.31 441.61 201.6 442.75 199.98L446.16 195.06C450.771 188.542 455.725 182.273 461 176.28C463.58 173.23 466.4 170.4 469.13 167.49C470.54 166.07 471.99 164.69 473.41 163.3L475.56 161.21L477.79 159.21L482.26 155.21L486.89 151.41C488.41 150.11 490.03 148.93 491.62 147.73C493.21 146.53 494.79 145.3 496.45 144.18L501.4 140.81L502.64 139.97L503.92 139.18L506.47 137.62C509.83 135.45 513.38 133.62 516.87 131.68C531.04 124.25 546.1 118.84 561.11 113.58C576.12 108.32 591.18 103.12 605.54 96.25C619.93 89.4466 633.722 81.4451 646.77 72.33Z" fill="#FFBFB6"/>
<path d="M544.77 63.06C536.214 68.7423 527.117 73.5625 517.61 77.45C508.089 81.3197 498.361 84.6581 488.47 87.45C468.74 93.15 448.63 97.45 429.06 103.53C419.25 106.462 409.668 110.108 400.39 114.44C395.767 116.616 391.27 119.05 386.92 121.73C382.591 124.446 378.451 127.453 374.53 130.73C370.608 133.992 366.932 137.538 363.53 141.34C360.166 145.171 357.094 149.249 354.34 153.54C348.907 162.159 344.434 171.347 341 180.94C339.24 185.74 337.68 190.61 336.28 195.53C335.6 198 335 200.48 334.35 202.96C333.7 205.44 333.05 207.91 332.49 210.4L330.93 217.92C330.42 220.42 329.83 222.92 329.46 225.45L328.21 233L327.59 236.79L327.11 240.6C324.547 260.933 323.071 281.389 322.69 301.88C321.58 342.88 322.86 384 318.51 424.99C317.908 430.153 316.823 435.249 315.27 440.21C313.713 445.25 311.249 449.964 308 454.12C304.71 458.281 300.5 461.622 295.7 463.88C290.816 466.206 285.273 466.751 280.03 465.42C274.835 463.851 270.411 460.404 267.62 455.75C266.221 453.419 265.361 450.806 265.1 448.1C264.854 445.342 265.387 442.57 266.64 440.1C267.889 437.665 269.75 435.597 272.04 434.1C274.296 432.622 276.82 431.603 279.47 431.1C284.753 430.092 290.222 430.84 295.04 433.23C299.7 435.757 303.682 439.368 306.65 443.76C309.596 448.051 312.029 452.673 313.9 457.53C314.9 459.93 315.74 462.36 316.54 464.81C317.34 467.26 318.2 469.69 318.97 472.14C320.37 477.14 321.87 482.03 322.97 487.07C324.25 492.07 325.06 497.15 326.03 502.21C326.74 507.31 327.59 512.39 328.03 517.52C328.63 522.64 328.84 527.78 329.17 532.92L329.36 540.63C329.46 543.2 329.41 545.77 329.36 548.35L329.31 552.2V554.13L329.22 556.06L328.86 563.76C328.71 566.33 328.46 568.89 328.26 571.45L327.95 575.3L327.51 579.13C326.46 589.36 324.79 599.51 322.82 609.6C318.739 629.743 313.303 649.588 306.55 669C293.16 707.87 275.74 745.13 258.34 782.28C275.44 744.99 292.57 707.6 305.62 668.69C312.279 649.295 317.624 629.473 321.62 609.36C323.54 599.3 325.15 589.17 326.16 578.98L326.57 575.16L326.87 571.33C327.05 568.78 327.29 566.23 327.43 563.68L327.76 556.01L327.84 554.09V552.17V548.33C327.84 545.77 327.91 543.21 327.84 540.66L327.62 532.99C327.26 527.88 327.03 522.77 326.41 517.69C325.97 512.6 325.12 507.55 324.41 502.49C323.41 497.49 322.62 492.42 321.35 487.49C320.27 482.49 318.78 477.6 317.35 472.69C316.58 470.25 315.73 467.84 314.92 465.42C314.11 463 313.27 460.58 312.3 458.23C310.474 453.505 308.104 449.008 305.24 444.83C302.421 440.682 298.649 437.27 294.24 434.88C289.779 432.684 284.723 432.003 279.84 432.94C277.436 433.392 275.143 434.309 273.09 435.64C271.069 436.962 269.428 438.789 268.33 440.94C267.242 443.086 266.778 445.494 266.99 447.89C267.224 450.311 268 452.649 269.26 454.73C271.81 458.967 275.845 462.104 280.58 463.53C282.94 464.174 285.403 464.35 287.83 464.05C290.285 463.765 292.678 463.09 294.92 462.05C299.442 459.92 303.404 456.763 306.49 452.83C309.569 448.857 311.9 444.357 313.37 439.55C314.876 434.708 315.928 429.737 316.51 424.7C318.71 404.38 319.51 383.85 319.89 363.36C320.27 342.87 320.26 322.36 320.89 301.79C321.31 281.238 322.822 260.722 325.42 240.33C328.2 219.97 332.48 199.72 339.58 180.33C343.085 170.622 347.65 161.329 353.19 152.62C355.999 148.28 359.131 144.159 362.56 140.29C366.017 136.452 369.754 132.876 373.74 129.59C377.725 126.314 381.924 123.307 386.31 120.59C390.716 117.914 395.262 115.477 399.93 113.29C409.273 108.976 418.923 105.359 428.8 102.47C448.47 96.47 468.61 92.39 488.36 86.85C498.254 84.1547 507.992 80.9165 517.53 77.15C527.05 73.3573 536.174 68.638 544.77 63.06Z" fill="#FFBFB6"/>
<path d="M868.11 72.17C867.69 81.17 870.2 90.06 873.94 98.17C877.68 106.28 882.61 113.86 887.69 121.24C897.81 136.053 908.503 150.453 919.77 164.44C942.25 192.406 966.886 218.569 993.45 242.69C1006.72 254.737 1020.44 266.26 1034.62 277.26C1048.75 288.26 1063.42 298.64 1077.87 309.26C1092.46 319.771 1106.5 331.032 1119.93 343L1124.84 347.64L1127.29 349.97L1129.65 352.38L1134.37 357.22L1138.88 362.22C1139.63 363.06 1140.4 363.88 1141.13 364.75L1143.26 367.37C1144.67 369.13 1146.14 370.85 1147.51 372.64C1150.14 376.3 1152.94 379.84 1155.3 383.7C1160.29 391.228 1164.61 399.186 1168.19 407.48C1171.84 415.731 1174.85 424.253 1177.19 432.97C1179.53 441.678 1181.31 450.526 1182.53 459.46C1184.84 477.349 1185.09 495.444 1183.28 513.39C1182.42 522.355 1181.11 531.27 1179.34 540.1C1177.59 548.92 1175.51 557.69 1173.05 566.34C1170.59 574.99 1167.79 583.54 1164.76 592.01C1158.65 608.92 1151.59 625.46 1143.89 641.69C1136.19 657.92 1128 674 1119 689.52C1109.96 705.055 1099.94 719.995 1089 734.25C1078.06 748.5 1065.9 761.773 1052.66 773.92C1065.78 761.654 1077.81 748.271 1088.61 733.92C1099.4 719.592 1109.26 704.588 1118.13 689C1127.03 673.43 1135.21 657.45 1142.76 641.19C1150.31 624.93 1157.32 608.4 1163.32 591.52C1169.36 574.655 1174.15 557.369 1177.65 539.8C1179.39 531.021 1180.69 522.16 1181.53 513.25C1182.41 504.352 1182.78 495.41 1182.64 486.47C1182.49 477.531 1181.85 468.607 1180.7 459.74C1179.47 450.891 1177.68 442.127 1175.36 433.5C1173.02 424.88 1170.01 416.455 1166.36 408.3C1162.8 400.114 1158.53 392.257 1153.59 384.82C1151.27 381.01 1148.49 377.5 1145.9 373.82C1144.55 372.04 1143.1 370.34 1141.71 368.6L1139.59 366C1138.88 365.14 1138.11 364.33 1137.38 363.49L1132.91 358.49L1128.24 353.68L1125.9 351.28L1123.47 348.97L1118.6 344.35C1105.25 332.404 1091.28 321.159 1076.76 310.66C1062.34 300 1047.67 289.66 1033.52 278.54C1019.37 267.42 1005.61 255.88 992.37 243.73C965.89 219.447 941.358 193.123 919 165C907.853 150.92 897.28 136.41 887.28 121.47C882.28 114.04 877.4 106.47 873.71 98.23C870.02 89.99 867.61 81.18 868.11 72.17Z" fill="#FFBFB6"/>
<path d="M732.28 79.15C729.287 73.3472 725.92 67.7454 722.2 62.38C718.427 57.0664 714.319 51.9994 709.9 47.21C701.046 37.6522 691.17 29.0944 680.45 21.69C675.13 18 669.61 14.5 664 11.25C661.19 9.58998 658.31 8.07998 655.45 6.52998C652.59 4.97998 649.66 3.52998 646.71 2.16998C634.933 -3.40938 622.866 -8.35314 610.56 -12.64C598.27 -17 585.83 -21 573.35 -24.82C560.87 -28.64 548.41 -32.57 535.62 -34.92C529.24 -36.1198 522.762 -36.7191 516.27 -36.71C509.782 -36.68 503.331 -35.7305 497.11 -33.89C495.54 -33.48 494.03 -32.89 492.49 -32.37C490.95 -31.85 489.49 -31.18 488.03 -30.43C485.088 -29.0552 482.285 -27.401 479.66 -25.49C477.018 -23.5891 474.584 -21.4136 472.4 -19C470.225 -16.5516 468.33 -13.8684 466.75 -11C468.251 -13.9103 470.072 -16.6439 472.18 -19.15C474.323 -21.6364 476.723 -23.8889 479.34 -25.87C481.958 -27.8578 484.757 -29.5955 487.7 -31.06C489.14 -31.85 490.7 -32.44 492.18 -33.12C493.66 -33.8 495.24 -34.33 496.82 -34.78C503.111 -36.7688 509.653 -37.853 516.25 -38C522.827 -38.0967 529.398 -37.5845 535.88 -36.47C548.88 -34.33 561.37 -30.3 573.88 -26.59C586.39 -22.88 598.88 -18.93 611.21 -14.59C623.563 -10.2008 635.67 -5.15018 647.48 0.539982C650.48 1.93998 653.34 3.46998 656.26 4.95998C659.18 6.44998 662.02 8.06998 664.84 9.74998C667.66 11.43 670.46 13.13 673.23 14.88L677.32 17.61C678.69 18.52 680 19.5 681.32 20.44C692.011 28.0475 701.833 36.8067 710.61 46.56C714.941 51.4719 718.95 56.6595 722.61 62.09C726.239 67.5372 729.47 73.2386 732.28 79.15Z" fill="#FFBFB6"/>
<path d="M673.32 84.1499C671.32 62.3699 674.48 40.52 673.32 18.79C672.7 7.95995 671.08 -2.93005 666.85 -12.91C666.31 -14.15 665.85 -15.42 665.26 -16.64C664.67 -17.86 664.07 -19.0701 663.39 -20.2401C662.088 -22.6054 660.659 -24.8988 659.11 -27.1101C655.969 -31.5091 652.452 -35.6278 648.6 -39.42C640.771 -46.9432 632.081 -53.5154 622.71 -59C618.046 -61.7737 613.243 -64.307 608.32 -66.59L606.48 -67.46L604.61 -68.2601C603.37 -68.7901 602.13 -69.35 600.87 -69.85C598.35 -70.85 595.87 -71.8501 593.26 -72.7301C572.711 -79.8666 551.093 -83.438 529.34 -83.29C507.59 -83.2636 485.966 -79.9943 465.18 -73.59C459.99 -71.97 454.85 -70.2101 449.82 -68.1601L446 -66.63L444.1 -65.89L442.24 -65.06L434.8 -61.73C433.55 -61.2 432.34 -60.57 431.13 -59.96L427.49 -58.1301L423.85 -56.3C422.63 -55.69 421.47 -54.99 420.27 -54.35L413.14 -50.35L406.14 -46.1C404.99 -45.38 403.8 -44.71 402.68 -43.94L399.29 -41.68C397.04 -40.1501 394.73 -38.68 392.54 -37.1L386 -32.35C384.89 -31.57 383.81 -30.73 382.75 -29.89L379.53 -27.37C375.2 -24.08 371.11 -20.48 366.93 -16.9901L360.86 -11.54L357.86 -8.79005L354.89 -6.00005C346.89 1.42995 339.47 9.38995 332.18 17.49L326.81 23.6499C325.02 25.7099 323.33 27.84 321.58 29.9399C318.06 34.0999 314.81 38.47 311.43 42.75C314.74 38.42 317.94 34 321.43 29.75C323.15 27.63 324.81 25.4699 326.57 23.38L331.85 17.14C339 8.99995 346.34 0.90995 354.21 -6.67005L357.13 -9.54005L360.13 -12.3101L366.18 -17.84C370.34 -21.37 374.41 -25.0201 378.74 -28.3601L381.94 -30.91C383.01 -31.7701 384.08 -32.62 385.19 -33.41L391.78 -38.28C393.98 -39.92 396.28 -41.38 398.53 -42.94L401.92 -45.25C403.04 -46.0201 404.23 -46.71 405.38 -47.44L412.38 -51.7701L419.51 -55.7701C420.71 -56.43 421.88 -57.1401 423.1 -57.7701L426.76 -59.62L430.42 -61.48C431.65 -62.09 432.86 -62.73 434.11 -63.2701L441.6 -66.64L443.47 -67.4801L445.38 -68.2301L449.19 -69.74C454.26 -71.82 459.44 -73.6101 464.66 -75.2601C485.612 -81.7742 507.419 -85.1277 529.36 -85.21C551.322 -85.3067 573.139 -81.6508 593.87 -74.4001C596.47 -73.5201 599 -72.4701 601.55 -71.4801C602.82 -70.9601 604.07 -70.39 605.33 -69.85L607.21 -69.03L609.07 -68.1501C614.04 -65.8361 618.886 -63.266 623.59 -60.4501L627.09 -58.3C628.26 -57.57 629.38 -56.7901 630.53 -56.0401C632.83 -54.5501 635.05 -52.93 637.24 -51.2901C641.624 -47.9795 645.78 -44.378 649.68 -40.51C653.572 -36.6283 657.116 -32.4121 660.27 -27.91C661.829 -25.6541 663.267 -23.3175 664.58 -20.91C665.26 -19.72 665.84 -18.47 666.44 -17.23C667.04 -15.9901 667.5 -14.69 668.04 -13.43C672.24 -3.23005 673.81 7.79995 674.31 18.7C675.13 40.6199 671.69 62.3499 673.32 84.1499Z" fill="#FFBFB6"/>
<path d="M1066.93 360C1068.45 365.501 1070.46 370.856 1072.93 376C1075.45 381.127 1078.27 386.096 1081.39 390.88C1087.53 400.5 1094.51 409.56 1100.96 419.02C1104.21 423.73 1107.24 428.6 1110.1 433.57C1111.42 436.12 1112.86 438.57 1114.02 441.24C1115.18 443.91 1116.38 446.48 1117.4 449.17C1121.37 459.981 1123.68 471.335 1124.23 482.84C1124.78 494.329 1124.05 505.843 1122.05 517.17C1120.08 528.475 1117.32 539.629 1113.8 550.55C1110.34 561.48 1106.3 572.21 1101.94 582.79C1097.58 593.37 1093.02 603.87 1088.23 614.26C1078.61 635.02 1068.13 655.353 1056.79 675.26C1045.5 695.17 1033.12 714.42 1020.9 733.72C1014.83 743.4 1008.82 753.11 1003.1 762.99C997.38 772.87 992 782.99 987.1 793.26C982.235 803.575 977.998 814.174 974.41 825C970.973 835.898 968.415 847.053 966.76 858.36C968.25 847.019 970.651 835.816 973.94 824.86C977.391 813.952 981.506 803.266 986.26 792.86C991.06 782.47 996.43 772.35 1002.03 762.38C1007.63 752.41 1013.62 742.65 1019.63 732.92L1037.76 703.82C1043.76 694.1 1049.62 684.31 1055.24 674.37C1066.49 654.503 1076.9 634.17 1086.45 613.37C1091.25 603.023 1095.84 592.57 1100.21 582.01C1104.58 571.47 1108.63 560.8 1112.1 549.95C1115.62 539.115 1118.39 528.048 1120.38 516.83C1122.37 505.613 1123.16 494.215 1122.73 482.83C1122.27 471.459 1120.09 460.223 1116.25 449.51C1115.25 446.85 1114.19 444.22 1112.97 441.65C1111.75 439.08 1110.44 436.56 1109.15 434.03C1106.35 429.07 1103.35 424.217 1100.15 419.47C1093.86 409.95 1087 400.78 1080.98 391.05C1077.92 386.221 1075.16 381.212 1072.71 376.05C1070.31 370.882 1068.38 365.511 1066.93 360Z" fill="#FFBFB6"/>
<path d="M900 913.43L897.58 909.17L896.37 907C896 906.28 895.67 905.53 895.37 904.79L893.28 900.36C892.65 898.85 892.09 897.36 891.5 895.79L890.62 893.5C890.32 892.74 890.13 891.94 889.87 891.16L888.45 886.47C888 884.89 887.69 883.28 887.31 881.69C886.93 880.1 886.54 878.51 886.31 876.89C884.023 863.947 884.057 850.701 886.41 837.77C887.569 831.307 889.316 824.964 891.63 818.82L893.52 814.27C893.85 813.52 894.14 812.75 894.52 812.01L895.64 809.81L897.87 805.42L900.43 801.2L901.71 799.09C902.16 798.41 902.62 797.72 903.11 797.09C904.069 795.741 905.097 794.442 906.19 793.2C908.368 790.642 910.994 788.504 913.94 786.89C916.965 785.254 920.429 784.61 923.84 785.05C927.211 785.585 930.375 787.019 933 789.2C935.618 791.34 937.778 793.986 939.35 796.98C940.863 799.97 941.947 803.158 942.57 806.45C943.189 809.698 943.577 812.987 943.73 816.29C943.89 819.57 944.08 822.82 943.99 826.16C944.024 829.579 943.26 832.958 941.76 836.03C940.914 837.585 939.72 838.923 938.27 839.94C936.799 840.952 935.103 841.59 933.33 841.8C929.83 842.138 926.322 841.235 923.42 839.25C920.623 837.207 918.435 834.441 917.09 831.25C915.766 828.158 914.897 824.891 914.51 821.55C913.286 811.593 914.826 801.491 918.96 792.35C919.6 790.82 920.4 789.35 921.17 787.89C921.94 786.43 922.84 785.01 923.81 783.66C925.681 780.904 927.818 778.338 930.19 776C934.9 771.27 940.44 767.66 945.44 763.57C947.943 761.539 950.311 759.347 952.53 757.01C954.739 754.652 956.809 752.168 958.73 749.57C962.529 744.341 965.961 738.854 969 733.15C972.12 727.44 975 721.6 978 715.78C981 709.96 983.91 704.13 986.83 698.29C992.71 686.623 998.43 674.883 1003.99 663.07C1006.72 657.14 1009.47 651.22 1012.13 645.26L1016.06 636.26L1018.06 631.77L1019.92 627.25L1023.65 618.25C1024.87 615.25 1025.99 612.16 1027.17 609.11C1028.35 606.06 1029.55 603.04 1030.6 599.95L1033.81 590.71C1034.34 589.16 1034.9 587.63 1035.41 586.08L1036.85 581.4L1039.75 572.06C1040.68 568.93 1041.47 565.76 1042.33 562.62L1043.6 557.89L1044.24 555.53L1044.78 553.15C1051.07 527.774 1054.22 501.723 1054.16 475.58C1054.72 501.72 1051.54 527.87 1045.74 553.37L1045.22 555.77L1044.6 558.14L1043.35 562.89C1042.51 566.05 1041.74 569.23 1040.83 572.37L1037.99 581.76L1036.58 586.46C1036.08 588.01 1035.58 589.56 1035.01 591.11L1031.85 600.4C1030.85 603.5 1029.6 606.53 1028.48 609.61C1027.36 612.69 1026.22 615.75 1025.01 618.79L1021.34 627.88C1011.52 652.13 1000.14 675.71 988.5 699.11C985.587 704.957 982.657 710.797 979.71 716.63C976.71 722.46 973.85 728.31 970.71 734.08C967.623 739.889 964.135 745.476 960.27 750.8C958.304 753.456 956.191 756 953.94 758.42C951.671 760.834 949.242 763.092 946.67 765.18C941.55 769.34 936.07 772.91 931.53 777.45C929.24 779.695 927.176 782.16 925.37 784.81C924.44 786.11 923.64 787.51 922.81 788.88C921.98 790.25 921.29 791.71 920.67 793.19C918.017 799.052 916.436 805.341 916 811.76C915.68 818.13 916.17 824.76 918.7 830.55C919.913 833.422 921.874 835.915 924.38 837.77C926.924 839.516 929.997 840.319 933.07 840.04C934.555 839.87 935.975 839.342 937.21 838.5C938.453 837.64 939.48 836.504 940.21 835.18C941.563 832.346 942.248 829.24 942.21 826.1C942.3 822.91 942.12 819.62 941.97 816.38C941.819 813.156 941.455 809.946 940.88 806.77C940.302 803.645 939.292 800.616 937.88 797.77C936.429 794.953 934.422 792.459 931.98 790.44C929.577 788.401 926.668 787.05 923.56 786.53C920.446 786.116 917.281 786.689 914.51 788.17C911.699 789.703 909.191 791.736 907.11 794.17C906.044 795.373 905.043 796.631 904.11 797.94C903.63 798.59 903.17 799.26 902.72 799.94L901.44 802.01L898.88 806L896.64 810.33L895.52 812.49C895.17 813.22 894.88 813.98 894.52 814.73L892.61 819.21C885.634 837.556 883.606 857.413 886.73 876.79C886.956 878.404 887.263 880.007 887.65 881.59C888.01 883.18 888.29 884.79 888.72 886.36L890.08 891.06C890.33 891.84 890.51 892.64 890.8 893.4L891.65 895.69C892.22 897.22 892.76 898.76 893.37 900.28L895.37 904.73C895.71 905.47 896.03 906.22 896.37 906.95L897.56 909.1L900 913.43Z" fill="#FFBFB6"/>
<path d="M922.28 52.63C930.305 76.7764 941.557 99.7275 955.73 120.86C970.008 141.887 986.728 161.148 1005.54 178.24C1024.38 195.278 1044.94 210.306 1066.89 223.08C1077.87 229.44 1089.14 235.253 1100.7 240.52C1112.24 245.788 1124.04 250.461 1136.05 254.52C1148.05 258.587 1160.24 262.073 1172.61 264.98C1175.71 265.67 1178.8 266.4 1181.89 267.05C1184.98 267.7 1188.1 268.24 1191.22 268.59C1197.42 269.26 1203.85 269.15 1209.58 266.83C1210.99 266.251 1212.35 265.545 1213.64 264.72C1214.88 263.862 1216 262.836 1216.96 261.67C1218.91 259.316 1220.28 256.538 1220.96 253.56C1221.71 250.629 1221.6 247.544 1220.66 244.67C1220.18 243.278 1219.4 242.004 1218.39 240.932C1217.38 239.86 1216.15 239.014 1214.79 238.45C1211.98 237.343 1208.9 237.089 1205.95 237.72C1202.95 238.323 1200.12 239.583 1197.67 241.41C1192.79 245.252 1189.25 250.547 1187.58 256.53C1186.68 259.494 1186.19 262.564 1186.11 265.66C1186.08 268.796 1186.38 271.927 1187 275C1188.29 281.147 1190.3 287.12 1193 292.79C1195.64 298.53 1198.62 304.15 1201.45 309.84C1204.28 315.53 1207.13 321.22 1209.91 326.94C1221.06 349.8 1231.49 373.02 1240.91 396.64C1250.38 420.273 1258.55 444.405 1265.39 468.93C1268.72 481.21 1271.66 493.597 1274.2 506.09C1276.69 518.57 1278.71 531.16 1280.1 543.82C1281.49 556.48 1282.36 569.2 1282.58 581.93C1282.58 585.12 1282.67 588.3 1282.58 591.49L1282.37 601.04L1281.88 610.58C1281.71 613.76 1281.37 616.93 1281.12 620.11C1280.87 623.29 1280.47 626.44 1280.12 629.61L1279.56 634.35L1278.84 639.08C1277.94 645.38 1276.84 651.66 1275.48 657.89C1272.88 670.397 1269.02 682.609 1263.97 694.34C1261.39 700.189 1258.44 705.867 1255.13 711.34C1251.85 716.816 1248.27 722.102 1244.39 727.17C1240.53 732.243 1236.45 737.14 1232.16 741.86C1227.87 746.58 1223.42 751.133 1218.81 755.52C1214.22 759.94 1209.46 764.17 1204.65 768.33C1202.25 770.43 1199.79 772.44 1197.33 774.46C1194.87 776.48 1192.46 778.55 1189.92 780.46L1182.4 786.33C1179.87 788.25 1177.29 790.12 1174.73 792.01C1173.45 792.95 1172.18 793.92 1170.88 794.83L1166.97 797.56C1164.35 799.36 1161.79 801.25 1159.11 802.97C1116.78 831.353 1070.27 852.928 1021.26 866.91C1070.13 852.634 1116.46 830.786 1158.57 802.16C1161.22 800.42 1163.77 798.53 1166.38 796.73L1170.28 793.99C1171.57 793.07 1172.83 792.1 1174.11 791.16C1176.65 789.26 1179.22 787.39 1181.74 785.47L1189.22 779.58C1191.74 777.65 1194.13 775.58 1196.59 773.58C1199.05 771.58 1201.49 769.58 1203.87 767.44C1208.65 763.27 1213.38 759.03 1217.93 754.62C1222.48 750.21 1226.93 745.62 1231.18 740.98C1235.43 736.34 1239.46 731.39 1243.28 726.34C1247.15 721.284 1250.73 716.012 1254 710.55C1257.25 705.123 1260.15 699.495 1262.69 693.7C1267.66 682.049 1271.43 669.928 1273.97 657.52C1275.3 651.33 1276.4 645.08 1277.28 638.81L1277.99 634.1L1278.54 629.38C1278.9 626.23 1279.32 623.09 1279.54 619.93C1279.76 616.77 1280.12 613.62 1280.28 610.45L1280.76 600.96L1280.96 591.45C1280.96 588.28 1280.96 585.11 1280.9 581.94C1280.67 569.27 1279.81 556.6 1278.39 544C1276.97 531.4 1274.97 518.86 1272.47 506.43C1269.97 494 1267.01 481.65 1263.65 469.43C1256.8 444.982 1248.62 420.926 1239.15 397.37C1229.74 373.79 1219.35 350.6 1208.24 327.76C1205.47 322.053 1202.67 316.36 1199.82 310.68C1197 304.99 1194.03 299.37 1191.36 293.56C1188.59 287.753 1186.52 281.636 1185.19 275.34C1184.56 272.156 1184.27 268.915 1184.32 265.67C1184.41 262.407 1184.93 259.171 1185.89 256.05C1187.68 249.708 1191.45 244.104 1196.65 240.05C1199.32 238.066 1202.39 236.7 1205.65 236.05C1208.96 235.355 1212.39 235.65 1215.53 236.9C1217.11 237.564 1218.53 238.553 1219.71 239.802C1220.88 241.051 1221.78 242.532 1222.35 244.15C1223.41 247.345 1223.53 250.778 1222.7 254.04C1221.95 257.282 1220.45 260.302 1218.32 262.86C1217.26 264.152 1216.02 265.287 1214.64 266.23C1213.25 267.121 1211.79 267.884 1210.26 268.51C1207.21 269.705 1204 270.417 1200.73 270.62C1197.51 270.829 1194.27 270.742 1191.06 270.36C1187.86 270 1184.71 269.43 1181.58 268.79C1178.45 268.15 1175.37 267.39 1172.26 266.69C1159.87 263.743 1147.64 260.197 1135.59 256.05C1123.54 251.921 1111.71 247.174 1100.15 241.83C1088.59 236.497 1077.3 230.62 1066.29 224.2C1044.31 211.317 1023.74 196.167 1004.91 179C986.167 161.748 969.534 142.336 955.36 121.17C941.29 99.9211 930.163 76.865 922.28 52.63Z" fill="#FFBFB6"/>
<path d="M727.3 87.29C725.81 85.9317 724.88 84.0671 724.69 82.06C724.479 80.0623 724.526 78.0457 724.83 76.06C725.39 72.14 725.98 68.23 726.63 64.32C727.963 56.52 729.52 48.7567 731.3 41.03C733.03 33.29 735.09 25.64 737.3 18.03C739.422 10.369 741.956 2.82805 744.89 -4.56002C747.903 -11.9932 752.089 -18.8943 757.29 -25C762.559 -31.0311 768.704 -36.2359 775.52 -40.44C782.28 -44.6214 789.37 -48.2434 796.72 -51.27C804.05 -54.27 811.49 -56.97 819 -59.49C811.65 -56.55 804.28 -53.67 797.11 -50.37C789.899 -47.1922 782.956 -43.4367 776.35 -39.14C769.765 -34.8956 763.815 -29.7374 758.68 -23.82C753.634 -17.8396 749.582 -11.0867 746.68 -3.82002C743.714 3.49783 741.15 10.9723 739 18.57C736.72 26.13 734.71 33.76 732.75 41.41C730.79 49.06 729.1 56.78 727.55 64.53C726.75 68.4 726.01 72.29 725.32 76.17C724.966 78.0918 724.859 80.0509 725 82C725.075 83.9897 725.896 85.8785 727.3 87.29Z" fill="#FFBFB6"/>
<path d="M752.94 82.17C749.58 70.17 750.22 57.17 753.58 45.17C757.089 33.1049 762.914 21.8386 770.73 12C778.46 2.09997 787.92 -6.30003 797.96 -13.74C808.107 -21.0347 818.682 -27.7133 829.63 -33.74C840.543 -39.7934 851.51 -45.7134 862.53 -51.5C873.53 -57.27 884.69 -62.93 896.11 -67.95C907.486 -73.0586 919.133 -77.5387 931 -81.37C942.88 -85.1615 955.051 -87.9742 967.39 -89.78C955.139 -87.5942 943.073 -84.4717 931.3 -80.44C919.529 -76.4442 907.985 -71.8072 896.72 -66.55C874.17 -56.13 852.37 -44.06 830.6 -32C819.681 -26.0776 809.128 -19.5023 799 -12.31C788.92 -5.10315 779.812 3.37341 771.9 12.91C768.01 17.7241 764.566 22.882 761.61 28.32C758.663 33.7649 756.274 39.494 754.48 45.42C752.658 51.3479 751.57 57.477 751.24 63.67C750.93 69.886 751.503 76.1145 752.94 82.17Z" fill="#FFBFB6"/>
<path d="M801.66 82.85C802.946 78.1634 804.736 73.6302 807 69.33C809.334 65.0808 812.066 61.0628 815.16 57.33C821.468 49.9082 828.715 43.3396 836.72 37.79C840.67 34.95 844.78 32.35 848.96 29.86C853.14 27.37 857.41 25.05 861.7 22.79C863.86 21.67 865.99 20.5 868.16 19.41L874.7 16.2C879 14 883.48 12 887.89 9.99996C905.665 2.14511 923.89 -4.64685 942.47 -10.34C961 -16.11 979.82 -21 998.77 -25.26C1017.72 -29.52 1036.77 -33.01 1055.96 -36.18C1065.55 -37.73 1075.17 -39.08 1084.83 -40.18C1089.66 -40.72 1094.5 -41.18 1099.34 -41.52C1104.18 -41.86 1109.04 -42.13 1113.9 -42.26C1123.62 -42.5885 1133.34 -42.3915 1143.04 -41.67C1152.75 -40.9757 1162.39 -39.5753 1171.89 -37.48C1181.38 -35.3748 1190.66 -32.3955 1199.61 -28.58C1208.53 -24.7347 1217.02 -19.9618 1224.94 -14.34C1216.94 -19.8155 1208.39 -24.4374 1199.42 -28.13C1190.45 -31.7734 1181.16 -34.5853 1171.68 -36.53C1162.22 -38.4968 1152.64 -39.7801 1143 -40.37C1133.35 -40.9933 1123.67 -41.0968 1114 -40.68C1094.66 -39.7704 1075.39 -37.6664 1056.31 -34.38C1037.21 -31.16 1018.16 -27.52 999.25 -23.31C961.4 -14.94 924 -4.00004 888.51 11.4C884.09 13.4 879.63 15.26 875.29 17.4L868.74 20.54C866.57 21.6 864.43 22.75 862.28 23.85C857.97 26.06 853.68 28.3 849.52 30.77C847.41 31.95 845.37 33.26 843.31 34.52C841.25 35.78 839.24 37.13 837.31 38.52C829.267 43.9067 821.956 50.3134 815.56 57.58C812.417 61.2607 809.631 65.2319 807.24 69.44C804.896 73.6929 803.025 78.1897 801.66 82.85Z" fill="#FFBFB6"/>
<path d="M921.08 29.7C939.498 26.1705 958.479 26.9025 976.57 31.84L979.97 32.71L983.31 33.77L986.65 34.84L988.32 35.38L990 36L996.55 38.5L1002.97 41.33C1011.45 45.2801 1019.65 49.8143 1027.5 54.9C1043.17 65.16 1057.25 77.67 1070.11 91.21C1082.97 104.75 1094.76 119.28 1106.18 134.02C1117.6 148.76 1128.5 163.9 1139.96 178.56C1145.7 185.84 1151.8 192.91 1159.18 198.43C1162.85 201.188 1166.86 203.441 1171.13 205.13C1175.43 206.784 1179.9 207.965 1184.45 208.65C1193.59 210.07 1202.94 210.2 1212.23 210.51C1221.52 210.82 1230.85 210.74 1240.16 210.51C1258.78 210.17 1277.38 208.84 1295.91 206.79C1277.43 209.29 1258.83 210.79 1240.19 211.49C1230.86 211.803 1221.52 211.887 1212.19 211.74C1207.52 211.66 1202.86 211.56 1198.19 211.36C1193.51 211.193 1188.83 210.785 1184.19 210.14C1179.52 209.478 1174.93 208.315 1170.5 206.67C1166.08 204.941 1161.92 202.627 1158.12 199.79C1150.51 194.14 1144.3 186.96 1138.5 179.66C1127 165 1115.92 150 1104.55 135.24C1093.18 120.48 1081.55 105.93 1068.75 92.46C1062.35 85.72 1055.75 79.19 1048.69 73.13C1041.68 67.0433 1034.31 61.3831 1026.62 56.18C1018.87 51.0563 1010.78 46.4753 1002.4 42.47L996.06 39.59L989.57 37.05L988 36.42L986.35 35.87L983 34.77L979.69 33.69L976.33 32.78C958.379 27.6135 939.494 26.5608 921.08 29.7Z" fill="#FFBFB6"/>
<path d="M1075.4 49.46C1084.21 51.17 1092.22 55.69 1099.25 61.14C1106.28 66.59 1112.73 72.87 1119.25 78.97L1158.18 115.75C1164.66 121.89 1171.18 128 1177.57 134.23C1183.96 140.46 1190.26 146.82 1196.18 153.54C1199.12 156.91 1201.99 160.35 1204.71 163.91C1207.43 167.47 1209.99 171.16 1212.38 174.96C1214.75 178.776 1216.92 182.711 1218.88 186.75C1220.82 190.8 1222.53 194.95 1224.08 199.15C1230.31 216 1233.88 233.57 1238.9 250.65C1243.92 267.73 1249.52 284.65 1255.54 301.48C1261.56 318.31 1267.92 334.95 1274.22 351.66C1280.52 368.37 1286.87 385.04 1293.4 401.66C1299.93 418.28 1306.58 434.82 1313.59 451.22C1317.09 459.42 1320.71 467.57 1324.36 475.72C1328.01 483.87 1331.6 492.06 1334.83 500.41C1336.44 504.59 1337.96 508.81 1339.35 513.07C1340.74 517.33 1341.94 521.66 1342.99 526.07C1345.01 534.817 1346.34 543.707 1346.99 552.66C1348.37 570.54 1347.55 588.44 1347.22 606.26C1347.06 615.18 1347.02 624.09 1347.44 632.99C1347.86 641.89 1348.75 650.75 1349.9 659.59C1352.17 677.27 1355.3 694.89 1356.58 712.74C1357.28 721.661 1357.32 730.622 1356.72 739.55C1356.03 748.477 1354.45 757.313 1351.98 765.92C1349.56 774.544 1345.91 782.777 1341.16 790.37C1336.4 797.949 1330.3 804.6 1323.16 810C1330.24 804.546 1336.27 797.851 1340.96 790.24C1345.63 782.635 1349.18 774.402 1351.52 765.79C1353.9 757.202 1355.4 748.393 1356 739.5C1356.52 730.606 1356.39 721.685 1355.61 712.81C1354.23 695.04 1351.03 677.46 1348.61 659.75C1347.42 650.9 1346.45 642 1346.01 633.06C1345.57 624.12 1345.54 615.17 1345.65 606.24C1345.87 588.38 1346.65 570.53 1345.24 552.79C1344.58 543.931 1343.24 535.135 1341.24 526.48C1340.24 522.17 1338.97 517.9 1337.61 513.67C1336.25 509.44 1334.71 505.27 1333.11 501.12C1329.88 492.83 1326.28 484.67 1322.63 476.53C1318.98 468.39 1315.32 460.23 1311.8 452.03C1304.8 435.61 1298.03 419.03 1291.51 402.43C1284.99 385.83 1278.7 369.1 1272.41 352.43C1266.12 335.76 1259.81 319.02 1253.8 302.2C1247.79 285.38 1242.12 268.42 1237.21 251.2C1234.74 242.61 1232.54 233.94 1230.3 225.31C1228.06 216.68 1225.66 208.1 1222.61 199.75C1221.09 195.57 1219.42 191.46 1217.53 187.45C1215.61 183.448 1213.48 179.546 1211.16 175.76C1208.82 171.99 1206.28 168.34 1203.62 164.76C1200.96 161.18 1198.11 157.76 1195.2 154.42C1189.35 147.71 1183.11 141.34 1176.75 135.08C1170.39 128.82 1163.91 122.69 1157.48 116.5L1118.88 79.38C1112.44 73.21 1106.12 66.88 1099.09 61.38C1092.06 55.88 1084.19 51.25 1075.4 49.46Z" fill="#FFBFB6"/>
<path d="M437.74 648.35C443.018 660.983 447.252 674.026 450.4 687.35C453.522 700.719 455.602 714.309 456.62 728C457.64 741.691 457.56 755.442 456.38 769.12C455.179 782.801 452.902 796.366 449.57 809.69C449.14 811.36 448.79 813.04 448.29 814.69L446.83 819.63L445.37 824.57L443.75 829.45C441.55 835.95 439.14 842.36 436.66 848.75C431.66 861.5 426.46 874.14 421.73 886.95C417 899.76 412.92 912.82 410.6 926.27C409.411 932.987 408.769 939.789 408.68 946.61C408.614 953.448 409.206 960.276 410.45 967C407.45 953.62 407.58 939.67 409.63 926.12C411.68 912.57 415.74 899.35 420.28 886.44C424.82 873.53 430.08 860.86 434.96 848.1C437.41 841.72 439.78 835.32 441.96 828.85L443.55 823.99L444.98 819.08L446.4 814.18C446.89 812.55 447.23 810.87 447.66 809.23C451.009 796.021 453.32 782.57 454.57 769C455.763 755.412 455.937 741.754 455.09 728.14C453.377 700.832 447.527 673.942 437.74 648.39V648.35Z" fill="#FFBFB6"/>
<path d="M353.45 349.81C351.497 359.81 350.027 369.867 349.04 379.98C348.053 390.093 347.553 400.24 347.54 410.42C347.48 420.587 347.7 430.747 348.2 440.9C348.7 451.053 349.443 461.187 350.43 471.3C352.34 491.54 354.69 511.75 356.94 531.98C359.19 552.21 361.32 572.45 362.81 592.76C363.563 602.92 364.12 613.09 364.48 623.27C364.87 633.45 364.96 643.64 364.85 653.83C364.53 674.19 363.43 694.62 359.85 714.73C356.27 734.84 350.85 754.66 341.93 773.05C337.494 782.253 332.108 790.967 325.86 799.05C319.618 807.112 312.396 814.364 304.36 820.64C312.278 814.248 319.37 806.895 325.47 798.75C331.558 790.62 336.779 781.875 341.05 772.66C349.72 754.29 355.05 734.51 358.33 714.51C359.15 709.503 359.84 704.477 360.4 699.43C360.97 694.43 361.46 689.34 361.81 684.27C362.5 674.11 363 664 363 653.81C363 643.62 363 633.49 362.54 623.34C362.38 618.26 362.06 613.19 361.81 608.12C361.56 603.05 361.19 597.97 360.81 592.91C359.38 572.63 357.3 552.4 355.13 532.17C352.96 511.94 350.57 491.73 348.89 471.44C348.05 461.293 347.383 451.133 346.89 440.96C346.49 430.78 346.34 420.59 346.52 410.41C346.7 400.23 347.45 390.06 348.52 379.93C349.59 369.8 351.34 359.76 353.45 349.81Z" fill="#FFBFB6"/>
<path d="M440.88 49.59C436.673 48.4617 432.383 47.6692 428.05 47.22C423.712 46.8213 419.349 46.7478 415 47C410.657 47.2381 406.336 47.7828 402.07 48.63C397.801 49.4489 393.589 50.5411 389.46 51.9C372.88 57.27 357.86 66.58 344.29 77.38C337.49 82.79 330.99 88.58 324.68 94.57C318.37 100.56 312.24 106.73 306.31 113.1C294.372 125.729 283.561 139.378 274 153.89C264.536 168.462 256.816 184.096 251 200.47C248.06 208.63 245.68 216.99 243.56 225.41C241.44 233.83 239.91 242.41 238.56 250.97C237.21 259.53 236.35 268.2 235.67 276.87C234.99 285.54 234.67 294.22 234.59 302.87C234.42 320.26 235.21 337.65 236.51 355C239.06 389.72 243.64 424.29 246.46 459C249.28 493.71 250.64 528.62 250.73 563.48C250.82 598.34 249.92 633.19 248.34 668C247.88 676.7 247.58 685.41 246.85 694.11C246.198 702.842 244.911 711.515 243 720.06C241.132 728.605 237.997 736.822 233.7 744.44C231.512 748.218 228.891 751.728 225.89 754.9C222.877 758.056 219.469 760.809 215.75 763.09C219.441 760.772 222.818 757.989 225.8 754.81C228.764 751.626 231.345 748.105 233.49 744.32C237.685 736.689 240.718 728.475 242.49 719.95C244.308 711.444 245.514 702.818 246.1 694.14C246.75 685.47 246.97 676.75 247.34 668.05C248.72 633.24 249.49 598.41 249.17 563.58C249.01 546.167 248.58 528.76 247.88 511.36C247.18 493.96 246.093 476.587 244.62 459.24C241.75 424.54 237.11 389.98 234.5 355.24C233.22 337.85 232.5 320.4 232.67 302.94C232.77 294.21 233.18 285.49 233.8 276.78C234.42 268.07 235.46 259.39 236.74 250.78C238.02 242.17 239.74 233.56 241.82 225.07C243.9 216.58 246.38 208.19 249.35 199.96C250.04 197.89 250.9 195.88 251.67 193.83L252.85 190.77C253.25 189.77 253.71 188.77 254.14 187.77C255.02 185.77 255.86 183.77 256.76 181.77L259.62 175.86C263.529 168.037 267.9 160.454 272.71 153.15C282.39 138.572 293.329 124.869 305.4 112.2C311.4 105.84 317.58 99.71 323.92 93.71C330.26 87.71 336.82 82 343.7 76.57C357.43 65.85 372.62 56.63 389.32 51.4C393.474 50.0706 397.709 49.0118 402 48.23C406.292 47.422 410.637 46.9174 415 46.72C419.357 46.5114 423.723 46.6384 428.06 47.1C432.393 47.5889 436.679 48.4215 440.88 49.59Z" fill="#FFBFB6"/>
<path d="M288.45 504.22C284.97 525.22 285.4 546.6 287.29 567.7C289.18 588.8 292.17 609.86 294.11 631.04C295.11 641.63 295.76 652.26 295.72 662.92C295.789 673.591 294.99 684.249 293.33 694.79C291.649 705.35 288.829 715.697 284.92 725.65C280.886 735.53 276.13 745.099 270.69 754.28C265.36 763.49 259.69 772.47 254.24 781.57C251.57 786.15 248.9 790.73 246.24 795.34L242.44 802.34C241.17 804.67 239.89 806.99 238.71 809.34C228.943 828.168 220.207 847.513 212.54 867.29C204.876 887.074 198.362 907.284 193.03 927.82C187.611 948.35 183.357 969.17 180.29 990.18C183.033 969.107 186.97 948.207 192.08 927.58C202.402 886.273 217.504 846.31 237.08 808.5C238.26 806.12 239.54 803.79 240.81 801.5L244.6 794.5C247.21 789.86 249.88 785.26 252.54 780.65C257.96 771.51 263.61 762.52 268.9 753.34C274.338 744.255 279.101 734.783 283.15 725C287.03 715.18 289.843 704.971 291.54 694.55C293.212 684.087 294.035 673.506 294 662.91C294 652.33 293.46 641.74 292.58 631.17C290.83 610.04 287.9 588.98 286.32 567.78C284.74 546.58 284.65 525.15 288.45 504.22Z" fill="#FFBFB6"/>
<path d="M379.4 25.71C358.02 26.33 336.61 27.01 315.34 29.26C294.07 31.51 272.92 35.35 252.7 42.26C212.019 56.0716 176.163 81.2818 149.4 114.89C146.01 119.02 143.04 123.45 139.93 127.78C138.33 129.91 137 132.23 135.57 134.48C134.14 136.73 132.72 138.98 131.34 141.26C125.987 150.481 121.199 160.019 117 169.82C116 172.28 114.85 174.69 113.91 177.19L111.11 184.69L109.72 188.44L108.49 192.24L106 199.86C105.22 202.4 104.56 204.99 103.83 207.55L102.76 211.41L102.22 213.34L101.76 215.29L100 223.08C99.7101 224.38 99.3701 225.67 99.1101 226.98L98.3401 230.9L96.8001 238.76C96.3501 241.39 95.95 244.03 95.5201 246.66C94.61 251.92 94.0001 257.22 93.3301 262.52C92.9601 265.16 92.7301 267.82 92.4801 270.52L91.7201 278.52L91.1801 286.52C91.0201 289.18 90.7901 291.84 90.7201 294.52C89.7201 315.86 90.1401 337.25 91.2801 358.59C93.5801 401.28 98.83 443.78 102.46 486.44C104.3 507.77 105.65 529.16 106.01 550.58C106.16 555.94 106.08 561.29 106.08 566.65C106.08 569.33 105.99 572.01 105.93 574.65L105.71 582.65C105.2 593.35 104.57 604.05 103.37 614.65C101.233 635.997 97.1974 657.11 91.3101 677.74L89.0001 685.47C88.2101 688.03 87.2701 690.55 86.4101 693.09L85.1001 696.88L84.4401 698.78L83.7001 700.65L80.7001 708.12C80.1901 709.36 79.7501 710.63 79.1801 711.84L77.5101 715.5L74.1701 722.81L70.4801 730C69.2401 732.38 68.0501 734.78 66.6901 737.09C61.437 746.448 55.3525 755.313 48.5101 763.58C41.6586 771.836 33.7041 779.111 24.8701 785.2C15.9949 791.262 6.09512 795.667 -4.34994 798.2C-14.7878 800.794 -25.683 800.948 -36.1899 798.65C-25.6872 800.876 -14.8129 800.654 -4.40994 798C5.97353 795.394 15.7989 790.929 24.5901 784.82C33.3323 778.677 41.1891 771.362 47.9401 763.08C54.6941 754.805 60.6852 745.935 65.8401 736.58C67.1801 734.27 68.3501 731.87 69.5801 729.5L73.2301 722.37L76.5201 715.07L78.1701 711.42C78.7301 710.21 79.1701 708.95 79.6701 707.71L82.6101 700.26L83.3301 698.4L83.9801 696.51L85.2701 692.72C86.12 690.18 87.0401 687.72 87.8201 685.12L90.0701 677.44C95.8478 656.865 99.7767 635.814 101.81 614.54C102.96 603.93 103.54 593.25 104.01 582.54C104.12 577.2 104.32 571.87 104.34 566.54C104.36 561.21 104.41 555.86 104.25 550.54C103.87 529.17 102.48 507.83 100.62 486.54C96.9301 443.93 91.6201 401.42 89.2501 358.63C88.1401 337.25 87.7701 315.79 88.7901 294.37C88.8601 291.69 89.0901 289.02 89.2601 286.37L89.8101 278.37L90.5801 270.37C90.8401 267.71 91.0701 265.03 91.4501 262.37C92.1401 257.05 92.7501 251.73 93.6801 246.44C94.11 243.8 94.5101 241.15 94.9801 238.51L96.5301 230.61L97.3101 226.67C97.5701 225.35 97.9201 224.06 98.2101 222.75L100.06 214.92L100.53 212.92L101.07 210.98L102.15 207.11C102.89 204.53 103.55 201.93 104.35 199.37L106.83 191.72L108.08 187.89L109.48 184.12L112.3 176.58C113.3 174.07 114.39 171.64 115.43 169.16C119.662 159.293 124.494 149.695 129.9 140.42C131.3 138.13 132.76 135.88 134.19 133.61C135.62 131.34 136.99 129.03 138.61 126.88C141.76 122.54 144.77 118.09 148.2 113.95C175.25 80.2604 211.417 55.0592 252.39 41.35C272.76 34.58 294 30.89 315.29 28.8C336.58 26.71 358 26.16 379.4 25.71Z" fill="#FFBFB6"/>
<path d="M185.88 274.61C177.04 289.344 170.028 305.1 165 321.53C159.943 337.923 156.428 354.753 154.5 371.8C150.5 405.89 151.5 440.37 154.65 474.52C157.8 508.67 162.6 542.76 165.52 577.03C166.97 594.16 167.96 611.35 168 628.56C168.081 645.765 166.951 662.954 164.62 680C166.553 662.925 167.348 645.74 167 628.56C166.76 611.4 165.6 594.26 164 577.17C160.73 543 155.83 509 152.63 474.7C151.1 457.57 150.12 440.37 150.03 423.15C149.869 405.926 150.861 388.711 153 371.62C155.088 354.517 158.771 337.647 164 321.23C169.32 304.838 176.671 289.176 185.88 274.61Z" fill="#FFBFB6"/>
<path d="M1308.82 271.1C1315.21 284.1 1321.37 297.31 1327.44 310.51C1333.51 323.71 1339.31 337.05 1345.01 350.42C1350.71 363.79 1356.22 377.24 1361.57 390.75C1366.92 404.26 1372.16 417.83 1377.2 431.46C1382.24 445.09 1387.07 458.81 1391.76 472.57C1396.45 486.33 1401.15 500.08 1405.25 514.04C1407.25 521.04 1409.17 528.04 1410.81 535.15C1412.45 542.26 1413.81 549.41 1414.81 556.63C1416.87 571.062 1416.8 585.718 1414.6 600.13C1415.53 592.929 1415.92 585.669 1415.78 578.41C1415.61 571.158 1414.97 563.926 1413.84 556.76C1411.76 542.41 1408.04 528.35 1403.84 514.49C1399.64 500.63 1394.84 486.88 1390.11 473.16C1385.38 459.44 1380.45 445.77 1375.39 432.16C1365.39 404.88 1354.74 377.87 1343.66 351.02C1332.58 324.17 1320.84 297.55 1308.82 271.1Z" fill="#FFBFB6"/>
<path d="M1300.75 666.11C1300.07 675.81 1299.15 685.48 1298.13 695.11C1297.11 704.74 1295.83 714.41 1294.46 724.03C1293.09 733.65 1291.46 743.25 1289.8 752.82C1288.14 762.39 1286.25 771.96 1283.93 781.43C1281.6 790.913 1278.55 800.207 1274.82 809.23C1272.92 813.733 1270.78 818.135 1268.43 822.42C1266.03 826.681 1263.4 830.804 1260.54 834.77C1254.8 842.652 1248.5 850.108 1241.68 857.08C1234.9 864.08 1227.84 870.73 1220.68 877.31C1227.51 870.4 1234.43 863.58 1240.96 856.41C1247.59 849.347 1253.71 841.821 1259.28 833.89C1262 829.89 1264.56 825.8 1266.9 821.59C1269.2 817.349 1271.28 812.989 1273.13 808.53C1276.77 799.589 1279.74 790.386 1282 781C1284.36 771.61 1286.27 762.1 1288 752.56C1289.73 743.02 1291.36 733.44 1292.94 723.86C1294.52 714.28 1295.88 704.67 1297.16 695.05C1298.44 685.43 1299.63 675.76 1300.75 666.11Z" fill="#FFBFB6"/>
<path d="M1222.13 449.75C1223.25 453.88 1224.38 458.01 1225.45 462.16C1226.52 466.31 1227.45 470.48 1228.45 474.66C1229.45 478.84 1230.26 483.04 1231.06 487.25C1231.86 491.46 1232.69 495.66 1233.37 499.89C1236.22 516.8 1238.1 533.89 1239.28 550.97C1240.28 568.09 1240.58 585.26 1239.89 602.39C1239.76 606.67 1239.48 610.95 1239.21 615.23C1238.94 619.51 1238.58 623.77 1238.21 628.04C1237.84 632.31 1237.3 636.56 1236.83 640.82C1236.7 642.964 1236.37 645.091 1235.83 647.17C1235.52 648.21 1235.01 649.181 1234.33 650.03C1233.99 650.456 1233.57 650.808 1233.1 651.063C1232.62 651.318 1232.09 651.47 1231.55 651.51C1232.08 651.445 1232.59 651.272 1233.04 651.002C1233.5 650.732 1233.9 650.37 1234.21 649.94C1234.83 649.083 1235.28 648.116 1235.54 647.09C1236.01 645.011 1236.28 642.891 1236.35 640.76C1236.67 636.5 1237.09 632.24 1237.29 627.96C1237.49 623.68 1237.87 619.43 1238 615.16C1238.13 610.89 1238.37 606.62 1238.4 602.34C1238.77 585.25 1238.5 568.15 1237.33 551.1C1236.33 534.04 1234.43 517.04 1231.9 500.1C1231.32 495.87 1230.54 491.67 1229.9 487.44C1229.26 483.21 1228.34 479.04 1227.58 474.83C1226.82 470.62 1225.88 466.45 1225.03 462.25L1222.13 449.75Z" fill="#FFBFB6"/>
<path d="M613.2 47.57C607.12 37.912 598.958 29.7359 589.31 23.64C579.732 17.5448 569.249 13.0052 558.25 10.19C547.218 7.40865 535.948 5.671 524.59 4.99996C513.22 4.20996 501.79 3.99996 490.36 3.74996C501.78 3.25996 513.22 2.90996 524.68 3.43996C536.177 3.83052 547.601 5.43612 558.76 8.22996C569.956 11.1094 580.578 15.8778 590.17 22.33C594.941 25.571 599.334 29.3343 603.27 33.55C607.187 37.7627 610.526 42.4773 613.2 47.57Z" fill="#FFBFB6"/>
<path d="M675.54 82C684.195 67.5248 690.408 51.7236 693.93 35.23C695.682 26.9993 696.746 18.6371 697.11 10.23C697.446 1.80011 697.112 -6.64313 696.11 -15.02C697.879 -6.7086 698.724 1.77289 698.63 10.27C698.55 18.7882 697.619 27.2771 695.85 35.61C694.092 43.9771 691.503 52.1477 688.12 60C684.745 67.772 680.527 75.1496 675.54 82Z" fill="#FFBFB6"/>
<path d="M646.69 87.14C645.69 74.8491 643.89 62.6365 641.3 50.58C638.715 38.5648 634.85 26.8613 629.77 15.67C624.682 4.50438 618.024 -5.87713 610 -15.16C601.938 -24.4952 592.289 -32.3324 581.5 -38.31C592.74 -32.9647 602.813 -25.4508 611.14 -16.2C619.511 -6.98059 626.409 3.47588 631.59 14.8C636.716 26.1228 640.486 38.012 642.82 50.22C645.163 62.3934 646.457 74.7453 646.69 87.14Z" fill="#FFBFB6"/>
<path d="M773.08 83.35C774.644 80.9526 776.028 78.4423 777.22 75.84C778.386 73.2303 779.411 70.5598 780.29 67.84C782.11 62.42 783.51 56.84 785.2 51.36C786.03 48.6 786.92 45.86 787.99 43.16C788.48 41.8 789.13 40.5 789.72 39.16C790.31 37.82 790.87 36.5 791.61 35.25L793.72 31.43L796.09 27.78C796.85 26.54 797.76 25.41 798.62 24.25C799.48 23.09 800.33 21.91 801.31 20.83L804.16 17.55L807.21 14.45C808.21 13.39 809.29 12.45 810.36 11.45C811.43 10.45 812.47 9.44999 813.63 8.58998L817 5.90998C818.15 5.03998 819.33 4.20999 820.5 3.35999C821.67 2.50998 822.86 1.69999 824.08 0.919985C825.3 0.139985 826.48 -0.680015 827.73 -1.39001C832.671 -4.36957 837.79 -7.04132 843.06 -9.39001C848.331 -11.6713 853.719 -13.674 859.2 -15.39C853.87 -13.25 848.59 -11.03 843.47 -8.46001C842.19 -7.83001 840.93 -7.15001 839.66 -6.46001L837.76 -5.46001L835.9 -4.39001C834.67 -3.67001 833.41 -3.01001 832.19 -2.26001L828.57 -0.070014C818.923 5.99064 810.249 13.4753 802.84 22.13C801.84 23.18 801.07 24.34 800.2 25.46C799.33 26.58 798.45 27.69 797.7 28.9L795.37 32.45L793.28 36.15C792.578 37.3827 791.94 38.651 791.37 39.95C790.77 41.23 790.12 42.49 789.61 43.82C788.54 46.45 787.61 49.13 786.68 51.82C784.88 57.24 783.26 62.77 781.21 68.15C779.254 73.5853 776.515 78.706 773.08 83.35Z" fill="#FFBFB6"/>
<path d="M799.59 79.53C798.61 76.2366 797.647 72.9366 796.7 69.6299L794.08 59.63L791.77 49.56L789.71 39.45C787.13 25.92 785.36 12.24 784.13 -1.48005C783.07 -15.22 782.56 -29 782.87 -42.77L783.23 -53.09L783.84 -63.4L784.78 -73.68C785.173 -77.1 785.58 -80.5134 786 -83.92C785.787 -80.4867 785.557 -77.0567 785.31 -73.63L784.82 -63.34L784.49 -53L784.4 -42.71C784.4 -28.98 784.91 -15.26 786.13 -1.60004C787.13 12.08 788.97 25.6899 791.21 39.2299L793 49.33L795 59.43L797.18 69.5C798.013 72.84 798.817 76.1833 799.59 79.53Z" fill="#FFBFB6"/>
<path d="M825.16 84.15C825.826 79.734 827.229 75.4613 829.31 71.51C831.418 67.5563 834.074 63.9203 837.2 60.71C840.302 57.4824 843.712 54.5653 847.38 52C851.015 49.4024 854.809 47.0345 858.74 44.91C866.55 40.55 874.85 37.23 883.06 33.85C891.27 30.47 899.67 27.45 908.06 24.57C924.953 18.9516 942.159 14.3204 959.59 10.7C968.3 8.92996 977.08 7.43996 985.87 6.12996C994.66 4.81996 1003.52 3.93996 1012.37 3.26996C994.74 5.43996 977.22 8.33996 959.91 12.21C951.27 14.21 942.64 16.21 934.11 18.64C925.58 21.07 917.11 23.58 908.7 26.46C900.29 29.34 891.94 32.24 883.7 35.54C875.431 38.7005 867.327 42.2784 859.42 46.26C855.508 48.2652 851.727 50.5164 848.1 53C844.442 55.4635 841.027 58.2695 837.9 61.38C834.717 64.4377 831.98 67.9287 829.77 71.75C827.589 75.6142 826.033 79.7993 825.16 84.15Z" fill="#FFBFB6"/>
<path d="M204.73 514.44C205.73 517.87 206.56 521.34 207.31 524.82C208.06 528.3 208.72 531.82 209.31 535.29C209.9 538.76 210.46 542.29 210.91 545.84C211.36 549.39 211.76 552.91 211.96 556.48C210.96 553.05 210.12 549.58 209.37 546.11C208.62 542.64 207.97 539.11 207.37 535.63C206.77 532.15 206.23 528.63 205.78 525.08C205.33 521.53 204.93 518 204.73 514.44Z" fill="#FFBFB6"/>
<path d="M155.29 714.08C155.441 722.811 154.453 731.524 152.35 740C150.27 748.496 147.147 756.702 143.05 764.43C138.966 772.179 133.963 779.408 128.15 785.96C122.341 792.54 115.69 798.326 108.37 803.17L107.73 803.6L107.22 803.01C106.011 801.553 105.403 799.69 105.52 797.8C105.637 795.988 106.212 794.236 107.192 792.707C108.171 791.178 109.523 789.923 111.12 789.06C112.794 788.166 114.746 787.94 116.58 788.43L117.28 788.63V789.35C116.866 797.709 114.76 805.898 111.09 813.42C107.438 820.872 102.949 827.884 97.71 834.32C87.5 847.32 75.8 858.92 66.01 872.03C61.1394 878.592 56.8657 885.576 53.24 892.9C49.6288 900.239 46.6998 907.895 44.49 915.77C42.2701 923.66 40.7574 931.732 39.97 939.89C39.2 948.064 39.1799 956.292 39.91 964.47C38.9203 956.298 38.7294 948.049 39.34 939.84C39.9276 931.609 41.2937 923.453 43.42 915.48C47.6405 899.463 54.8207 884.376 64.59 871C74.43 857.7 86.1 846 96.15 833.12C101.245 826.756 105.653 819.871 109.3 812.58C112.899 805.301 114.981 797.368 115.42 789.26L116.09 790.19C114.698 789.809 113.212 789.977 111.94 790.66C110.624 791.378 109.509 792.414 108.695 793.674C107.881 794.933 107.395 796.375 107.28 797.87C107.178 799.318 107.636 800.75 108.56 801.87L107.41 801.71C114.609 796.945 121.189 791.305 127 784.92C132.83 778.53 137.867 771.459 142 763.86C146.15 756.248 149.396 748.176 151.67 739.81C153.944 731.418 155.16 722.774 155.29 714.08Z" fill="#FFBFB6"/>
<path d="M400 781.87C399.047 786.826 397.71 791.701 396 796.45C394.303 801.208 392.299 805.851 390 810.35C387.703 814.85 385.111 819.193 382.24 823.35C379.397 827.512 376.227 831.442 372.76 835.1C375.59 830.94 378.34 826.77 380.93 822.5C383.52 818.23 385.93 813.89 388.22 809.5C390.51 805.11 392.57 800.5 394.52 795.94C396.47 791.38 398.25 786.61 400 781.87Z" fill="#FFBFB6"/>
<path d="M148.29 38.14C139.2 37.63 130.09 37.03 121.02 37.53C111.966 37.7792 103.028 39.6312 94.62 43C86.3214 46.6321 78.5781 51.4195 71.62 57.22C64.6569 63.0105 58.1571 69.3364 52.18 76.14C46.1842 82.9468 40.6581 90.1534 35.64 97.71C34.41 99.62 33.1 101.47 31.94 103.42L28.39 109.23C26.16 113.23 23.86 117.11 21.75 121.13C17.49 129.13 13.5 137.34 9.86002 145.68C6.22002 154.02 2.68002 162.41 -0.72998 170.86C2.27002 162.25 5.52002 153.74 8.95002 145.29C12.38 136.84 16.27 128.57 20.39 120.42C24.4894 112.248 29.0777 104.33 34.13 96.71C39.1352 89.0403 44.6651 81.7262 50.68 74.82C56.7868 67.9746 63.4241 61.6215 70.53 55.82C77.69 50.14 85.45 45 94 41.62C102.627 38.3394 111.771 36.6259 121 36.56C130.121 36.5163 139.235 37.044 148.29 38.14Z" fill="#FFBFB6"/>
<path d="M521.06 798.42C525.957 809.692 528.851 821.733 529.61 834C531.28 858.813 524.32 883.441 509.91 903.71C502.842 913.768 494.074 922.516 484 929.56C493.527 921.96 501.833 912.945 508.63 902.83C522.294 882.585 529.104 858.492 528.06 834.09C527.563 821.912 525.202 809.882 521.06 798.42Z" fill="#FFBFB6"/>
<path d="M569.72 809.47C573.31 819.15 576.54 828.96 579.33 838.9C582.12 848.84 584.57 858.9 586.68 869C587.713 874.06 588.667 879.137 589.54 884.23C590.36 889.32 591.05 894.62 590.16 899.88C589.714 902.495 588.875 905.027 587.67 907.39C586.5 909.74 585.14 911.94 583.81 914.15C582.427 916.302 581.213 918.559 580.18 920.9C579.154 923.257 578.623 925.799 578.62 928.37C578.401 925.773 578.763 923.16 579.68 920.72C580.585 918.284 581.682 915.923 582.96 913.66C585.42 909.14 587.96 904.66 588.62 899.66C589.28 894.66 588.62 889.59 587.62 884.56C586.62 879.53 585.73 874.44 584.68 869.41C580.59 849.23 575.44 829.3 569.72 809.47Z" fill="#FFBFB6"/>
<path d="M491.27 799.6C492.09 804.7 492.663 809.833 492.99 815C493.338 820.178 493.322 825.374 492.94 830.55C492.562 835.756 491.595 840.902 490.06 845.89C488.546 850.88 486.196 855.577 483.11 859.78C485.481 855.236 487.31 850.43 488.56 845.46C489.798 840.515 490.614 835.473 491 830.39C491.43 825.3 491.5 820.18 491.49 815.05C491.48 809.92 491.26 804.77 491.27 799.6Z" fill="#FFBFB6"/>
<path d="M1172.64 34.93C1192.56 37.4133 1212.12 42.2332 1230.91 49.29C1240.31 52.8198 1249.5 56.8899 1258.43 61.48C1267.35 66.0808 1276.03 71.1444 1284.43 76.65C1292.82 82.1748 1300.9 88.1676 1308.62 94.6C1312.51 97.77 1316.23 101.15 1319.97 104.51L1325.42 109.72C1327.24 111.45 1328.95 113.29 1330.72 115.07C1344.76 129.487 1357.13 145.441 1367.6 162.63C1378.01 179.856 1386.37 198.245 1392.5 217.42C1398.61 236.57 1402.94 256.16 1408.25 275.42C1413.56 294.68 1420.12 313.74 1430.51 330.85C1435.58 339.47 1441.67 347.438 1448.67 354.58C1455.71 361.719 1463.87 367.664 1472.82 372.18C1463.78 367.819 1455.51 362.016 1448.34 355C1441.19 347.929 1434.92 340.014 1429.68 331.43C1424.43 322.842 1419.95 313.807 1416.3 304.43C1412.59 295.09 1409.54 285.52 1406.78 275.87C1401.22 256.6 1396.94 237 1390.78 217.99C1384.64 198.976 1376.29 180.748 1365.9 163.68C1345.28 129.47 1316.7 100.24 1283.59 77.93C1275.28 72.3759 1266.69 67.2622 1257.85 62.61C1249 57.9627 1239.88 53.8227 1230.56 50.21C1211.92 42.8623 1192.48 37.7337 1172.64 34.93Z" fill="#FFBFB6"/>
<path d="M1268.8 -10.45C1283.18 -3.83351 1297.94 1.92003 1313 6.77999C1328 11.84 1343.16 16.45 1358.16 21.6C1373.24 26.5845 1387.94 32.6399 1402.16 39.72C1416.31 46.92 1429.9 55.47 1441.78 66.14C1447.7 71.4921 1453.14 77.3547 1458.04 83.66C1462.87 90.0031 1467.24 96.6872 1471.11 103.66C1478.92 117.52 1485.4 132.01 1492.53 146.11C1496.05 153.179 1499.95 160.052 1504.21 166.7C1508.48 173.337 1513.31 179.602 1518.63 185.43C1523.94 191.28 1529.96 196.431 1536.57 200.76C1543.2 205.089 1550.52 208.271 1558.21 210.17C1550.44 208.469 1543.02 205.423 1536.29 201.17C1529.55 196.937 1523.37 191.863 1517.91 186.07C1506.91 174.5 1498.45 160.86 1491.16 146.79C1483.87 132.72 1477.36 118.24 1469.53 104.53C1465.68 97.6595 1461.33 91.0758 1456.53 84.83C1451.68 78.6365 1446.3 72.881 1440.44 67.63C1428.77 57.06 1415.35 48.54 1401.33 41.34C1394.33 37.74 1387.11 34.47 1379.81 31.47C1372.51 28.47 1365.09 25.7 1357.64 23.04C1342.74 17.73 1327.64 12.95 1312.64 7.70999C1297.64 2.46999 1283 -3.30001 1268.8 -10.45Z" fill="#FFBFB6"/>
<path d="M313.13 727.09C310.65 730.423 308.163 733.73 305.67 737.01L298.52 747.14L291.63 757.44L285.07 768C267.998 796.295 254.32 826.503 244.32 858L240.75 869.87L237.55 881.87L234.66 893.93C233.84 897.977 232.993 902 232.12 906C232.787 901.913 233.453 897.827 234.12 893.74L236.58 881.56L239.51 869.48L242.83 857.48C252.288 825.626 266.056 795.215 283.75 767.09L290.56 756.69L297.7 746.51L305.23 736.63C307.857 733.45 310.49 730.27 313.13 727.09Z" fill="#FFBFB6"/>
<path d="M112.59 887.21C118.29 879.13 124.093 871.13 130 863.21L138.88 851.35L147.81 839.54C153.76 831.66 159.6 823.72 165.07 815.54C170.574 807.346 175.56 798.816 180 790C176.246 799.173 171.685 807.994 166.37 816.36C161.14 824.78 155.37 832.82 149.37 840.73C143.37 848.64 137.37 856.4 131.19 864.15C125.01 871.9 118.91 879.6 112.59 887.21Z" fill="#FFBFB6"/>
<path d="M60.22 211.78C55.0722 217.437 50.9383 223.939 48 231C45.1122 238.051 43.068 245.419 41.91 252.95C39.32 267.95 39.35 283.31 39.3 298.57C39.3 329.11 40.84 359.63 42.46 390.14C44.08 420.65 45.56 451.22 45.46 481.81C45.29 497.11 44.96 512.41 43.77 527.66C42.77 542.93 40.77 558.1 38.33 573.19C40.33 558.03 42.12 542.86 42.79 527.6C43.79 512.36 43.94 497.08 43.92 481.82C43.66 451.28 42.09 420.76 40.43 390.24L39.33 367.34L38.82 355.89L38.4 344.43L38.19 338.7L38.11 333L37.83 321.53L37.74 310C37.74 306.18 37.68 302.35 37.74 298.53C37.98 283.26 38.11 267.87 40.92 252.75C42.2362 245.184 44.4415 237.799 47.49 230.75C50.5733 223.721 54.8839 217.297 60.22 211.78Z" fill="#FFBFB6"/>
<path d="M1407.19 772.51C1408.42 777.657 1408.87 782.959 1408.54 788.24C1408.19 793.526 1407.35 798.768 1406.04 803.9C1404.78 809.04 1403.17 814.08 1401.5 819.07C1399.83 824.06 1398 829 1396.2 834C1392.49 843.86 1388.45 853.587 1384.09 863.18C1379.73 872.773 1375 882.173 1369.89 891.38C1374.29 881.82 1378.55 872.21 1382.66 862.55C1384.66 857.71 1386.66 852.87 1388.66 847.98C1390.66 843.09 1392.52 838.22 1394.35 833.3C1396.18 828.38 1398 823.46 1399.73 818.51C1401.46 813.56 1403.13 808.59 1404.56 803.51C1405.98 798.485 1406.99 793.351 1407.56 788.16C1408.16 782.951 1408.03 777.685 1407.19 772.51Z" fill="#FFBFB6"/>
<path d="M797 337.9C795.077 340.596 792.965 343.152 790.68 345.55C785.95 350.55 777.17 361.46 779.48 372.4C782.59 387.2 829.61 385.25 840.48 393.04C851.35 400.83 909.79 403.55 945.23 373.18C980.67 342.81 1003.42 337 1003.42 337C1003.42 337 1019.42 331.55 991.35 316.75C970 305.43 944.11 292.09 935 286.41C931.698 284.362 928.058 282.916 924.25 282.14C906.66 278.53 855.86 271.79 818.95 303.73C816.38 305.953 814.083 308.474 812.11 311.24L797 337.9Z" fill="#EC5F33"/>
<path d="M807.45 366.17C807.45 366.17 800.83 366.95 804.33 359.94C807.83 352.93 834.71 305.82 878.71 307.76C922.71 309.7 954.25 333.07 954.25 333.07C954.25 333.07 959.32 335.41 954.25 339.69C949.18 343.97 927.39 367.39 889.61 366.2C851.83 365.01 818.74 360.33 807.45 366.17Z" fill="#C5432C"/>
<path d="M815.06 351.57C815.06 351.57 841.14 306.93 883.27 310.44C925.4 313.95 954.5 333.51 954.5 333.51C954.5 333.51 959.01 336.51 954.5 339.03C949.99 341.55 911.36 362.6 896.32 363.61C881.28 364.62 863.71 357.61 852.18 359.09C840.65 360.57 824.09 358.59 821.08 358.09C818.07 357.59 813 357 815.06 351.57Z" fill="white"/>
<path d="M864.53 311.29C864.53 311.29 847 355.15 874.66 355.54C902.32 355.93 910.87 341.91 912.04 321.27V315C912.04 315 885.17 307.54 864.53 311.29Z" fill="#1D52DA"/>
<path d="M863.08 311.68C860.616 317.928 858.936 324.458 858.08 331.12C856.95 339.94 857.49 351.95 867.63 355.12C870.91 356.12 874.44 356.03 877.84 355.86C881.61 355.675 885.35 355.098 889 354.14C895.2 352.51 901 350.14 905.36 345.2C909.36 340.63 911.5 334.76 912.57 328.84C913.124 325.982 913.425 323.081 913.47 320.17V316.17C913.47 315.77 913.62 314.92 913.37 314.67C913.12 314.42 912.24 314.37 911.92 314.29C910.92 314.04 909.92 313.81 908.92 313.58C905.76 312.86 902.57 312.24 899.38 311.72C890.594 310.143 881.653 309.599 872.74 310.1C870.457 310.265 868.184 310.545 865.93 310.94C864.93 311.12 864.01 311.55 863.03 311.72C871.81 310.16 880.87 310.49 889.68 311.54C896.004 312.279 902.277 313.411 908.46 314.93C909.064 315.022 909.657 315.176 910.23 315.39C910.63 315.58 910.54 315.45 910.54 316.03C910.54 318.31 910.63 320.61 910.47 322.88C910.02 329.05 908.88 335.35 905.96 340.88C903.245 346.014 898.895 350.096 893.6 352.48C892.89 352.81 892.17 353.1 891.44 353.37C891.01 353.53 890.57 353.68 890.14 353.82L889.58 353.99C889.3 354.1 890.4 353.82 889.47 353.99C887.488 354.403 885.485 354.71 883.47 354.91C879.771 355.402 876.022 355.378 872.33 354.84C870.119 354.477 868.034 353.566 866.266 352.189C864.498 350.813 863.104 349.015 862.21 346.96C860.33 342.67 860.21 337.74 860.57 333.13C860.993 328.442 861.86 323.804 863.16 319.28C863.64 317.57 864.16 315.88 864.72 314.19C865.04 313.25 865.51 312.29 865.72 311.32C865.758 311.19 865.805 311.063 865.86 310.94C865.393 311.123 864.907 311.251 864.41 311.32C864.33 311.33 863.16 311.48 863.08 311.68Z" fill="#1D52DA"/>
<path d="M889.16 339.62C886.395 340.9 883.242 341.061 880.36 340.07C876.81 338.85 872.5 336.31 872.76 331.22C873.2 322.64 875.62 320.22 884.86 319.56C894.1 318.9 896.31 324.18 896.09 331.44C896 335.61 892.28 338.18 889.16 339.62Z" fill="black"/>
<path d="M880.1 313.21C880.1 313.21 866.47 313.6 867.64 317.5C868.34 319.83 875.64 322.03 881.77 321.81C887.3 321.62 887.17 313.32 881.63 313.21H880.1Z" fill="white"/>
<path d="M958 334.2C961.68 333.361 965.304 332.292 968.85 331C970.597 330.314 972.306 329.537 973.97 328.67C975.67 327.82 977.39 327.03 979.05 326.15C980.713 325.311 982.326 324.377 983.88 323.35C985.41 322.397 986.764 321.185 987.88 319.77C989.812 316.559 991.289 313.096 992.27 309.48C992.101 313.385 991.077 317.204 989.27 320.67C988.134 322.342 986.692 323.784 985.02 324.92C983.423 326.031 981.752 327.033 980.02 327.92C978.3 328.78 976.56 329.6 974.82 330.36C973.068 331.184 971.26 331.882 969.41 332.45C965.698 333.525 961.863 334.113 958 334.2Z" fill="#1D52DA"/>
<path d="M959 333.58C962.201 331.878 965.297 329.984 968.27 327.91C971.214 325.853 973.996 323.573 976.59 321.09C979.185 318.635 981.53 315.929 983.59 313.01C985.669 310.056 987.322 306.824 988.5 303.41C988.064 307.108 986.836 310.669 984.9 313.85C983.001 317.055 980.665 319.979 977.96 322.54C975.274 325.094 972.305 327.332 969.11 329.21C965.948 331.107 962.548 332.576 959 333.58Z" fill="#1D52DA"/>
<path d="M948.33 321C951.11 319.57 953.698 317.792 956.03 315.71C958.345 313.632 960.554 311.439 962.65 309.14C964.79 306.86 966.83 304.5 968.85 302.14C970.87 299.78 972.85 297.27 974.85 294.8C973.536 297.698 971.96 300.47 970.14 303.08C968.317 305.701 966.312 308.191 964.14 310.53C961.978 312.896 959.594 315.049 957.02 316.96C954.442 318.906 951.48 320.283 948.33 321Z" fill="#1D52DA"/>
<path d="M945.23 297.82L947.93 293.82C948.8 292.51 949.61 291.19 950.4 289.82C951.19 288.45 951.93 287.12 952.65 285.72L954.8 281.41C954.828 283.064 954.592 284.711 954.1 286.29C953.615 287.877 952.944 289.401 952.1 290.83C951.257 292.255 950.25 293.578 949.1 294.77C947.979 295.985 946.673 297.014 945.23 297.82Z" fill="#1D52DA"/>
<path d="M936 319C938.81 317.56 941.54 316.08 944.18 314.46C949.437 311.224 954.32 307.418 958.74 303.11C960.95 300.95 963.05 298.66 965.14 296.29C963.721 299.125 961.954 301.772 959.88 304.17C955.728 309.037 950.623 313.002 944.88 315.82C942.064 317.245 939.081 318.313 936 319Z" fill="#1D52DA"/>
<path d="M905.92 314C908.92 313 912.02 312.2 915.07 311.37C918.12 310.54 921.15 309.7 924.07 308.73C927.055 307.796 929.986 306.697 932.85 305.44C935.726 304.155 938.512 302.679 941.19 301.02C938.953 303.336 936.377 305.299 933.55 306.84C930.724 308.389 927.753 309.658 924.68 310.63C921.627 311.587 918.513 312.338 915.36 312.88C912.239 313.441 909.086 313.815 905.92 314Z" fill="#1D52DA"/>
<path d="M899.36 312.63C901.46 311.51 903.49 310.37 905.43 309.11C909.283 306.599 912.807 303.616 915.92 300.23C917.48 298.52 918.92 296.71 920.4 294.82C919.649 297.107 918.546 299.263 917.13 301.21C915.731 303.179 914.088 304.963 912.24 306.52C910.411 308.077 908.395 309.4 906.24 310.46C904.072 311.534 901.752 312.266 899.36 312.63Z" fill="#1D52DA"/>
<path d="M866.35 311.2C864.123 310.746 861.965 310.003 859.93 308.99C855.821 306.982 852.171 304.146 849.21 300.66C847.724 298.94 846.473 297.03 845.49 294.98C847.13 296.55 848.7 298.1 850.33 299.57C851.96 301.04 853.63 302.47 855.33 303.8C857.03 305.13 858.84 306.41 860.67 307.64C862.5 308.87 864.42 310 866.35 311.2Z" fill="#1D52DA"/>
<path d="M821.82 325.57C820.079 325.647 818.338 325.41 816.68 324.87C813.319 323.827 810.314 321.871 808 319.22C806.842 317.917 805.927 316.417 805.3 314.79C806.59 315.95 807.82 317.06 809.09 318.1C810.343 319.133 811.648 320.101 813 321C814.36 321.88 815.76 322.7 817.22 323.45C818.68 324.2 820.24 324.85 821.82 325.57Z" fill="#1D52DA"/>
<path d="M818.42 296.71C819.59 297.97 820.69 299.19 821.84 300.35C822.99 301.51 824.19 302.58 825.43 303.61C826.67 304.64 827.96 305.61 829.31 306.52C830.66 307.43 832.07 308.29 833.53 309.2C831.798 309.061 830.105 308.614 828.53 307.88C826.944 307.178 825.463 306.26 824.13 305.15C822.792 304.046 821.611 302.764 820.62 301.34C819.619 299.939 818.874 298.371 818.42 296.71Z" fill="#1D52DA"/>
<path d="M885.52 309.11C888.701 306.61 891.258 303.406 892.99 299.75C893.857 297.936 894.599 296.065 895.21 294.15C895.84 292.21 896.37 290.22 897 288.2C897.192 290.31 897.097 292.436 896.72 294.52C896.371 296.635 895.721 298.689 894.79 300.62C893.844 302.575 892.561 304.349 891 305.86C889.469 307.378 887.587 308.495 885.52 309.11Z" fill="#1D52DA"/>
<path d="M872.45 308.87C871.352 308.517 870.332 307.953 869.45 307.21C868.588 306.485 867.831 305.643 867.2 304.71C866.573 303.783 866.078 302.774 865.73 301.71C865.371 300.632 865.228 299.493 865.31 298.36C866.01 299.27 866.57 300.17 867.16 301.04L868.86 303.62L870.61 306.18C871.24 307 871.86 307.88 872.45 308.87Z" fill="#1D52DA"/>
<path d="M862.48 292.7C861.7 291.559 861.056 290.33 860.56 289.04C860.048 287.774 859.633 286.47 859.32 285.14C859.004 283.825 858.787 282.488 858.67 281.14C858.527 279.766 858.544 278.38 858.72 277.01C859.313 278.246 859.808 279.526 860.2 280.84C860.6 282.12 860.96 283.41 861.26 284.71C861.56 286.01 861.83 287.32 862.05 288.65C862.29 289.988 862.434 291.341 862.48 292.7Z" fill="#1D52DA"/>
<path d="M841 360.47C840.56 361.23 840.11 361.84 839.69 362.47L838.42 364.22L837.1 366C836.65 366.59 836.21 367.21 835.62 367.86C835.41 367.033 835.41 366.167 835.62 365.34C836.061 363.695 837.093 362.27 838.52 361.34C839.254 360.834 840.111 360.534 841 360.47Z" fill="#1D52DA"/>
<path d="M949.56 344.11C950.252 343.747 951.029 343.574 951.81 343.61C953.351 343.659 954.817 344.283 955.92 345.36C956.49 345.909 956.904 346.599 957.12 347.36C956.416 347.188 955.724 346.967 955.05 346.7C954.43 346.46 953.83 346.22 953.25 345.97C952.67 345.72 952.07 345.46 951.47 345.17C950.814 344.853 950.176 344.499 949.56 344.11Z" fill="#1D52DA"/>
<path d="M928.4 355.21C929.127 355.759 929.747 356.437 930.23 357.21C930.696 357.97 931.062 358.787 931.32 359.64C931.578 360.494 931.723 361.378 931.75 362.27C931.783 363.185 931.64 364.098 931.33 364.96C930.886 364.197 930.508 363.397 930.2 362.57C929.9 361.78 929.64 361 929.41 360.21C929.18 359.42 928.96 358.63 928.78 357.81C928.582 356.955 928.455 356.086 928.4 355.21Z" fill="#1D52DA"/>
<path d="M660.8 333.8C661.67 336.1 662.69 338.34 663.72 340.57C664.95 343.24 666.72 346.04 667.63 348.5C670.15 355.65 669.56 365.85 667.25 376.79C664.14 391.59 616.8 397.35 602.25 397.43C588.85 397.5 532.94 407.94 497.5 377.57C476.63 359.68 461.57 350.3 452.72 345.62C448.806 343.529 444.683 341.853 440.42 340.62C433.02 338.5 415.15 330.88 427.82 308.69C440.36 286.69 460.54 283.27 469.69 277.58C472.99 275.53 540.3 252.58 544.11 251.81C561.69 248.2 608.68 247.02 637.5 286.42C638.96 288.42 645.5 300.27 649.73 307.81C652.315 312.367 654.542 317.118 656.39 322.02L660.8 333.8Z" fill="#1D52DA" stroke="#1D52DA" stroke-miterlimit="10"/>
<path d="M635.32 370.56C635.32 370.56 641.94 371.34 638.44 364.33C634.94 357.32 608.06 310.2 564.06 312.15C520.06 314.1 488.52 337.46 488.52 337.46C488.52 337.46 483.46 339.8 488.52 344.08C493.58 348.36 520.58 373.41 558.35 372.21C596.12 371.01 621 368.54 635.32 370.56Z" fill="#223A8B"/>
<path d="M627.71 356C627.71 356 601.63 311.36 559.5 314.87C517.37 318.38 490.94 336.29 490.94 336.29C490.94 336.29 486.88 340.5 491.39 343C495.9 345.5 531.39 367 546.46 368C561.53 369 580.04 367.84 591.78 366.45C603.34 365.09 618.68 362.99 621.69 362.45C624.7 361.91 629.74 361.43 627.71 356Z" fill="white"/>
<path d="M578.24 315.68C578.24 315.68 590 354 568.12 359.93C541.44 367.21 530.73 351.72 530.73 325.66V319.43C530.73 319.43 557.6 311.93 578.24 315.68Z" fill="#EC5F33"/>
<path d="M551.51 342.17C554.28 343.45 559.51 341.85 562.42 340.86C565.97 339.64 570.27 337.1 570.01 332.01C569.57 323.43 567.15 321.01 557.91 320.35C548.67 319.69 543.91 325.21 544.08 332.47C544.21 336.64 548.4 340.74 551.51 342.17Z" fill="black"/>
<path d="M540.69 319.59C540.69 319.59 554.32 319.98 553.16 323.87C552.45 326.21 545.16 328.41 539.03 328.19C533.49 328 533.62 319.69 539.16 319.58C539.64 319.57 540.15 319.58 540.69 319.59Z" fill="white"/>
<path d="M484.8 338.59C481.214 338.522 477.651 338.012 474.19 337.07C470.666 336.128 467.336 334.575 464.35 332.48C462.862 331.4 461.488 330.17 460.25 328.81C459.021 327.436 457.979 325.906 457.15 324.26C455.594 320.991 454.7 317.446 454.52 313.83C455.46 317.202 456.803 320.449 458.52 323.5C460.333 326.398 462.714 328.898 465.52 330.85C468.339 332.84 471.418 334.435 474.67 335.59C477.94 336.8 481.35 337.68 484.8 338.59Z" fill="#C5432C"/>
<path d="M483.76 338C480.401 337.092 477.217 335.628 474.34 333.67C468.495 329.742 463.872 324.25 461 317.82C459.557 314.658 458.648 311.279 458.31 307.82C459.392 311.043 460.761 314.162 462.4 317.14C464.022 320.077 465.935 322.845 468.11 325.4C470.269 327.965 472.678 330.31 475.3 332.4C477.949 334.513 480.78 336.387 483.76 338Z" fill="#C5432C"/>
<path d="M494.44 325.39C491.3 324.655 488.349 323.269 485.78 321.32C483.211 319.404 480.827 317.252 478.66 314.89C476.485 312.553 474.479 310.064 472.66 307.44C470.831 304.83 469.251 302.055 467.94 299.15C469.94 301.63 471.94 304.09 473.94 306.5C475.94 308.91 478 311.25 480.15 313.5C482.241 315.804 484.45 317.997 486.77 320.07C489.091 322.161 491.668 323.949 494.44 325.39Z" fill="#C5432C"/>
<path d="M497.54 302.21C496.088 301.425 494.771 300.412 493.64 299.21C491.315 296.827 489.6 293.918 488.64 290.73C488.14 289.153 487.9 287.504 487.93 285.85L490.09 290.15C490.8 291.55 491.55 292.91 492.33 294.26C493.11 295.61 493.94 296.92 494.81 298.26L497.54 302.21Z" fill="#C5432C"/>
<path d="M506.82 323.37C503.723 322.685 500.723 321.617 497.89 320.19C492.165 317.366 487.077 313.402 482.94 308.54C480.874 306.136 479.107 303.49 477.68 300.66C479.77 303.03 481.87 305.32 484.08 307.48C486.297 309.634 488.634 311.661 491.08 313.55C493.51 315.45 496.044 317.213 498.67 318.83C501.28 320.45 504 321.93 506.82 323.37Z" fill="#C5432C"/>
<path d="M536.86 318.34C533.674 318.157 530.501 317.783 527.36 317.22C524.194 316.69 521.067 315.948 518 315C514.93 314.028 511.963 312.759 509.14 311.21C506.312 309.665 503.733 307.703 501.49 305.39C504.17 307.051 506.96 308.527 509.84 309.81C512.7 311.067 515.628 312.166 518.61 313.1C521.61 314.1 524.61 314.89 527.66 315.74C530.71 316.59 533.82 317.35 536.86 318.34Z" fill="#C5432C"/>
<path d="M543.42 317C541.042 316.632 538.735 315.9 536.58 314.83C532.217 312.71 528.456 309.53 525.64 305.58C524.228 303.631 523.125 301.475 522.37 299.19C523.83 301.08 525.29 302.89 526.85 304.6C529.964 307.989 533.491 310.972 537.35 313.48C539.28 314.76 541.31 315.9 543.42 317Z" fill="#C5432C"/>
<path d="M576.42 315.59C578.35 314.39 580.24 313.24 582.08 312.03C583.92 310.82 585.7 309.55 587.41 308.19C589.12 306.83 590.8 305.43 592.41 303.96C594.02 302.49 595.62 300.96 597.26 299.37C596.268 301.417 595.014 303.326 593.53 305.05C590.576 308.539 586.929 311.375 582.82 313.38C580.791 314.391 578.64 315.134 576.42 315.59Z" fill="#C5432C"/>
<path d="M621 330C622.58 329.28 624.09 328.61 625.56 327.86C627.03 327.11 628.42 326.29 629.78 325.41C631.147 324.521 632.466 323.56 633.73 322.53C635.01 321.53 636.23 320.38 637.52 319.22C636.893 320.847 635.978 322.347 634.82 323.65C632.511 326.307 629.504 328.264 626.14 329.3C624.483 329.841 622.742 330.078 621 330Z" fill="#C5432C"/>
<path d="M624.35 301.1C623.887 302.763 623.132 304.331 622.12 305.73C621.129 307.154 619.949 308.436 618.61 309.54C617.277 310.65 615.796 311.568 614.21 312.27C612.635 313.004 610.942 313.451 609.21 313.59C610.67 312.68 612.08 311.82 613.43 310.91C614.78 310 616.06 309.02 617.31 308C618.56 306.98 619.75 305.89 620.9 304.74C622.05 303.59 623.18 302.36 624.35 301.1Z" fill="#C5432C"/>
<path d="M557.25 313.5C555.187 312.883 553.308 311.767 551.78 310.25C550.216 308.74 548.935 306.962 548 305C547.063 303.071 546.409 301.016 546.06 298.9C545.686 296.815 545.595 294.689 545.79 292.58C546.41 294.58 546.95 296.58 547.57 298.52C548.18 300.439 548.921 302.313 549.79 304.13C551.518 307.788 554.072 310.996 557.25 313.5Z" fill="#C5432C"/>
<path d="M570.33 313.26C570.91 312.26 571.53 311.41 572.12 310.54L573.86 307.98L575.57 305.4C576.15 304.53 576.71 303.63 577.41 302.71C577.493 303.847 577.35 304.989 576.99 306.07C576.642 307.134 576.148 308.143 575.52 309.07C574.889 310.003 574.132 310.845 573.27 311.57C572.409 312.318 571.41 312.892 570.33 313.26Z" fill="#C5432C"/>
<path d="M580.29 297.08C580.335 295.711 580.479 294.348 580.72 293C580.94 291.68 581.2 290.37 581.51 289.07C581.82 287.77 582.18 286.48 582.58 285.2C582.968 283.887 583.46 282.606 584.05 281.37C584.23 282.74 584.25 284.126 584.11 285.5C583.993 286.848 583.776 288.185 583.46 289.5C583.142 290.828 582.728 292.132 582.22 293.4C581.725 294.699 581.077 295.934 580.29 297.08Z" fill="#C5432C"/>
<path d="M601.83 364.86C602.681 364.935 603.5 365.224 604.21 365.7C604.913 366.162 605.527 366.748 606.02 367.43C606.513 368.112 606.879 368.878 607.1 369.69C607.315 370.516 607.315 371.384 607.1 372.21C606.51 371.56 606.1 370.94 605.62 370.35L604.35 368.6L603.09 366.85C602.71 366.23 602.27 365.62 601.83 364.86Z" fill="#C5432C"/>
<path d="M493.21 348.5C492.595 348.872 491.957 349.206 491.3 349.5C490.7 349.78 490.12 350.05 489.53 350.3C488.94 350.55 488.35 350.79 487.72 351.03C487.047 351.291 486.359 351.512 485.66 351.69C485.872 350.93 486.283 350.239 486.85 349.69C487.396 349.156 488.037 348.729 488.74 348.43C489.459 348.144 490.226 347.998 491 348C491.768 347.971 492.529 348.144 493.21 348.5Z" fill="#C5432C"/>
<path d="M514.37 359.6C514.321 360.483 514.194 361.36 513.99 362.22C513.81 363.04 513.6 363.84 513.37 364.62C513.14 365.4 512.87 366.19 512.57 366.98C512.264 367.808 511.886 368.608 511.44 369.37C511.134 368.508 510.995 367.595 511.03 366.68C511.054 365.789 511.195 364.904 511.45 364.05C511.707 363.195 512.077 362.377 512.55 361.62C513.024 360.838 513.641 360.153 514.37 359.6Z" fill="#C5432C"/>
<path d="M807.31 251.35C815.77 247.14 824.37 243.23 833.06 239.5C841.75 235.77 850.52 232.24 859.41 229.02C868.3 225.8 877.31 222.89 886.48 220.5C895.65 218.11 904.99 216.2 914.55 215.91C919.323 215.827 924.095 216.161 928.81 216.91C933.52 217.59 938.17 218.56 942.81 219.7C952.011 221.993 961.087 224.763 970 228C978.91 231.2 987.7 234.72 996.39 238.47C1005.08 242.22 1013.66 246.18 1022.12 250.47L1020.93 251.97C1015.58 245.9 1009.93 240.102 1004 234.6C998.08 229.073 991.913 223.827 985.5 218.86C979.086 213.925 972.377 209.387 965.41 205.27C958.471 201.121 951.159 197.629 943.57 194.84C935.992 192.033 928.058 190.3 920 189.69L917 189.62C916.001 189.565 914.999 189.565 914 189.62C912 189.74 910 189.8 908 190.06C904 190.49 899.92 190.89 895.9 191.43C887.836 192.387 879.826 193.752 871.9 195.52C867.947 196.427 864.045 197.542 860.21 198.86C858.293 199.525 856.414 200.292 854.58 201.16C853.669 201.608 852.781 202.102 851.92 202.64C851.047 203.157 850.26 203.808 849.59 204.57C850.241 203.781 851.018 203.105 851.89 202.57C852.736 202.004 853.615 201.486 854.52 201.02C856.302 200.116 858.131 199.308 860 198.6C863.828 197.212 867.727 196.027 871.68 195.05C879.599 193.142 887.609 191.637 895.68 190.54C899.68 189.91 903.75 189.47 907.79 189C909.79 188.72 911.86 188.64 913.9 188.5C914.925 188.428 915.953 188.412 916.98 188.45H920.05C928.244 188.991 936.322 190.674 944.05 193.45C951.763 196.181 959.197 199.644 966.25 203.79C973.296 207.917 980.082 212.472 986.57 217.43C993.05 222.43 999.28 227.67 1005.26 233.21C1011.27 238.747 1016.99 244.584 1022.4 250.7L1025.63 254.38L1021.21 252.2C1004.35 243.76 987.037 236.259 969.35 229.73C960.501 226.474 951.489 223.68 942.35 221.36C937.79 220.21 933.19 219.24 928.55 218.55C923.918 217.842 919.236 217.508 914.55 217.55C905.2 217.74 895.9 219.55 886.77 221.81C877.64 224.07 868.62 226.91 859.71 230.01C841.92 236.18 824.45 243.42 807.31 251.35Z" fill="white"/>
<path d="M793.28 242.06C793.52 239.86 793.86 237.73 794.21 235.59L795.21 229.22L796.27 222.85C796.62 220.72 796.98 218.59 797.46 216.43C797.79 218.607 797.91 220.81 797.82 223.01C797.752 225.202 797.538 227.387 797.18 229.55C796.825 231.715 796.324 233.853 795.68 235.95C795.072 238.057 794.268 240.102 793.28 242.06Z" fill="white"/>
<path d="M797.23 244.77C797.84 242.41 798.32 240.04 798.95 237.71C799.58 235.38 800.22 233.06 800.95 230.71C801.68 228.36 802.38 226.11 803.18 223.84C803.98 221.57 804.83 219.31 805.61 217C805.568 219.444 805.256 221.875 804.68 224.25C804.18 226.63 803.54 228.97 802.86 231.25C802.18 233.53 801.37 235.87 800.47 238.12C799.621 240.442 798.535 242.67 797.23 244.77Z" fill="white"/>
<path d="M809.67 234.24C810.58 232.6 811.24 230.92 811.98 229.24L814.11 224.24L816.24 219.24C816.973 217.563 817.604 215.843 818.13 214.09C818.378 215.974 818.242 217.89 817.73 219.72C817.309 221.527 816.73 223.294 816 225C815.268 226.732 814.402 228.403 813.41 230C812.442 231.636 811.173 233.075 809.67 234.24Z" fill="white"/>
<path d="M818.37 232.21C818.8 230.5 819.23 228.81 819.78 227.16C820.33 225.51 820.9 223.87 821.55 222.26C822.2 220.65 822.89 219.07 823.63 217.5C824.37 215.93 825.21 214.41 826.01 212.83C825.944 214.604 825.634 216.36 825.09 218.05C824.614 219.729 824.05 221.381 823.4 223C822.75 224.62 822.03 226.21 821.22 227.76C820.438 229.344 819.482 230.837 818.37 232.21Z" fill="white"/>
<path d="M822.31 234.43C822.71 233.43 822.98 232.43 823.31 231.37C823.64 230.31 823.93 229.32 824.31 228.31C824.95 226.31 825.67 224.26 826.4 222.25C827.13 220.24 827.92 218.25 828.77 216.3C829.62 214.35 830.51 212.39 831.44 210.43C831.262 212.592 830.863 214.73 830.25 216.81C829.69 218.89 829.01 220.93 828.25 222.95C827.49 224.97 826.68 226.95 825.73 228.89C825.27 229.89 824.73 230.82 824.22 231.76C823.696 232.726 823.055 233.622 822.31 234.43Z" fill="white"/>
<path d="M762.2 284.84C758.59 292.84 754.55 300.61 751.85 308.9C750.449 313.008 749.444 317.241 748.85 321.54C748.7 322.61 748.56 323.69 748.48 324.77C748.4 325.85 748.3 326.93 748.22 328.03C748.06 330.223 747.873 332.407 747.66 334.58C746.84 343.32 745.6 351.98 744.78 360.67C743.96 369.36 743.49 378.08 743.27 386.8C742.878 404.269 743.412 421.747 744.87 439.16C745.537 447.88 746.357 456.587 747.33 465.28C748.23 473.98 749.33 482.66 750.33 491.36C748.86 482.73 747.59 474.07 746.33 465.36C745.07 456.65 744.17 447.97 743.33 439.25C742.49 430.53 741.89 421.78 741.54 413.02C741.19 404.26 741.03 395.49 741.25 386.71C741.47 377.93 742.03 369.18 742.93 360.45C743.83 351.72 745.04 343.05 746.06 334.38C746.313 332.207 746.543 330.037 746.75 327.87C746.84 326.78 746.95 325.69 747.08 324.59C747.21 323.49 747.35 322.4 747.52 321.3C748.236 316.944 749.361 312.665 750.88 308.52C752.42 304.408 754.19 300.385 756.18 296.47C758.12 292.58 760.17 288.72 762.2 284.84Z" fill="white"/>
<path d="M602.16 682.5C616.33 674.22 682.56 636.62 697.47 648.73C698.932 649.959 700.753 650.681 702.66 650.79C703.725 650.887 704.798 650.73 705.79 650.33C708.02 649.21 717.45 643.76 738.03 651.73C756.7 658.97 787.63 671.82 796.95 673.66C797.209 673.711 797.454 673.82 797.665 673.978C797.877 674.136 798.05 674.34 798.172 674.574C798.294 674.809 798.362 675.068 798.37 675.332C798.378 675.596 798.327 675.858 798.22 676.1C794.35 684.76 775.87 715.63 708.39 716.9C631.53 718.34 643.7 706.38 602.25 685.45C601.98 685.314 601.753 685.107 601.59 684.852C601.428 684.598 601.338 684.304 601.328 684.002C601.319 683.7 601.392 683.401 601.538 683.137C601.684 682.872 601.899 682.652 602.16 682.5Z" fill="#F4B43F"/>
<path d="M599.86 683.09C606.029 684.003 612.274 684.285 618.5 683.93C624.71 683.63 630.9 682.93 637.09 682.09C643.28 681.25 649.49 680.42 655.75 679.88C662.005 679.245 668.306 679.195 674.57 679.73C668.328 679.975 662.103 680.542 655.92 681.43C649.74 682.28 643.56 683.25 637.34 684.07C631.11 684.944 624.831 685.418 618.54 685.49C612.231 685.582 605.941 684.774 599.86 683.09Z" fill="#C5432C"/>
<path d="M679.6 679.67C683.384 679.865 687.176 679.865 690.96 679.67C694.74 679.49 698.51 679.26 702.28 678.92C706.05 678.58 709.8 678.2 713.55 677.74C717.3 677.28 721.04 676.74 724.76 675.85C721.24 677.42 717.548 678.571 713.76 679.28C710.008 680.043 706.215 680.587 702.4 680.91C698.582 681.233 694.749 681.337 690.92 681.22C687.098 681.162 683.297 680.642 679.6 679.67Z" fill="#C5432C"/>
<path d="M731 674.28C736.83 671.865 743.044 670.51 749.35 670.28C755.633 670.037 761.925 670.281 768.17 671.01C774.39 671.67 780.57 672.5 786.76 673.1C792.95 673.76 799.182 673.941 805.4 673.64C799.208 674.713 792.911 675.048 786.64 674.64C780.37 674.35 774.16 673.64 767.96 672.98C761.799 672.252 755.603 671.861 749.4 671.81C743.183 671.788 736.992 672.619 731 674.28Z" fill="#C5432C"/>
</g>
<path d="M346.02 568H388.77V565.3H352.86V535.24H385.08V532.54H352.86V504.28H387.96V501.58H346.02V568ZM397.218 568H403.968V501.58H397.218V568ZM442.975 568H450.805L433.255 542.62L449.185 525.34H445.315L421.105 551.89V501.58H414.445V568H421.105V555.76L428.665 547.39L442.975 568ZM475.842 568.45C481.062 568.45 484.932 567.91 488.622 566.92V564.76C484.932 565.48 481.422 565.75 477.642 565.75C465.132 565.75 460.632 562.24 460.452 547.93H491.142C491.322 547.3 491.322 546.58 491.322 546.13C491.322 531.73 483.672 524.8 472.512 524.8C461.712 524.8 453.522 532.45 453.522 546.67C453.522 563.59 462.882 568.45 475.842 568.45ZM472.602 527.41C481.782 527.41 484.212 533.26 484.482 545.5H460.452C460.722 533.44 463.602 527.41 472.602 527.41ZM521.977 568H542.497C563.827 568 573.547 556.21 573.547 534.88C573.547 513.46 563.827 501.58 542.497 501.58H521.977V568ZM528.727 565.3V504.28H541.957C559.597 504.28 566.167 513.19 566.167 534.7C566.167 556.12 559.597 565.3 541.957 565.3H528.727ZM604.075 568.45C609.295 568.45 613.165 567.91 616.855 566.92V564.76C613.165 565.48 609.655 565.75 605.875 565.75C593.365 565.75 588.865 562.24 588.685 547.93H619.375C619.555 547.3 619.555 546.58 619.555 546.13C619.555 531.73 611.905 524.8 600.745 524.8C589.945 524.8 581.755 532.45 581.755 546.67C581.755 563.59 591.115 568.45 604.075 568.45ZM600.835 527.41C610.015 527.41 612.445 533.26 612.715 545.5H588.685C588.955 533.44 591.835 527.41 600.835 527.41Z" fill="white"/>
<path fill-rule="evenodd" clip-rule="evenodd" d="M727.729 495.299C741.518 503.972 757.559 516.761 757.122 533.081C756.666 550.099 733.022 556.758 725.671 572.148C719.186 585.726 731.324 609.203 717.706 615.607C702.783 622.624 688.739 602.223 673.222 596.811C664.89 593.906 656.446 593.371 647.876 591.256C635.778 588.269 621.219 590.686 612.488 581.818C603.486 572.674 599.241 557.763 602.686 545.353C606.087 533.104 625.244 531.432 629.775 519.549C637.544 499.17 617.822 466.692 636.79 455.903C654.069 446.074 667.179 480.067 685.349 487.938C698.764 493.75 715.358 487.518 727.729 495.299Z" fill="#EC5F33"/>
<path d="M724.27 568.63C737.68 568.63 748.3 564.94 748.3 548.83V501.58H726.16V553.6C726.16 559.81 723.82 561.43 718.51 561.43C714.55 561.43 710.77 561.07 706.99 560.44V566.83C711.13 567.73 716.26 568.63 724.27 568.63ZM781.2 568.9C799.2 568.9 807.48 559.81 807.48 545.5C807.48 531.28 798.93 522.1 781.2 522.1C763.47 522.1 755.1 531.28 755.1 545.5C755.1 560.17 763.2 568.9 781.2 568.9ZM781.29 562.6C776.97 562.6 776.34 559 776.34 545.77C776.34 532.36 776.97 528.76 781.29 528.76C785.61 528.76 786.24 532.36 786.24 545.77C786.24 559 785.61 562.6 781.29 562.6ZM813.577 568H834.907V531.73C836.167 531.46 837.337 531.28 838.597 531.28C843.277 531.28 843.997 533.8 843.997 537.67V568H865.327V537.94C865.327 526.33 857.857 522.1 848.407 522.1C842.287 522.1 836.617 524.35 834.007 527.95V523H813.577V568ZM898.921 568.45C903.511 568.45 908.281 568 912.781 567.19V561.16C909.991 561.61 907.291 561.88 904.501 561.88C897.301 561.88 892.531 559.81 892.531 545.5C892.531 531.19 897.301 529.12 904.501 529.12C907.291 529.12 909.991 529.39 912.781 529.84V523.81C908.281 523 903.511 522.55 898.921 522.55C882.091 522.55 871.291 529.03 871.291 545.5C871.291 561.97 882.091 568.45 898.921 568.45ZM948.76 568H971.71L956.86 535.87L969.46 523H960.01L939.22 544.33V501.58H918.43V568H939.22V553.15L941.02 551.35L948.76 568ZM1002.08 568.45C1007.48 568.45 1013.24 568.09 1018.55 567.1V561.07C1014.41 561.61 1010 561.88 1005.86 561.88C995.33 561.88 992.54 560.35 992.18 549.46H1019.99C1020.26 547.57 1020.35 546.04 1020.35 544.24C1020.35 528.94 1012.25 522.1 996.59 522.1C983 522.1 971.75 528.76 971.75 545.5C971.75 564.22 983.81 568.45 1002.08 568.45ZM996.86 528.76C1000.82 528.76 1001.09 531.01 1001.18 543.16H992.18C992.27 530.74 993.08 528.76 996.86 528.76ZM1026.18 568H1047.51V531.01C1050.66 530.2 1053.81 529.84 1056.87 529.84C1058.67 529.84 1060.47 529.84 1062.27 530.02V523.72C1060.56 523.09 1057.86 522.73 1056.24 522.73C1051.29 522.73 1047.69 524.08 1045.8 526.96V523H1026.18V568ZM1092.96 568.45C1098.36 568.45 1104.12 568.09 1109.43 567.1V561.07C1105.29 561.61 1100.88 561.88 1096.74 561.88C1086.21 561.88 1083.42 560.35 1083.06 549.46H1110.87C1111.14 547.57 1111.23 546.04 1111.23 544.24C1111.23 528.94 1103.13 522.1 1087.47 522.1C1073.88 522.1 1062.63 528.76 1062.63 545.5C1062.63 564.22 1074.69 568.45 1092.96 568.45ZM1087.74 528.76C1091.7 528.76 1091.97 531.01 1092.06 543.16H1083.06C1083.15 530.74 1083.96 528.76 1087.74 528.76Z" fill="white"/>
<path d="M628.338 604.18C629.346 604.18 630.174 603.91 630.804 603.442V604H634.89V590.716H630.66V595.486C630.066 595.072 629.274 594.82 628.338 594.82C625.8 594.82 624.486 596.71 624.486 599.5C624.486 602.2 625.692 604.18 628.338 604.18ZM630.03 602.632C629.166 602.632 628.734 602.02 628.734 599.536C628.734 597.142 629.13 596.44 630.048 596.44C630.264 596.44 630.498 596.476 630.66 596.53V602.542C630.498 602.596 630.246 602.632 630.03 602.632ZM642.189 604.09C643.269 604.09 644.421 604.018 645.483 603.82V602.614C644.655 602.722 643.773 602.776 642.945 602.776C640.839 602.776 640.281 602.47 640.209 600.292H645.771C645.825 599.914 645.843 599.608 645.843 599.248C645.843 596.188 644.223 594.82 641.091 594.82C638.373 594.82 636.123 596.152 636.123 599.5C636.123 603.244 638.535 604.09 642.189 604.09ZM641.145 596.152C641.937 596.152 641.991 596.602 642.009 599.032H640.209C640.227 596.548 640.389 596.152 641.145 596.152ZM649.306 604H653.194L656.596 595H654.976L652.654 601.156L650.332 595H645.886L649.306 604ZM662.755 604.09C663.835 604.09 664.987 604.018 666.049 603.82V602.614C665.221 602.722 664.339 602.776 663.511 602.776C661.405 602.776 660.847 602.47 660.775 600.292H666.337C666.391 599.914 666.409 599.608 666.409 599.248C666.409 596.188 664.789 594.82 661.657 594.82C658.939 594.82 656.689 596.152 656.689 599.5C656.689 603.244 659.101 604.09 662.755 604.09ZM661.711 596.152C662.503 596.152 662.557 596.602 662.575 599.032H660.775C660.793 596.548 660.955 596.152 661.711 596.152ZM667.576 604H671.842V590.716H667.576V604ZM678.292 604.18C681.892 604.18 683.548 602.362 683.548 599.5C683.548 596.656 681.838 594.82 678.292 594.82C674.746 594.82 673.072 596.656 673.072 599.5C673.072 602.434 674.692 604.18 678.292 604.18ZM678.31 602.92C677.446 602.92 677.32 602.2 677.32 599.554C677.32 596.872 677.446 596.152 678.31 596.152C679.174 596.152 679.3 596.872 679.3 599.554C679.3 602.2 679.174 602.92 678.31 602.92ZM691.319 604.18C693.965 604.18 695.171 602.2 695.171 599.5C695.171 596.71 693.857 594.82 691.319 594.82C690.293 594.82 689.465 595.09 688.853 595.594V595H684.767V607.6H688.997V603.55C689.591 603.964 690.383 604.18 691.319 604.18ZM689.627 602.632C689.411 602.632 689.159 602.596 688.997 602.542V596.53C689.159 596.476 689.393 596.44 689.609 596.44C690.527 596.44 690.923 597.142 690.923 599.536C690.923 602.02 690.491 602.632 689.627 602.632ZM702.218 604.09C703.298 604.09 704.45 604.018 705.512 603.82V602.614C704.684 602.722 703.802 602.776 702.974 602.776C700.868 602.776 700.31 602.47 700.238 600.292H705.8C705.854 599.914 705.872 599.608 705.872 599.248C705.872 596.188 704.252 594.82 701.12 594.82C698.402 594.82 696.152 596.152 696.152 599.5C696.152 603.244 698.564 604.09 702.218 604.09ZM701.174 596.152C701.966 596.152 702.02 596.602 702.038 599.032H700.238C700.256 596.548 700.418 596.152 701.174 596.152ZM707.039 604H711.305V596.602C711.935 596.44 712.565 596.368 713.177 596.368C713.537 596.368 713.897 596.368 714.257 596.404V595.144C713.915 595.018 713.375 594.946 713.051 594.946C712.061 594.946 711.341 595.216 710.963 595.792V595H707.039V604ZM723.042 604.198C724.518 604.198 725.778 603.91 726.912 602.956L727.74 604H732.852L729.432 599.716L732.096 595.882H730.44L728.55 598.6L726.174 595.612C725.418 594.676 724.968 594.064 724.968 593.272C724.968 592.48 725.418 592.03 726.75 592.03C727.524 592.03 728.424 592.066 729.414 592.228V590.95C728.262 590.734 726.984 590.59 725.814 590.59C722.484 590.59 720.522 591.832 720.612 593.902C720.63 594.586 720.918 595.432 721.566 596.242L722.016 596.818C719.748 597.646 718.758 599.212 718.758 600.724C718.758 603.136 720.666 604.198 723.042 604.198ZM724.32 602.47C722.808 602.47 721.944 601.246 721.944 599.338C721.944 598.6 722.07 598.042 722.592 597.556L726.03 601.876C725.49 602.308 724.986 602.47 724.32 602.47ZM741.26 604.18C742.268 604.18 743.096 603.91 743.726 603.442V604H747.812V590.716H743.582V595.486C742.988 595.072 742.196 594.82 741.26 594.82C738.722 594.82 737.408 596.71 737.408 599.5C737.408 602.2 738.614 604.18 741.26 604.18ZM742.952 602.632C742.088 602.632 741.656 602.02 741.656 599.536C741.656 597.142 742.052 596.44 742.97 596.44C743.186 596.44 743.42 596.476 743.582 596.53V602.542C743.42 602.596 743.168 602.632 742.952 602.632ZM755.111 604.09C756.191 604.09 757.343 604.018 758.405 603.82V602.614C757.577 602.722 756.695 602.776 755.867 602.776C753.761 602.776 753.203 602.47 753.131 600.292H758.693C758.747 599.914 758.765 599.608 758.765 599.248C758.765 596.188 757.145 594.82 754.013 594.82C751.295 594.82 749.045 596.152 749.045 599.5C749.045 603.244 751.457 604.09 755.111 604.09ZM754.067 596.152C754.859 596.152 754.913 596.602 754.931 599.032H753.131C753.149 596.548 753.311 596.152 754.067 596.152ZM762.703 604.09C765.799 604.09 768.103 603.388 768.103 600.886C768.103 599.824 767.815 599.194 767.185 598.708C766.663 598.33 765.925 598.114 765.205 597.934C764.701 597.808 764.215 597.682 763.837 597.52C763.549 597.394 763.387 597.25 763.387 596.872C763.387 596.476 763.657 596.224 764.935 596.224C765.727 596.224 766.555 596.278 767.347 596.386V595.18C766.483 595.018 765.331 594.91 764.287 594.91C761.965 594.91 759.679 595.54 759.679 598.132C759.679 598.888 759.895 599.428 760.237 599.896C760.705 600.58 761.695 600.832 762.613 601.066C763.135 601.192 763.639 601.3 764.017 601.48C764.251 601.588 764.395 601.75 764.395 602.074C764.395 602.542 764.215 602.776 762.541 602.776C761.173 602.776 760.345 602.722 759.589 602.614V603.82C760.579 603.964 761.695 604.09 762.703 604.09ZM769.318 604H773.584V595H769.318V604ZM769.318 593.974H773.584V590.896H769.318V593.974ZM778.864 606.376C778.036 606.376 777.136 606.358 776.308 606.25V607.456C777.208 607.636 778.162 607.726 779.08 607.726C782.698 607.726 785.092 606.826 785.092 603.928V595H781.168V595.666C780.538 595.126 779.692 594.82 778.63 594.82C776.092 594.82 774.814 596.62 774.814 599.392C774.814 602.092 775.966 603.982 778.63 603.982C779.584 603.982 780.376 603.748 780.988 603.316V604.504C780.988 606.034 780.358 606.376 778.864 606.376ZM780.322 602.434C779.458 602.434 779.062 601.822 779.062 599.338C779.062 596.944 779.422 596.44 780.34 596.44C780.556 596.44 780.826 596.476 780.988 596.53V602.344C780.826 602.398 780.538 602.434 780.322 602.434ZM786.562 604H790.828V596.746C791.08 596.692 791.314 596.656 791.566 596.656C792.502 596.656 792.646 597.16 792.646 597.934V604H796.912V597.988C796.912 595.666 795.418 594.82 793.528 594.82C792.304 594.82 791.17 595.27 790.648 595.99V595H786.562V604ZM804.171 604.09C805.251 604.09 806.403 604.018 807.465 603.82V602.614C806.637 602.722 805.755 602.776 804.927 602.776C802.821 602.776 802.263 602.47 802.191 600.292H807.753C807.807 599.914 807.825 599.608 807.825 599.248C807.825 596.188 806.205 594.82 803.073 594.82C800.355 594.82 798.105 596.152 798.105 599.5C798.105 603.244 800.517 604.09 804.171 604.09ZM803.127 596.152C803.919 596.152 803.973 596.602 803.991 599.032H802.191C802.209 596.548 802.371 596.152 803.127 596.152ZM808.992 604H813.258V596.602C813.888 596.44 814.518 596.368 815.13 596.368C815.49 596.368 815.85 596.368 816.21 596.404V595.144C815.868 595.018 815.328 594.946 815.004 594.946C814.014 594.946 813.294 595.216 812.916 595.792V595H808.992V604Z" fill="white"/>
<defs>
<clipPath id="clip0">
<rect width="1440" height="900" fill="white"/>
</clipPath>
</defs>
</svg>
