<svg xmlns="http://www.w3.org/2000/svg" viewBox="0 0 1440 900"><defs><style>.cls-1{fill:#fff;}.cls-2{fill:#ffbfb6;}.cls-3{fill:#ec5f33;}.cls-4{fill:#c5432c;}.cls-5,.cls-6{fill:#1d52da;}.cls-6{stroke:#1d52da;stroke-miterlimit:10;}.cls-7{fill:#223a8b;}.cls-8{fill:#f4b43f;}</style></defs><g id="gezichtsuitlijning"><path class="cls-1" d="M1046.15,404.51c-2.69,9.93-5.07,19.94-7.51,29.93s-5,20-8.16,29.8a154,154,0,0,1-12.25,28.4c-2.57,4.51-5.5,8.73-8.08,13.16s-5.15,8.88-7.51,13.43a219.64,219.64,0,0,0-12.25,28.17,211.87,211.87,0,0,0-8,29.64c-4,20.14-5.29,40.69-6.23,61.21-.09,2.55-.25,5.19-.56,7.77s-.74,5.15-1.28,7.69a130.57,130.57,0,0,1-4.15,15,202.61,202.61,0,0,1-12.34,28.4,238,238,0,0,1-16.07,26.45c-3,4.23-6.06,8.37-9.36,12.34q-2.48,3-5.09,5.84c-1.72,1.92-3.5,3.79-5.27,5.66a270.81,270.81,0,0,1-47.55,39.35,229.94,229.94,0,0,1-26.92,15.11,154,154,0,0,1-14.25,5.94,83.82,83.82,0,0,1-14.9,4,83.73,83.73,0,0,0,14.83-4.16c4.83-1.77,9.53-3.86,14.16-6.1a228.78,228.78,0,0,0,26.68-15.4,277.51,277.51,0,0,0,47-39.6c1.75-1.88,3.51-3.75,5.21-5.67s3.38-3.85,5-5.84c3.23-4,6.26-8.11,9.17-12.33a253.85,253.85,0,0,0,15.79-26.37,201.1,201.1,0,0,0,12.15-28.2c3.22-9.69,5.63-19.7,5.8-29.92.81-20.56,2.27-41.21,6.32-61.49a209.09,209.09,0,0,1,20.66-58.2c2.42-4.56,5-9,7.69-13.43s5.63-8.65,8.19-13.06a152,152,0,0,0,12.42-28.07c3.32-9.72,6-19.65,8.62-29.6S1043.29,414.39,1046.15,404.51Z"/><path class="cls-1" d="M861.84,814.5a197.74,197.74,0,0,0-9.47,38.31,186.74,186.74,0,0,0-1.73,19.64q-.32,9.85.25,19.79a118.47,118.47,0,0,1-1.81-19.81,135.21,135.21,0,0,1,1.31-19.9A127.32,127.32,0,0,1,861.84,814.5Z"/><path class="cls-1" d="M418.17,506.54c8.07,17.52,15.65,35.28,22.54,53.31q5.22,13.51,9.72,27.28c3,9.17,5.83,18.42,8.2,27.79,1.17,4.68,2.29,9.39,3.22,14.14.53,2.36.88,4.76,1.3,7.14s.76,4.77,1.13,7.15c1.49,9.53,2.88,19.07,4.8,28.49a198.22,198.22,0,0,0,7.47,27.8,161.9,161.9,0,0,0,12,26.08,194.56,194.56,0,0,0,35.88,44.78,187.17,187.17,0,0,0,47.6,32c4.35,2,8.75,4,13.25,5.64A133.92,133.92,0,0,0,599,812.7a220.36,220.36,0,0,0,28.3,5.52c19.09,2.61,38.39,3.62,57.6,5.29-19.24-1.32-38.55-1.85-57.74-4.21a221.71,221.71,0,0,1-28.52-5.24,129.55,129.55,0,0,1-13.85-4.41c-4.54-1.68-9-3.59-13.4-5.61a187.88,187.88,0,0,1-48.11-32.23,197.52,197.52,0,0,1-36.32-45.14,150.28,150.28,0,0,1-12.19-26.39,199.55,199.55,0,0,1-7.4-28.09c-1.85-9.49-3.3-19.05-4.61-28.61-.65-4.78-1.35-9.53-2.27-14.25s-2-9.41-3.1-14.09c-2.28-9.35-5-18.6-7.95-27.77s-6.08-18.3-9.42-27.34C433.33,542,426,524.17,418.17,506.54Z"/><path class="cls-1" d="M407.47,220.57a163,163,0,0,1,3-30.43,177.38,177.38,0,0,1,21.75-57.06,162,162,0,0,1,18-24.7,222.59,222.59,0,0,0-16.67,25.48,209,209,0,0,0-12.83,27.52A213.44,213.44,0,0,0,407.47,220.57Z"/></g><g id="haar"><path class="cls-2" d="M646.77,72.33a283.89,283.89,0,0,1-41,24.37c-14.31,7-29.35,12.43-44.32,17.8s-29.95,10.84-44,18.3c-3.46,1.94-7,3.79-10.29,5.95l-2.53,1.57-1.26.79-1.23.84-4.89,3.38c-1.64,1.12-3.18,2.37-4.77,3.55s-3.17,2.38-4.68,3.67l-4.57,3.8-4.42,4c-23.32,21.52-41.75,48.11-54.87,77s-21.55,59.82-26.74,91.13c-1.3,7.84-2.48,15.7-3.42,23.59-.52,3.94-.91,7.89-1.35,11.84s-.79,7.91-1.12,11.87c-1.33,15.84-2.17,31.72-2.36,47.62a675.6,675.6,0,0,0,5.42,95.15c4,31.56,10.07,62.84,14.63,94.36s7.48,63.43,5.17,95.23c2-31.82-1.32-63.67-6.14-95.08s-11-62.71-15.19-94.31c-1.08-7.89-1.95-15.82-2.75-23.74-.35-4-.74-7.94-1-11.91l-.45-6-.36-6c-1-15.91-1.31-31.86-1.13-47.79s1-31.87,2.28-47.76c.31-4,.72-7.94,1.09-11.91s.83-7.92,1.34-11.88c.93-7.92,2.09-15.81,3.39-23.68,5.27-31.43,13.73-62.51,27.06-91.56l2.54-5.42,2.7-5.35,1.36-2.67,1.44-2.62,2.9-5.24c2.06-3.42,4-6.91,6.23-10.24,1.09-1.67,2.13-3.38,3.27-5l3.41-4.92A225.75,225.75,0,0,1,461,176.28c2.58-3.05,5.4-5.88,8.13-8.79,1.41-1.42,2.86-2.8,4.28-4.19l2.15-2.09,2.23-2,4.47-4,4.63-3.8c1.52-1.3,3.14-2.48,4.73-3.68s3.17-2.43,4.83-3.55l4.95-3.37,1.24-.84,1.28-.79,2.55-1.56c3.36-2.17,6.91-4,10.4-5.94,14.17-7.43,29.23-12.84,44.24-18.1s30.07-10.46,44.43-17.33A283.88,283.88,0,0,0,646.77,72.33Z"/><path class="cls-2" d="M544.77,63.06a155.42,155.42,0,0,1-27.16,14.39,277.84,277.84,0,0,1-29.14,10c-19.73,5.7-39.84,10-59.41,16.08a209.63,209.63,0,0,0-28.67,10.91,136.57,136.57,0,0,0-13.47,7.29,112.78,112.78,0,0,0-12.39,9,104,104,0,0,0-11,10.61,101.93,101.93,0,0,0-9.19,12.2A139.61,139.61,0,0,0,341,180.94c-1.76,4.8-3.32,9.67-4.72,14.59-.68,2.47-1.28,4.95-1.93,7.43s-1.3,4.95-1.86,7.44l-1.56,7.52c-.51,2.5-1.1,5-1.47,7.53L328.21,233l-.62,3.79-.48,3.81a575.48,575.48,0,0,0-4.42,61.28c-1.11,41,.17,82.12-4.18,123.11a83.2,83.2,0,0,1-3.24,15.22A43.37,43.37,0,0,1,308,454.12a34.28,34.28,0,0,1-12.3,9.76,23.18,23.18,0,0,1-15.67,1.54,21.83,21.83,0,0,1-12.41-9.67,18.27,18.27,0,0,1-2.52-7.65,14.78,14.78,0,0,1,1.54-8,15.76,15.76,0,0,1,5.4-6,20.54,20.54,0,0,1,7.43-3,24.64,24.64,0,0,1,15.57,2.13,33,33,0,0,1,11.61,10.53,66.64,66.64,0,0,1,7.25,13.77c1,2.4,1.84,4.83,2.64,7.28s1.66,4.88,2.43,7.33c1.4,5,2.9,9.89,4,14.93,1.28,5,2.09,10.08,3.06,15.14.71,5.1,1.56,10.18,2,15.31.6,5.12.81,10.26,1.14,15.4l.19,7.71c.1,2.57.05,5.14,0,7.72l-.05,3.85,0,1.93-.09,1.93-.36,7.7c-.15,2.57-.4,5.13-.6,7.69l-.31,3.85-.44,3.83c-1.05,10.23-2.72,20.38-4.69,30.47a456.86,456.86,0,0,1-16.27,59.4c-13.39,38.87-30.81,76.13-48.21,113.28,17.1-37.29,34.23-74.68,47.28-113.59a456.81,456.81,0,0,0,16-59.33c1.92-10.06,3.53-20.19,4.54-30.38l.41-3.82.3-3.83c.18-2.55.42-5.1.56-7.65l.33-7.67.08-1.92,0-1.92,0-3.84c0-2.56.07-5.12,0-7.67l-.22-7.67c-.36-5.11-.59-10.22-1.21-15.3-.44-5.09-1.29-10.14-2-15.2-1-5-1.79-10.07-3.06-15-1.08-5-2.57-9.89-4-14.8-.77-2.44-1.62-4.85-2.43-7.27s-1.65-4.84-2.62-7.19a65.4,65.4,0,0,0-7.06-13.4,31.39,31.39,0,0,0-11-9.95,22.86,22.86,0,0,0-14.4-1.94,18.78,18.78,0,0,0-6.75,2.7,13.86,13.86,0,0,0-4.76,5.3,12.86,12.86,0,0,0-1.34,6.95,16.21,16.21,0,0,0,2.27,6.84,19.91,19.91,0,0,0,11.32,8.8,18.79,18.79,0,0,0,7.25.52,23.23,23.23,0,0,0,7.09-2,32.08,32.08,0,0,0,11.57-9.22,41.48,41.48,0,0,0,6.88-13.28,81.52,81.52,0,0,0,3.14-14.85c2.2-20.32,3-40.85,3.38-61.34s.37-41,1-61.57a580,580,0,0,1,4.53-61.46c2.78-20.36,7.06-40.61,14.16-60a140.53,140.53,0,0,1,13.61-27.71,102.9,102.9,0,0,1,9.37-12.33,104.61,104.61,0,0,1,11.18-10.7,115.89,115.89,0,0,1,12.57-9,143.6,143.6,0,0,1,13.62-7.3,208.53,208.53,0,0,1,28.87-10.82c19.67-6,39.81-10.08,59.56-15.62a279.23,279.23,0,0,0,29.17-9.7A156.35,156.35,0,0,0,544.77,63.06Z"/><path class="cls-2" d="M868.11,72.17c-.42,9,2.09,17.89,5.83,26s8.67,15.69,13.75,23.07q15.18,22.22,32.08,43.2a687.47,687.47,0,0,0,73.68,78.25q19.9,18.07,41.17,34.57c14.13,11,28.8,21.38,43.25,32A519.22,519.22,0,0,1,1119.93,343l4.91,4.64,2.45,2.33,2.36,2.41,4.72,4.84,4.51,5c.75.84,1.52,1.66,2.25,2.53l2.13,2.62c1.41,1.76,2.88,3.48,4.25,5.27,2.63,3.66,5.43,7.2,7.79,11.06a152.11,152.11,0,0,1,12.89,23.78,174.56,174.56,0,0,1,9,25.49,213.47,213.47,0,0,1,5.34,26.49,236.12,236.12,0,0,1,.75,53.93,264.09,264.09,0,0,1-3.94,26.71c-1.75,8.82-3.83,17.59-6.29,26.24s-5.26,17.2-8.29,25.67c-6.11,16.91-13.17,33.45-20.87,49.68S1128,674,1119,689.52a421.3,421.3,0,0,1-30,44.73,310.48,310.48,0,0,1-36.34,39.67,309.67,309.67,0,0,0,35.95-40A419.93,419.93,0,0,0,1118.13,689c8.9-15.57,17.08-31.55,24.63-47.81s14.56-32.79,20.56-49.67a364.68,364.68,0,0,0,14.33-51.72,264.5,264.5,0,0,0,3.88-26.55,234.78,234.78,0,0,0,1.11-26.78,238.85,238.85,0,0,0-1.94-26.73,214.77,214.77,0,0,0-5.34-26.24,172.75,172.75,0,0,0-9-25.2,152.29,152.29,0,0,0-12.77-23.48c-2.32-3.81-5.1-7.32-7.69-11-1.35-1.78-2.8-3.48-4.19-5.22l-2.12-2.6c-.71-.86-1.48-1.67-2.21-2.51l-4.47-5-4.67-4.81-2.34-2.4-2.43-2.31-4.87-4.62a517.87,517.87,0,0,0-41.84-33.69c-14.42-10.66-29.09-21-43.24-32.12s-27.91-22.66-41.15-34.81A686.35,686.35,0,0,1,919,165q-16.72-21.12-31.72-43.53c-5-7.43-9.88-15-13.57-23.24S867.61,81.18,868.11,72.17Z"/><path class="cls-2" d="M732.28,79.15A150.48,150.48,0,0,0,722.2,62.38a152.9,152.9,0,0,0-12.3-15.17,178.18,178.18,0,0,0-29.45-25.52C675.13,18,669.61,14.5,664,11.25c-2.81-1.66-5.69-3.17-8.55-4.72s-5.79-3-8.74-4.36a364.48,364.48,0,0,0-36.15-14.81C598.27-17,585.83-21,573.35-24.82s-24.94-7.75-37.73-10.1a103.91,103.91,0,0,0-19.35-1.79,68.66,68.66,0,0,0-19.16,2.82c-1.57.41-3.08,1-4.62,1.52s-3,1.19-4.46,1.94a50.69,50.69,0,0,0-8.37,4.94A46.1,46.1,0,0,0,472.4-19a44.06,44.06,0,0,0-5.65,8,44,44,0,0,1,5.43-8.15,46.51,46.51,0,0,1,7.16-6.72,52.52,52.52,0,0,1,8.36-5.19c1.44-.79,3-1.38,4.48-2.06s3.06-1.21,4.64-1.66A69.61,69.61,0,0,1,516.25-38a106.6,106.6,0,0,1,19.63,1.53c13,2.14,25.49,6.17,38,9.88s25,7.66,37.33,12A365.48,365.48,0,0,1,647.48.54c3,1.4,5.86,2.93,8.78,4.42s5.76,3.11,8.58,4.79,5.62,3.38,8.39,5.13l4.09,2.73c1.37.91,2.68,1.89,4,2.83a179.1,179.1,0,0,1,29.29,26.12,151.55,151.55,0,0,1,12,15.53A136.38,136.38,0,0,1,732.28,79.15Z"/><path class="cls-2" d="M673.32,84.15c-2-21.78,1.16-43.63,0-65.36-.62-10.83-2.24-21.72-6.47-31.7-.54-1.24-1-2.51-1.59-3.73s-1.19-2.43-1.87-3.6a75,75,0,0,0-4.28-6.87A93.62,93.62,0,0,0,648.6-39.42,137.9,137.9,0,0,0,622.71-59a159.16,159.16,0,0,0-14.39-7.59l-1.84-.87-1.87-.8c-1.24-.53-2.48-1.09-3.74-1.59-2.52-1-5-2-7.61-2.88a190.88,190.88,0,0,0-63.92-10.56,218.8,218.8,0,0,0-64.16,9.7c-5.19,1.62-10.33,3.38-15.36,5.43L446-66.63l-1.9.74-1.86.83-7.44,3.33c-1.25.53-2.46,1.16-3.67,1.77l-3.64,1.83-3.64,1.83c-1.22.61-2.38,1.31-3.58,1.95l-7.13,4-7,4.25c-1.15.72-2.34,1.39-3.46,2.16l-3.39,2.26c-2.25,1.53-4.56,3-6.75,4.58L386-32.35c-1.11.78-2.19,1.62-3.25,2.46l-3.22,2.52c-4.33,3.29-8.42,6.89-12.6,10.38l-6.07,5.45-3,2.75L354.89-6c-8,7.43-15.42,15.39-22.71,23.49l-5.37,6.16c-1.79,2.06-3.48,4.19-5.23,6.29-3.52,4.16-6.77,8.53-10.15,12.81,3.31-4.33,6.51-8.75,10-13,1.72-2.12,3.38-4.28,5.14-6.37l5.28-6.24C339,9,346.34.91,354.21-6.67l2.92-2.87,3-2.77,6.05-5.53c4.16-3.53,8.23-7.18,12.56-10.52l3.2-2.55c1.07-.86,2.14-1.71,3.25-2.5l6.59-4.87c2.2-1.64,4.5-3.1,6.75-4.66l3.39-2.31c1.12-.77,2.31-1.46,3.46-2.19l7-4.33,7.13-4c1.2-.66,2.37-1.37,3.59-2l3.66-1.85,3.66-1.86c1.23-.61,2.44-1.25,3.69-1.79l7.49-3.37,1.87-.84,1.91-.75,3.81-1.51c5.07-2.08,10.25-3.87,15.47-5.52a220.72,220.72,0,0,1,64.7-9.95A192.83,192.83,0,0,1,593.87-74.4c2.6.88,5.13,1.93,7.68,2.92,1.27.52,2.52,1.09,3.78,1.63l1.88.82,1.86.88a158.56,158.56,0,0,1,14.52,7.7l3.5,2.15c1.17.73,2.29,1.51,3.44,2.26,2.3,1.49,4.52,3.11,6.71,4.75a122.6,122.6,0,0,1,12.44,10.78,93.84,93.84,0,0,1,10.59,12.6,78,78,0,0,1,4.31,7c.68,1.19,1.26,2.44,1.86,3.68s1.06,2.54,1.6,3.8c4.2,10.2,5.77,21.23,6.27,32.13C675.13,40.62,671.69,62.35,673.32,84.15Z"/><path class="cls-2" d="M1066.93,360a95.89,95.89,0,0,0,6,16,141,141,0,0,0,8.46,14.88c6.14,9.62,13.12,18.68,19.57,28.14,3.25,4.71,6.28,9.58,9.14,14.55,1.32,2.55,2.76,5,3.92,7.67s2.36,5.24,3.38,7.93a113.36,113.36,0,0,1,6.83,33.67,155.38,155.38,0,0,1-2.18,34.33,246.87,246.87,0,0,1-8.25,33.38c-3.46,10.93-7.5,21.66-11.86,32.24s-8.92,21.08-13.71,31.47q-14.43,31.14-31.44,61c-11.29,19.91-23.67,39.16-35.89,58.46-6.07,9.68-12.08,19.39-17.8,29.27s-11.1,20-16,30.27A283.49,283.49,0,0,0,974.41,825a213.85,213.85,0,0,0-7.65,33.36,213,213,0,0,1,7.18-33.5,281,281,0,0,1,12.32-32c4.8-10.39,10.17-20.51,15.77-30.48s11.59-19.73,17.6-29.46l18.13-29.1c6-9.72,11.86-19.51,17.48-29.45q16.88-29.8,31.21-61,7.2-15.52,13.76-31.36c4.37-10.54,8.42-21.21,11.89-32.06a246,246,0,0,0,8.28-33.12,159.77,159.77,0,0,0,2.35-34,112.11,112.11,0,0,0-6.48-33.32c-1-2.66-2.06-5.29-3.28-7.86s-2.53-5.09-3.82-7.62q-4.2-7.44-9-14.56c-6.29-9.52-13.15-18.69-19.17-28.42a141.72,141.72,0,0,1-8.27-15A95.87,95.87,0,0,1,1066.93,360Z"/><path class="cls-2" d="M900,913.43l-2.42-4.26L896.37,907c-.37-.72-.7-1.47-1-2.21l-2.09-4.43c-.63-1.51-1.19-3-1.78-4.57l-.88-2.29c-.3-.76-.49-1.56-.75-2.34l-1.42-4.69c-.45-1.58-.76-3.19-1.14-4.78s-.77-3.18-1-4.8a110.81,110.81,0,0,1,.1-39.12,107.72,107.72,0,0,1,5.22-18.95l1.89-4.55c.33-.75.62-1.52,1-2.26l1.12-2.2,2.23-4.39,2.56-4.22,1.28-2.11c.45-.68.91-1.37,1.4-2a47.79,47.79,0,0,1,3.08-3.89,27.58,27.58,0,0,1,7.75-6.31,16.4,16.4,0,0,1,9.9-1.84A19,19,0,0,1,933,789.2a25.14,25.14,0,0,1,6.35,7.78,35.69,35.69,0,0,1,3.22,9.47,69.84,69.84,0,0,1,1.16,9.84c.16,3.28.35,6.53.26,9.87a22,22,0,0,1-2.23,9.87,11.47,11.47,0,0,1-3.49,3.91,11,11,0,0,1-4.94,1.86,15,15,0,0,1-9.91-2.55,19.09,19.09,0,0,1-6.33-8,34.82,34.82,0,0,1-2.58-9.7,54.67,54.67,0,0,1,4.45-29.2c.64-1.53,1.44-3,2.21-4.46s1.67-2.88,2.64-4.23a50.85,50.85,0,0,1,6.38-7.66c4.71-4.73,10.25-8.34,15.25-12.43a74.63,74.63,0,0,0,7.09-6.56,83.41,83.41,0,0,0,6.2-7.44A139.66,139.66,0,0,0,969,733.15c3.12-5.71,6-11.55,9-17.37s5.91-11.65,8.83-17.49q8.82-17.5,17.16-35.22c2.73-5.93,5.48-11.85,8.14-17.81l3.93-9,2-4.49,1.86-4.52,3.73-9c1.22-3,2.34-6.09,3.52-9.14s2.38-6.07,3.43-9.16l3.21-9.24c.53-1.55,1.09-3.08,1.6-4.63l1.44-4.68,2.9-9.34c.93-3.13,1.72-6.3,2.58-9.44l1.27-4.73.64-2.36.54-2.38a319.72,319.72,0,0,0,9.38-77.57c.56,26.14-2.62,52.29-8.42,77.79l-.52,2.4-.62,2.37-1.25,4.75c-.84,3.16-1.61,6.34-2.52,9.48l-2.84,9.39-1.41,4.7c-.5,1.55-1,3.1-1.57,4.65l-3.16,9.29c-1,3.1-2.25,6.13-3.37,9.21s-2.26,6.14-3.47,9.18l-3.67,9.09c-9.82,24.25-21.2,47.83-32.84,71.23q-4.37,8.77-8.79,17.52c-3,5.83-5.86,11.68-9,17.45a141.42,141.42,0,0,1-10.44,16.72,88.47,88.47,0,0,1-6.33,7.62,73.75,73.75,0,0,1-7.27,6.76c-5.12,4.16-10.6,7.73-15.14,12.27a48.76,48.76,0,0,0-6.16,7.36c-.93,1.3-1.73,2.7-2.56,4.07s-1.52,2.83-2.14,4.31A53.89,53.89,0,0,0,916,811.76c-.32,6.37.17,13,2.7,18.79a17.41,17.41,0,0,0,5.68,7.22,13.24,13.24,0,0,0,8.69,2.27,9.21,9.21,0,0,0,4.14-1.54,9.77,9.77,0,0,0,3-3.32,20.5,20.5,0,0,0,2-9.08c.09-3.19-.09-6.48-.24-9.72a73,73,0,0,0-1.09-9.61,34.29,34.29,0,0,0-3-9,23.43,23.43,0,0,0-5.9-7.33,17.47,17.47,0,0,0-8.42-3.91,15,15,0,0,0-9.05,1.64,26.29,26.29,0,0,0-7.4,6,45.72,45.72,0,0,0-3,3.77c-.48.65-.94,1.32-1.39,2l-1.28,2.07L898.88,806l-2.24,4.33-1.12,2.16c-.35.73-.64,1.49-1,2.24l-1.91,4.48a111.9,111.9,0,0,0-5.88,57.58,48.38,48.38,0,0,0,.92,4.8c.36,1.59.64,3.2,1.07,4.77l1.36,4.7c.25.78.43,1.58.72,2.34l.85,2.29c.57,1.53,1.11,3.07,1.72,4.59l2,4.45c.34.74.66,1.49,1,2.22l1.19,2.15Z"/><path class="cls-2" d="M922.28,52.63a282.4,282.4,0,0,0,33.45,68.23,321.68,321.68,0,0,0,49.81,57.38,365.37,365.37,0,0,0,61.35,44.84q16.47,9.54,33.81,17.44a370.71,370.71,0,0,0,35.35,14q18,6.1,36.56,10.46c3.1.69,6.19,1.42,9.28,2.07s6.21,1.19,9.33,1.54c6.2.67,12.63.56,18.36-1.76a25.17,25.17,0,0,0,4.06-2.11,16.27,16.27,0,0,0,3.32-3.05,19.57,19.57,0,0,0,4-8.11,15.88,15.88,0,0,0-.3-8.89,10.45,10.45,0,0,0-5.87-6.22,15.36,15.36,0,0,0-8.84-.73,20.7,20.7,0,0,0-8.28,3.69,29.29,29.29,0,0,0-10.09,15.12,34.49,34.49,0,0,0-1.47,9.13A44.65,44.65,0,0,0,1187,275a79,79,0,0,0,6,17.79c2.64,5.74,5.62,11.36,8.45,17.05s5.68,11.38,8.46,17.1c11.15,22.86,21.58,46.08,31,69.7a699,699,0,0,1,24.48,72.29q5,18.42,8.81,37.16c2.49,12.48,4.51,25.07,5.9,37.73s2.26,25.38,2.48,38.11c0,3.19.09,6.37,0,9.56l-.21,9.55-.49,9.54c-.17,3.18-.51,6.35-.76,9.53s-.65,6.33-1,9.5l-.56,4.74-.72,4.73c-.9,6.3-2,12.58-3.36,18.81a189.64,189.64,0,0,1-11.51,36.45,150.2,150.2,0,0,1-8.84,17,168,168,0,0,1-10.74,15.83q-5.79,7.61-12.23,14.69t-13.35,13.66c-4.59,4.42-9.35,8.65-14.16,12.81-2.4,2.1-4.86,4.11-7.32,6.13s-4.87,4.09-7.41,6l-7.52,5.87c-2.53,1.92-5.11,3.79-7.67,5.68-1.28.94-2.55,1.91-3.85,2.82l-3.91,2.73c-2.62,1.8-5.18,3.69-7.86,5.41a487.82,487.82,0,0,1-137.85,63.94,487.17,487.17,0,0,0,137.31-64.75c2.65-1.74,5.2-3.63,7.81-5.43l3.9-2.74c1.29-.92,2.55-1.89,3.83-2.83,2.54-1.9,5.11-3.77,7.63-5.69l7.48-5.89c2.52-1.93,4.91-4,7.37-6s4.9-4,7.28-6.14c4.78-4.17,9.51-8.41,14.06-12.82s9-9,13.25-13.64,8.28-9.59,12.1-14.64A167.8,167.8,0,0,0,1254,710.55a149,149,0,0,0,8.69-16.85,188.55,188.55,0,0,0,11.28-36.18c1.33-6.19,2.43-12.44,3.31-18.71l.71-4.71.55-4.72c.36-3.15.78-6.29,1-9.45s.58-6.31.74-9.48l.48-9.49.2-9.51c0-3.17,0-6.34-.06-9.51-.23-12.67-1.09-25.34-2.51-37.94s-3.42-25.14-5.92-37.57-5.46-24.78-8.82-37a696.79,696.79,0,0,0-24.5-72.06c-9.41-23.58-19.8-46.77-30.91-69.61q-4.15-8.56-8.42-17.08c-2.82-5.69-5.79-11.31-8.46-17.12a81.2,81.2,0,0,1-6.17-18.22,46.71,46.71,0,0,1-.87-9.67,36.1,36.1,0,0,1,1.57-9.62,31,31,0,0,1,10.76-16,22.43,22.43,0,0,1,9-4,17.16,17.16,0,0,1,9.88.85,12.26,12.26,0,0,1,6.82,7.25,17.55,17.55,0,0,1,.35,9.89,21.3,21.3,0,0,1-4.38,8.82,17.61,17.61,0,0,1-3.68,3.37,27.22,27.22,0,0,1-4.38,2.28,31.47,31.47,0,0,1-9.53,2.11,52.88,52.88,0,0,1-9.67-.26c-3.2-.36-6.35-.93-9.48-1.57s-6.21-1.4-9.32-2.1q-18.59-4.42-36.67-10.64a371.53,371.53,0,0,1-35.44-14.22q-17.34-8-33.86-17.63a365.06,365.06,0,0,1-61.38-45.2,322.44,322.44,0,0,1-49.55-57.83A282.31,282.31,0,0,1,922.28,52.63Z"/><path class="cls-2" d="M727.3,87.29a8.11,8.11,0,0,1-2.61-5.23,23.39,23.39,0,0,1,.14-6c.56-3.92,1.15-7.83,1.8-11.74q2-11.7,4.67-23.29c1.73-7.74,3.79-15.39,6-23a221.09,221.09,0,0,1,7.59-22.59A74.92,74.92,0,0,1,757.29-25a79.91,79.91,0,0,1,18.23-15.44,145.93,145.93,0,0,1,21.2-10.83c7.33-3,14.77-5.7,22.28-8.22-7.35,2.94-14.72,5.82-21.89,9.12a146.22,146.22,0,0,0-20.76,11.23,82.75,82.75,0,0,0-17.67,15.32,73,73,0,0,0-12,20A216.71,216.71,0,0,0,739,18.57c-2.28,7.56-4.29,15.19-6.25,22.84s-3.65,15.37-5.2,23.12c-.8,3.87-1.54,7.76-2.23,11.64A23,23,0,0,0,725,82,7.92,7.92,0,0,0,727.3,87.29Z"/><path class="cls-2" d="M752.94,82.17c-3.36-12-2.72-25,.64-37A96.79,96.79,0,0,1,770.73,12c7.73-9.9,17.19-18.3,27.23-25.74a312.14,312.14,0,0,1,31.67-20Q846-42.82,862.53-51.5c11-5.77,22.16-11.43,33.58-16.45A340.62,340.62,0,0,1,931-81.37a228.54,228.54,0,0,1,36.39-8.41,243.33,243.33,0,0,0-36.09,9.34,340.8,340.8,0,0,0-34.58,13.89C874.17-56.13,852.37-44.06,830.6-32A309.12,309.12,0,0,0,799-12.31a144.14,144.14,0,0,0-27.1,25.22,102.1,102.1,0,0,0-10.29,15.41,91.77,91.77,0,0,0-7.13,17.1,75.82,75.82,0,0,0-3.24,18.25A65.91,65.91,0,0,0,752.94,82.17Z"/><path class="cls-2" d="M801.66,82.85A67.18,67.18,0,0,1,807,69.33a76.61,76.61,0,0,1,8.16-12,112.17,112.17,0,0,1,21.56-19.54c3.95-2.84,8.06-5.44,12.24-7.93s8.45-4.81,12.74-7.07c2.16-1.12,4.29-2.29,6.46-3.38l6.54-3.21C879,14,883.48,12,887.89,10a490.66,490.66,0,0,1,54.58-20.34C961-16.11,979.82-21,998.77-25.26s38-7.75,57.19-10.92c9.59-1.55,19.21-2.9,28.87-4,4.83-.54,9.67-1,14.51-1.34s9.7-.61,14.56-.74a269.83,269.83,0,0,1,29.14.59,200.38,200.38,0,0,1,28.85,4.19,157.63,157.63,0,0,1,27.72,8.9,138.5,138.5,0,0,1,25.33,14.24,138.79,138.79,0,0,0-25.52-13.79,158.11,158.11,0,0,0-27.74-8.4A201.18,201.18,0,0,0,1143-40.37a269.74,269.74,0,0,0-29-.31,470,470,0,0,0-57.69,6.3c-19.1,3.22-38.15,6.86-57.06,11.07C961.4-14.94,924-4,888.51,11.4c-4.42,2-8.88,3.86-13.22,6l-6.55,3.14c-2.17,1.06-4.31,2.21-6.46,3.31-4.31,2.21-8.6,4.45-12.76,6.92-2.11,1.18-4.15,2.49-6.21,3.75s-4.07,2.61-6,4a112,112,0,0,0-21.75,19.06,76.35,76.35,0,0,0-8.32,11.86A66.51,66.51,0,0,0,801.66,82.85Z"/><path class="cls-2" d="M921.08,29.7a122.9,122.9,0,0,1,55.49,2.14l3.4.87,3.34,1.06,3.34,1.07,1.67.54L990,36l6.55,2.5,6.42,2.83a202.11,202.11,0,0,1,24.53,13.57c15.67,10.26,29.75,22.77,42.61,36.31s24.65,28.07,36.07,42.81,22.32,29.88,33.78,44.54c5.74,7.28,11.84,14.35,19.22,19.87a51.27,51.27,0,0,0,11.95,6.7,63.32,63.32,0,0,0,13.32,3.52c9.14,1.42,18.49,1.55,27.78,1.86s18.62.23,27.93,0c18.62-.34,37.22-1.67,55.75-3.72-18.48,2.5-37.08,4-55.72,4.7q-14,.47-28,.25c-4.67-.08-9.33-.18-14-.38a137.31,137.31,0,0,1-14-1.22,65.78,65.78,0,0,1-13.69-3.47,53,53,0,0,1-12.38-6.88c-7.61-5.65-13.82-12.83-19.62-20.13C1127,165,1115.92,150,1104.55,135.24s-23-29.31-35.8-42.78c-6.4-6.74-13-13.27-20.06-19.33a231.93,231.93,0,0,0-22.07-16.95,201.16,201.16,0,0,0-24.22-13.71l-6.34-2.88-6.49-2.54L988,36.42l-1.65-.55L983,34.77l-3.31-1.08-3.36-.91A124.26,124.26,0,0,0,921.08,29.7Z"/><path class="cls-2" d="M1075.4,49.46c8.81,1.71,16.82,6.23,23.85,11.68s13.48,11.73,20,17.83l38.93,36.78c6.48,6.14,13,12.25,19.39,18.48s12.69,12.59,18.61,19.31c2.94,3.37,5.81,6.81,8.53,10.37s5.28,7.25,7.67,11.05a131,131,0,0,1,6.5,11.79c1.94,4.05,3.65,8.2,5.2,12.4,6.23,16.85,9.8,34.42,14.82,51.5s10.62,34,16.64,50.83,12.38,33.47,18.68,50.18,12.65,33.38,19.18,50,13.18,33.16,20.19,49.56c3.5,8.2,7.12,16.35,10.77,24.5s7.24,16.34,10.47,24.69c1.61,4.18,3.13,8.4,4.52,12.66s2.59,8.59,3.64,13a174.52,174.52,0,0,1,4,26.59c1.38,17.88.56,35.78.23,53.6-.16,8.92-.2,17.83.22,26.73s1.31,17.76,2.46,26.6c2.27,17.68,5.4,35.3,6.68,53.15a184.55,184.55,0,0,1,.14,26.81,132.52,132.52,0,0,1-4.74,26.37,94.06,94.06,0,0,1-10.82,24.45,73.92,73.92,0,0,1-18,19.63,73.77,73.77,0,0,0,17.8-19.76,93.58,93.58,0,0,0,10.56-24.45,131,131,0,0,0,4.48-26.29,182.94,182.94,0,0,0-.39-26.69c-1.38-17.77-4.58-35.35-7-53.06-1.19-8.85-2.16-17.75-2.6-26.69s-.47-17.89-.36-26.82c.22-17.86,1-35.71-.41-53.45a174.11,174.11,0,0,0-4-26.31c-1-4.31-2.27-8.58-3.63-12.81s-2.9-8.4-4.5-12.55c-3.23-8.29-6.83-16.45-10.48-24.59s-7.31-16.3-10.83-24.5c-7-16.42-13.77-33-20.29-49.6s-12.81-33.33-19.1-50-12.6-33.41-18.61-50.23-11.68-33.78-16.59-51c-2.47-8.59-4.67-17.26-6.91-25.89s-4.64-17.21-7.69-25.56c-1.52-4.18-3.19-8.29-5.08-12.3a130.87,130.87,0,0,0-6.37-11.69c-2.34-3.77-4.88-7.42-7.54-11s-5.51-7-8.42-10.34c-5.85-6.71-12.09-13.08-18.45-19.34s-12.84-12.39-19.27-18.58l-38.6-37.12c-6.44-6.17-12.76-12.5-19.79-18S1084.19,51.25,1075.4,49.46Z"/><path class="cls-2" d="M437.74,648.35a250.73,250.73,0,0,1,12.66,39A265.19,265.19,0,0,1,456.62,728a256.62,256.62,0,0,1-.24,41.12,261.54,261.54,0,0,1-6.81,40.57c-.43,1.67-.78,3.35-1.28,5l-1.46,4.94-1.46,4.94-1.62,4.88c-2.2,6.5-4.61,12.91-7.09,19.3-5,12.75-10.2,25.39-14.93,38.2s-8.81,25.87-11.13,39.32a126.07,126.07,0,0,0-1.92,20.34A106.43,106.43,0,0,0,410.45,967c-3-13.38-2.87-27.33-.82-40.88s6.11-26.77,10.65-39.68,9.8-25.58,14.68-38.34c2.45-6.38,4.82-12.78,7-19.25l1.59-4.86,1.43-4.91,1.42-4.9c.49-1.63.83-3.31,1.26-4.95A261.16,261.16,0,0,0,454.57,769a273.2,273.2,0,0,0,.52-40.86,270.27,270.27,0,0,0-17.35-79.75Z"/><path class="cls-2" d="M353.45,349.81q-2.93,15-4.41,30.17t-1.5,30.44q-.09,15.25.66,30.48t2.23,30.4c1.91,20.24,4.26,40.45,6.51,60.68s4.38,40.47,5.87,60.78q1.13,15.24,1.67,30.51c.39,10.18.48,20.37.37,30.56-.32,20.36-1.42,40.79-5,60.9s-9,39.93-17.92,58.32a146.68,146.68,0,0,1-16.07,26,122.72,122.72,0,0,1-21.5,21.59,122.55,122.55,0,0,0,21.11-21.89,145.84,145.84,0,0,0,15.58-26.09c8.67-18.37,14-38.15,17.28-58.15q1.23-7.51,2.07-15.08c.57-5,1.06-10.09,1.41-15.16C362.5,674.11,363,664,363,653.81s0-20.32-.46-30.47c-.16-5.08-.48-10.15-.73-15.22s-.62-10.15-1-15.21c-1.43-20.28-3.51-40.51-5.68-60.74s-4.56-40.44-6.24-60.73q-1.26-15.22-2-30.48c-.4-10.18-.55-20.37-.37-30.55s.93-20.35,2-30.48S351.34,359.76,353.45,349.81Z"/><path class="cls-2" d="M440.88,49.59a82.31,82.31,0,0,0-12.83-2.37A87.35,87.35,0,0,0,415,47a92.33,92.33,0,0,0-12.93,1.63,101.51,101.51,0,0,0-12.61,3.27c-16.58,5.37-31.6,14.68-45.17,25.48-6.8,5.41-13.3,11.2-19.61,17.19s-12.44,12.16-18.37,18.53A298.27,298.27,0,0,0,274,153.89a221.84,221.84,0,0,0-23,46.58c-2.94,8.16-5.32,16.52-7.44,24.94s-3.65,17-5,25.56-2.21,17.23-2.89,25.9-1,17.35-1.08,26c-.17,17.39.62,34.78,1.92,52.13,2.55,34.72,7.13,69.29,9.95,104s4.18,69.62,4.27,104.48-.81,69.71-2.39,104.52c-.46,8.7-.76,17.41-1.49,26.11A180.49,180.49,0,0,1,243,720.06a87.79,87.79,0,0,1-9.3,24.38,56.21,56.21,0,0,1-7.81,10.46,50.58,50.58,0,0,1-10.14,8.19,50.89,50.89,0,0,0,10.05-8.28,55.69,55.69,0,0,0,7.69-10.49,87.59,87.59,0,0,0,9-24.37,182.16,182.16,0,0,0,3.61-25.81c.65-8.67.87-17.39,1.24-26.09,1.38-34.81,2.15-69.64,1.83-104.47q-.24-26.12-1.29-52.22t-3.26-52.12c-2.87-34.7-7.51-69.26-10.12-104-1.28-17.39-2-34.84-1.83-52.3.1-8.73.51-17.45,1.13-26.16s1.66-17.39,2.94-26,3-17.22,5.08-25.71,4.56-16.88,7.53-25.11c.69-2.07,1.55-4.08,2.32-6.13l1.18-3.06c.4-1,.86-2,1.29-3,.88-2,1.72-4,2.62-6l2.86-5.91a220.54,220.54,0,0,1,13.09-22.71A299.66,299.66,0,0,1,305.4,112.2c6-6.36,12.18-12.49,18.52-18.49S336.82,82,343.7,76.57c13.73-10.72,28.92-19.94,45.62-25.17A101,101,0,0,1,402,48.23a93,93,0,0,1,13-1.51,85,85,0,0,1,13.06.38A82.25,82.25,0,0,1,440.88,49.59Z"/><path class="cls-2" d="M288.45,504.22c-3.48,21-3.05,42.38-1.16,63.48s4.88,42.16,6.82,63.34c1,10.59,1.65,21.22,1.61,31.88a196.74,196.74,0,0,1-2.39,31.87,148.11,148.11,0,0,1-8.41,30.86,217.37,217.37,0,0,1-14.23,28.63c-5.33,9.21-11,18.19-16.45,27.29-2.67,4.58-5.34,9.16-8,13.77l-3.8,7c-1.27,2.33-2.55,4.65-3.73,7a585.14,585.14,0,0,0-26.17,57.95,550.55,550.55,0,0,0-19.51,60.53,563,563,0,0,0-12.74,62.36,562,562,0,0,1,11.79-62.6,547.85,547.85,0,0,1,45-119.08c1.18-2.38,2.46-4.71,3.73-7l3.79-7c2.61-4.64,5.28-9.24,7.94-13.85,5.42-9.14,11.07-18.13,16.36-27.31A215.94,215.94,0,0,0,283.15,725a147.32,147.32,0,0,0,8.39-30.45A196.34,196.34,0,0,0,294,662.91c0-10.58-.54-21.17-1.42-31.74-1.75-21.13-4.68-42.19-6.26-63.39S284.65,525.15,288.45,504.22Z"/><path class="cls-2" d="M379.4,25.71c-21.38.62-42.79,1.3-64.06,3.55s-42.42,6.09-62.64,13a224.18,224.18,0,0,0-103.3,72.63c-3.39,4.13-6.36,8.56-9.47,12.89-1.6,2.13-2.93,4.45-4.36,6.7s-2.85,4.5-4.23,6.78A263.86,263.86,0,0,0,117,169.82c-1,2.46-2.15,4.87-3.09,7.37l-2.8,7.5-1.39,3.75-1.23,3.8L106,199.86c-.78,2.54-1.44,5.13-2.17,7.69l-1.07,3.86-.54,1.93-.46,1.95L100,223.08c-.29,1.3-.63,2.59-.89,3.9l-.77,3.92-1.54,7.86c-.45,2.63-.85,5.27-1.28,7.9-.91,5.26-1.52,10.56-2.19,15.86-.37,2.64-.6,5.3-.85,8l-.76,8-.54,8c-.16,2.66-.39,5.32-.46,8-1,21.34-.58,42.73.56,64.07,2.3,42.69,7.55,85.19,11.18,127.85,1.84,21.33,3.19,42.72,3.55,64.14.15,5.36.07,10.71.07,16.07,0,2.68-.09,5.36-.15,8l-.22,8c-.51,10.7-1.14,21.4-2.34,32a360.87,360.87,0,0,1-12.06,63.09L89,685.47c-.79,2.56-1.73,5.08-2.59,7.62l-1.31,3.79-.66,1.9-.74,1.87-3,7.47c-.51,1.24-.95,2.51-1.52,3.72l-1.67,3.66-3.34,7.31L70.48,730c-1.24,2.38-2.43,4.78-3.79,7.09a178.85,178.85,0,0,1-18.18,26.49A117,117,0,0,1,24.87,785.2a89,89,0,0,1-29.22,13,70,70,0,0,1-31.84.45A69.92,69.92,0,0,0-4.41,798a88.61,88.61,0,0,0,29-13.18,116.65,116.65,0,0,0,23.35-21.74,177,177,0,0,0,17.9-26.5c1.34-2.31,2.51-4.71,3.74-7.08l3.65-7.13,3.29-7.3,1.65-3.65c.56-1.21,1-2.47,1.5-3.71l2.94-7.45.72-1.86.65-1.89,1.29-3.79c.85-2.54,1.77-5,2.55-7.6l2.25-7.68a359,359,0,0,0,11.74-62.9c1.15-10.61,1.73-21.29,2.2-32,.11-5.34.31-10.67.33-16s.07-10.68-.09-16c-.38-21.37-1.77-42.71-3.63-64-3.69-42.61-9-85.12-11.37-127.91-1.11-21.38-1.48-42.84-.46-64.26.07-2.68.3-5.35.47-8l.55-8,.77-8c.26-2.66.49-5.34.87-8,.69-5.32,1.3-10.64,2.23-15.93.43-2.64.83-5.29,1.3-7.93l1.55-7.9.78-3.94c.26-1.32.61-2.61.9-3.92l1.85-7.83.47-2,.54-1.94,1.08-3.87c.74-2.58,1.4-5.18,2.2-7.74l2.48-7.65,1.25-3.83,1.4-3.77,2.82-7.54c1-2.51,2.09-4.94,3.13-7.42a262.74,262.74,0,0,1,14.47-28.74c1.4-2.29,2.86-4.54,4.29-6.81s2.8-4.58,4.42-6.73c3.15-4.34,6.16-8.79,9.59-12.93a225.3,225.3,0,0,1,104.19-72.6c20.37-6.77,41.61-10.46,62.9-12.55S358,26.16,379.4,25.71Z"/><path class="cls-2" d="M185.88,274.61A211.51,211.51,0,0,0,165,321.53a275.6,275.6,0,0,0-10.5,50.27c-4,34.09-3,68.57.15,102.72s7.95,68.24,10.87,102.51c1.45,17.13,2.44,34.32,2.48,51.53A366.94,366.94,0,0,1,164.62,680,387.58,387.58,0,0,0,167,628.56c-.24-17.16-1.4-34.3-3-51.39C160.73,543,155.83,509,152.63,474.7c-1.53-17.13-2.51-34.33-2.6-51.55A385.88,385.88,0,0,1,153,371.62,276.44,276.44,0,0,1,164,321.23,206.57,206.57,0,0,1,185.88,274.61Z"/><path class="cls-2" d="M1308.82,271.1c6.39,13,12.55,26.21,18.62,39.41s11.87,26.54,17.57,39.91,11.21,26.82,16.56,40.33,10.59,27.08,15.63,40.71,9.87,27.35,14.56,41.11,9.39,27.51,13.49,41.47c2,7,3.92,14,5.56,21.11s3,14.26,4,21.48a148.86,148.86,0,0,1-.21,43.5,147.52,147.52,0,0,0,1.18-21.72,163.52,163.52,0,0,0-1.94-21.65c-2.08-14.35-5.8-28.41-10-42.27s-9-27.61-13.73-41.33-9.66-27.39-14.72-41c-10-27.28-20.65-54.29-31.73-81.14S1320.84,297.55,1308.82,271.1Z"/><path class="cls-2" d="M1300.75,666.11c-.68,9.7-1.6,19.37-2.62,29s-2.3,19.3-3.67,28.92-3,19.22-4.66,28.79-3.55,19.14-5.87,28.61a193.44,193.44,0,0,1-9.11,27.8,143,143,0,0,1-6.39,13.19,130.47,130.47,0,0,1-7.89,12.35,202,202,0,0,1-18.86,22.31c-6.78,7-13.84,13.65-21,20.23,6.83-6.91,13.75-13.73,20.28-20.9a204.47,204.47,0,0,0,18.32-22.52c2.72-4,5.28-8.09,7.62-12.3a138.13,138.13,0,0,0,6.23-13.06A192.26,192.26,0,0,0,1282,781c2.36-9.39,4.27-18.9,6-28.44s3.36-19.12,4.94-28.7,2.94-19.19,4.22-28.81S1299.63,675.76,1300.75,666.11Z"/><path class="cls-2" d="M1222.13,449.75c1.12,4.13,2.25,8.26,3.32,12.41s2,8.32,3,12.5,1.81,8.38,2.61,12.59,1.63,8.41,2.31,12.64c2.85,16.91,4.73,34,5.91,51.08,1,17.12,1.3,34.29.61,51.42-.13,4.28-.41,8.56-.68,12.84s-.63,8.54-1,12.81-.91,8.52-1.38,12.78a32.89,32.89,0,0,1-1,6.35,8.52,8.52,0,0,1-1.5,2.86,3.9,3.9,0,0,1-2.78,1.48,3.87,3.87,0,0,0,2.66-1.57,8.36,8.36,0,0,0,1.33-2.85,33.33,33.33,0,0,0,.81-6.33c.32-4.26.74-8.52.94-12.8s.58-8.53.71-12.8.37-8.54.4-12.82c.37-17.09.1-34.19-1.07-51.24-1-17.06-2.9-34.06-5.43-51-.58-4.23-1.36-8.43-2-12.66s-1.56-8.4-2.32-12.61-1.7-8.38-2.55-12.58Z"/><path class="cls-2" d="M613.2,47.57a76.54,76.54,0,0,0-23.89-23.93,107.51,107.51,0,0,0-31.06-13.45A181.48,181.48,0,0,0,524.59,5c-11.37-.79-22.8-1-34.23-1.25,11.42-.49,22.86-.84,34.32-.31a163.13,163.13,0,0,1,34.08,4.79,101.63,101.63,0,0,1,31.41,14.1,77.52,77.52,0,0,1,13.1,11.22A64.91,64.91,0,0,1,613.2,47.57Z"/><path class="cls-2" d="M675.54,82a153.66,153.66,0,0,0,18.39-46.77,151.63,151.63,0,0,0,3.18-25,159.24,159.24,0,0,0-1-25.25,115.33,115.33,0,0,1,2.52,25.29,127.77,127.77,0,0,1-2.78,25.34A128.36,128.36,0,0,1,688.12,60,115.66,115.66,0,0,1,675.54,82Z"/><path class="cls-2" d="M646.69,87.14a283.6,283.6,0,0,0-5.39-36.56,172,172,0,0,0-11.53-34.91A128.85,128.85,0,0,0,610-15.16,104.7,104.7,0,0,0,581.5-38.31,94.46,94.46,0,0,1,611.14-16.2a121,121,0,0,1,20.45,31,157.68,157.68,0,0,1,11.23,35.42A216.89,216.89,0,0,1,646.69,87.14Z"/><path class="cls-2" d="M773.08,83.35a57.82,57.82,0,0,0,4.14-7.51,79.72,79.72,0,0,0,3.07-8c1.82-5.42,3.22-11,4.91-16.48.83-2.76,1.72-5.5,2.79-8.2.49-1.36,1.14-2.66,1.73-4s1.15-2.66,1.89-3.91l2.11-3.82,2.37-3.65c.76-1.24,1.67-2.37,2.53-3.53s1.71-2.34,2.69-3.42l2.85-3.28,3.05-3.1c1-1.06,2.08-2,3.15-3s2.11-2,3.27-2.86L817,5.91c1.15-.87,2.33-1.7,3.5-2.55s2.36-1.66,3.58-2.44,2.4-1.6,3.65-2.31a140.2,140.2,0,0,1,15.33-8,164,164,0,0,1,16.14-6c-5.33,2.14-10.61,4.36-15.73,6.93-1.28.63-2.54,1.31-3.81,2l-1.9,1-1.86,1.07c-1.23.72-2.49,1.38-3.71,2.13L828.57-.07a113,113,0,0,0-25.73,22.2c-1,1.05-1.77,2.21-2.64,3.33s-1.75,2.23-2.5,3.44l-2.33,3.55-2.09,3.7a40.88,40.88,0,0,0-1.91,3.8c-.6,1.28-1.25,2.54-1.76,3.87-1.07,2.63-2,5.31-2.93,8-1.8,5.42-3.42,10.95-5.47,16.33A59.35,59.35,0,0,1,773.08,83.35Z"/><path class="cls-2" d="M799.59,79.53q-1.47-4.94-2.89-9.9l-2.62-10-2.31-10.07-2.06-10.11c-2.58-13.53-4.35-27.21-5.58-40.93-1.06-13.74-1.57-27.52-1.26-41.29l.36-10.32.61-10.31.94-10.28q.59-5.13,1.22-10.24-.32,5.15-.69,10.29l-.49,10.29L784.49-53l-.09,10.29c0,13.73.51,27.45,1.73,41.11,1,13.68,2.84,27.29,5.08,40.83L793,49.33l2,10.1,2.18,10.07Q798.43,74.51,799.59,79.53Z"/><path class="cls-2" d="M825.16,84.15a39.89,39.89,0,0,1,4.15-12.64,47.56,47.56,0,0,1,7.89-10.8A68.82,68.82,0,0,1,847.38,52a107.31,107.31,0,0,1,11.36-7.09c7.81-4.36,16.11-7.68,24.32-11.06s16.61-6.4,25-9.28a459.18,459.18,0,0,1,51.53-13.87c8.71-1.77,17.49-3.26,26.28-4.57s17.65-2.19,26.5-2.86c-17.63,2.17-35.15,5.07-52.46,8.94-8.64,2-17.27,4-25.8,6.43s-17,4.94-25.41,7.82-16.76,5.78-25,9.08a261.81,261.81,0,0,0-24.28,10.72A104.05,104.05,0,0,0,848.1,53a69.53,69.53,0,0,0-10.2,8.38,47,47,0,0,0-8.13,10.37A42.06,42.06,0,0,0,825.16,84.15Z"/><path class="cls-2" d="M204.73,514.44c1,3.43,1.83,6.9,2.58,10.38s1.41,7,2,10.47,1.15,7,1.6,10.55.85,7.07,1.05,10.64c-1-3.43-1.84-6.9-2.59-10.37s-1.4-7-2-10.48-1.14-7-1.59-10.55S204.93,518,204.73,514.44Z"/><path class="cls-2" d="M155.29,714.08A100.44,100.44,0,0,1,152.35,740a105.94,105.94,0,0,1-9.3,24.43,109.09,109.09,0,0,1-14.9,21.53,100,100,0,0,1-19.78,17.21l-.64.43-.51-.59a7.44,7.44,0,0,1-1.7-5.21,10.72,10.72,0,0,1,5.6-8.74,7.49,7.49,0,0,1,5.46-.63l.7.2,0,.72a61.88,61.88,0,0,1-6.19,24.07,109.23,109.23,0,0,1-13.38,20.9c-10.21,13-21.91,24.6-31.7,37.71a137,137,0,0,0-12.77,20.87,133.48,133.48,0,0,0-8.75,22.87,138,138,0,0,0-4.52,24.12,134.54,134.54,0,0,0-.06,24.58,126.69,126.69,0,0,1-.57-24.63,130.63,130.63,0,0,1,4.08-24.36A132.78,132.78,0,0,1,64.59,871c9.84-13.3,21.51-25,31.56-37.88a115.69,115.69,0,0,0,13.15-20.54,59.93,59.93,0,0,0,6.12-23.32l.67.93a5.63,5.63,0,0,0-4.15.47,9,9,0,0,0-4.66,7.21,5.66,5.66,0,0,0,1.28,4l-1.15-.16A104.38,104.38,0,0,0,127,784.92a107.35,107.35,0,0,0,15-21.06,111.13,111.13,0,0,0,9.67-24.05A104.31,104.31,0,0,0,155.29,714.08Z"/><path class="cls-2" d="M400,781.87A97.26,97.26,0,0,1,396,796.45a116.78,116.78,0,0,1-6,13.9,114.36,114.36,0,0,1-7.76,13,94.79,94.79,0,0,1-9.48,11.75c2.83-4.16,5.58-8.33,8.17-12.6s5-8.61,7.29-13,4.35-9,6.3-13.56S398.25,786.61,400,781.87Z"/><path class="cls-2" d="M148.29,38.14c-9.09-.51-18.2-1.11-27.27-.61A76.65,76.65,0,0,0,94.62,43a96.09,96.09,0,0,0-23,14.22A173.78,173.78,0,0,0,52.18,76.14,200.1,200.1,0,0,0,35.64,97.71c-1.23,1.91-2.54,3.76-3.7,5.71l-3.55,5.81c-2.23,4-4.53,7.88-6.64,11.9-4.26,8-8.25,16.21-11.89,24.55S2.68,162.41-.73,170.86c3-8.61,6.25-17.12,9.68-25.57s7.32-16.72,11.44-24.87A227.49,227.49,0,0,1,34.13,96.71,198.53,198.53,0,0,1,50.68,74.82a174.45,174.45,0,0,1,19.85-19C77.69,50.14,85.45,45,94,41.62A77.52,77.52,0,0,1,121,36.56,218.39,218.39,0,0,1,148.29,38.14Z"/><path class="cls-2" d="M521.06,798.42A105.67,105.67,0,0,1,529.61,834a107.81,107.81,0,0,1-19.7,69.71A105.69,105.69,0,0,1,484,929.56a119.33,119.33,0,0,0,24.63-26.73,114.15,114.15,0,0,0,19.43-68.74A119.26,119.26,0,0,0,521.06,798.42Z"/><path class="cls-2" d="M569.72,809.47c3.59,9.68,6.82,19.49,9.61,29.43s5.24,20,7.35,30.1q1.55,7.59,2.86,15.23c.82,5.09,1.51,10.39.62,15.65a26.23,26.23,0,0,1-2.49,7.51c-1.17,2.35-2.53,4.55-3.86,6.76a49.32,49.32,0,0,0-3.63,6.75,18.76,18.76,0,0,0-1.56,7.47,17.55,17.55,0,0,1,1.06-7.65,49.26,49.26,0,0,1,3.28-7.06c2.46-4.52,5-9,5.66-14s0-10.07-1-15.1-1.89-10.12-2.94-15.15C580.59,849.23,575.44,829.3,569.72,809.47Z"/><path class="cls-2" d="M491.27,799.6q1.23,7.65,1.72,15.4a110.56,110.56,0,0,1-.05,15.55,69.21,69.21,0,0,1-2.88,15.34,46.08,46.08,0,0,1-6.95,13.89,65.48,65.48,0,0,0,5.45-14.32A90.25,90.25,0,0,0,491,830.39c.43-5.09.5-10.21.49-15.34S491.26,804.77,491.27,799.6Z"/><path class="cls-2" d="M1172.64,34.93a255.76,255.76,0,0,1,58.27,14.36,260.65,260.65,0,0,1,27.52,12.19,288.56,288.56,0,0,1,26,15.17,267.86,267.86,0,0,1,24.19,17.95c3.89,3.17,7.61,6.55,11.35,9.91l5.45,5.21c1.82,1.73,3.53,3.57,5.3,5.35a267.77,267.77,0,0,1,36.88,47.56,257.29,257.29,0,0,1,24.9,54.79c6.11,19.15,10.44,38.74,15.75,58s11.87,38.32,22.26,55.43a122.83,122.83,0,0,0,18.16,23.73,92.31,92.31,0,0,0,24.15,17.6A92.53,92.53,0,0,1,1448.34,355a124,124,0,0,1-18.66-23.57,170.51,170.51,0,0,1-13.38-27c-3.71-9.34-6.76-18.91-9.52-28.56-5.56-19.27-9.84-38.87-16-57.88a255.53,255.53,0,0,0-24.88-54.31c-20.62-34.21-49.2-63.44-82.31-85.75a285.16,285.16,0,0,0-25.74-15.32,263.79,263.79,0,0,0-27.29-12.4A255.4,255.4,0,0,0,1172.64,34.93Z"/><path class="cls-2" d="M1268.8-10.45A398.26,398.26,0,0,0,1313,6.78c15,5.06,30.16,9.67,45.16,14.82a333.48,333.48,0,0,1,44,18.12c14.15,7.2,27.74,15.75,39.62,26.42a136.18,136.18,0,0,1,16.26,17.52,165.53,165.53,0,0,1,13.07,20c7.81,13.86,14.29,28.35,21.42,42.45a219.38,219.38,0,0,0,11.68,20.59,140.7,140.7,0,0,0,14.42,18.73,93.18,93.18,0,0,0,17.94,15.33,70.54,70.54,0,0,0,21.64,9.41,68.37,68.37,0,0,1-21.92-9,93.78,93.78,0,0,1-18.38-15.1c-11-11.57-19.46-25.21-26.75-39.28s-13.8-28.55-21.63-42.26a163.93,163.93,0,0,0-13-19.7,134.28,134.28,0,0,0-16.09-17.2c-11.67-10.57-25.09-19.09-39.11-26.29-7-3.6-14.22-6.87-21.52-9.87s-14.72-5.77-22.17-8.43c-14.9-5.31-30-10.09-45-15.33S1283-3.3,1268.8-10.45Z"/><path class="cls-2" d="M313.13,727.09q-3.72,5-7.46,9.92l-7.15,10.13-6.89,10.3L285.07,768a420.52,420.52,0,0,0-40.75,90l-3.57,11.87-3.2,12-2.89,12.06Q233.43,900,232.12,906q1-6.13,2-12.26l2.46-12.18,2.93-12.08,3.32-12a364.67,364.67,0,0,1,40.92-90.39l6.81-10.4,7.14-10.18,7.53-9.88Q309.17,731.86,313.13,727.09Z"/><path class="cls-2" d="M112.59,887.21q8.55-12.12,17.41-24l8.88-11.86,8.93-11.81c5.95-7.88,11.79-15.82,17.26-24A236.89,236.89,0,0,0,180,790a167.36,167.36,0,0,1-13.63,26.36c-5.23,8.42-11,16.46-17,24.37s-12,15.67-18.18,23.42S118.91,879.6,112.59,887.21Z"/><path class="cls-2" d="M60.22,211.78A66.53,66.53,0,0,0,48,231a96.68,96.68,0,0,0-6.09,21.95c-2.59,15-2.56,30.36-2.61,45.62,0,30.54,1.54,61.06,3.16,91.57s3.1,61.08,3,91.67c-.17,15.3-.5,30.6-1.69,45.85-1,15.27-3,30.44-5.44,45.53,2-15.16,3.79-30.33,4.46-45.59,1-15.24,1.15-30.52,1.13-45.78-.26-30.54-1.83-61.06-3.49-91.58l-1.1-22.9-.51-11.45-.42-11.46-.21-5.73L38.11,333l-.28-11.47L37.74,310c0-3.82-.06-7.65,0-11.47.24-15.27.37-30.66,3.18-45.78a97.53,97.53,0,0,1,6.57-22A64.63,64.63,0,0,1,60.22,211.78Z"/><path class="cls-2" d="M1407.19,772.51a53.25,53.25,0,0,1,1.35,15.73,86.32,86.32,0,0,1-2.5,15.66c-1.26,5.14-2.87,10.18-4.54,15.17S1398,829,1396.2,834q-5.57,14.79-12.11,29.18t-14.2,28.2q6.6-14.34,12.77-28.83c2-4.84,4-9.68,6-14.57s3.86-9.76,5.69-14.68,3.65-9.84,5.38-14.79,3.4-9.92,4.83-15a94.51,94.51,0,0,0,3-15.35A57,57,0,0,0,1407.19,772.51Z"/></g><g id="face"><path class="cls-3" d="M797,337.9a70.13,70.13,0,0,1-6.32,7.65c-4.73,5-13.51,15.91-11.2,26.85,3.11,14.8,50.13,12.85,61,20.64s69.31,10.51,104.75-19.86S1003.42,337,1003.42,337s16-5.45-12.07-20.25C970,305.43,944.11,292.09,935,286.41a32.84,32.84,0,0,0-10.75-4.27c-17.59-3.61-68.39-10.35-105.3,21.59a42.76,42.76,0,0,0-6.84,7.51Z"/><path class="cls-4" d="M807.45,366.17s-6.62.78-3.12-6.23,30.38-54.12,74.38-52.18,75.54,25.31,75.54,25.31,5.07,2.34,0,6.62-26.86,27.7-64.64,26.51S818.74,360.33,807.45,366.17Z"/><path class="cls-1" d="M815.06,351.57s26.08-44.64,68.21-41.13,71.23,23.07,71.23,23.07,4.51,3,0,5.52-43.14,23.57-58.18,24.58-32.61-6-44.14-4.52-28.09-.5-31.1-1S813,357,815.06,351.57Z"/><path class="cls-5" d="M864.53,311.29S847,355.15,874.66,355.54s36.21-13.63,37.38-34.27V315S885.17,307.54,864.53,311.29Z"/><path class="cls-5" d="M863.08,311.68a81.21,81.21,0,0,0-5,19.44c-1.13,8.82-.59,20.83,9.55,24,3.28,1,6.81.91,10.21.74A54.46,54.46,0,0,0,889,354.14c6.2-1.63,12-4,16.36-8.94,4-4.57,6.14-10.44,7.21-16.36a49.52,49.52,0,0,0,.9-8.67v-4c0-.4.15-1.25-.1-1.5s-1.13-.3-1.45-.38c-1-.25-2-.48-3-.71-3.16-.72-6.35-1.34-9.54-1.86a114.42,114.42,0,0,0-26.64-1.62,67.71,67.71,0,0,0-6.81.84c-1,.18-1.92.61-2.9.78,8.78-1.56,17.84-1.23,26.65-.18a153.33,153.33,0,0,1,18.78,3.39,8.86,8.86,0,0,1,1.77.46c.4.19.31.06.31.64,0,2.28.09,4.58-.07,6.85-.45,6.17-1.59,12.47-4.51,18a26.11,26.11,0,0,1-12.36,11.6c-.71.33-1.43.62-2.16.89-.43.16-.87.31-1.3.45l-.56.17c-.28.11.82-.17-.11,0a57.19,57.19,0,0,1-6,.92,40.35,40.35,0,0,1-11.14-.07,13.4,13.4,0,0,1-10.12-7.88c-1.88-4.29-2-9.22-1.64-13.83a74.31,74.31,0,0,1,2.59-13.85c.48-1.71,1-3.4,1.56-5.09.32-.94.79-1.9,1-2.87a2.92,2.92,0,0,1,.14-.38,6.38,6.38,0,0,1-1.45.38C864.33,311.33,863.16,311.48,863.08,311.68Z"/><path d="M889.16,339.62a11.81,11.81,0,0,1-8.8.45c-3.55-1.22-7.86-3.76-7.6-8.85.44-8.58,2.86-11,12.1-11.66s11.45,4.62,11.23,11.88C896,335.61,892.28,338.18,889.16,339.62Z"/><path class="cls-1" d="M880.1,313.21s-13.63.39-12.46,4.29c.7,2.33,8,4.53,14.13,4.31,5.53-.19,5.4-8.49-.14-8.6Z"/><path class="cls-5" d="M958,334.2A90.38,90.38,0,0,0,968.85,331a53.14,53.14,0,0,0,5.12-2.33c1.7-.85,3.42-1.64,5.08-2.52a47.85,47.85,0,0,0,4.83-2.8,15.6,15.6,0,0,0,4-3.58,40.57,40.57,0,0,0,4.39-10.29,26.71,26.71,0,0,1-3,11.19,16.05,16.05,0,0,1-4.25,4.25,43.36,43.36,0,0,1-5,3c-1.72.86-3.46,1.68-5.2,2.44a40.92,40.92,0,0,1-5.41,2.09A44.63,44.63,0,0,1,958,334.2Z"/><path class="cls-5" d="M959,333.58a90.33,90.33,0,0,0,9.27-5.67,70,70,0,0,0,8.32-6.82,53.9,53.9,0,0,0,7-8.08,38.5,38.5,0,0,0,4.91-9.6,25.91,25.91,0,0,1-3.6,10.44,40.13,40.13,0,0,1-6.94,8.69,48.55,48.55,0,0,1-8.85,6.67A41.76,41.76,0,0,1,959,333.58Z"/><path class="cls-5" d="M948.33,321a36.9,36.9,0,0,0,7.7-5.29,93.21,93.21,0,0,0,6.62-6.57c2.14-2.28,4.18-4.64,6.2-7s4-4.87,6-7.34a52.1,52.1,0,0,1-4.71,8.28,68,68,0,0,1-6,7.45,50.08,50.08,0,0,1-7.12,6.43A22.83,22.83,0,0,1,948.33,321Z"/><path class="cls-5" d="M945.23,297.82l2.7-4c.87-1.31,1.68-2.63,2.47-4s1.53-2.7,2.25-4.1l2.15-4.31a15.5,15.5,0,0,1-.7,4.88,21,21,0,0,1-2,4.54,21.3,21.3,0,0,1-3,3.94A15.66,15.66,0,0,1,945.23,297.82Z"/><path class="cls-5" d="M936,319c2.81-1.44,5.54-2.92,8.18-4.54a83.79,83.79,0,0,0,14.56-11.35c2.21-2.16,4.31-4.45,6.4-6.82a38.13,38.13,0,0,1-5.26,7.88,46.82,46.82,0,0,1-15,11.65A38,38,0,0,1,936,319Z"/><path class="cls-5" d="M905.92,314c3-1,6.1-1.8,9.15-2.63s6.08-1.67,9-2.64a84.94,84.94,0,0,0,8.78-3.29,70.26,70.26,0,0,0,8.34-4.42,31.74,31.74,0,0,1-7.64,5.82,49.53,49.53,0,0,1-8.87,3.79,71.83,71.83,0,0,1-9.32,2.25A79.49,79.49,0,0,1,905.92,314Z"/><path class="cls-5" d="M899.36,312.63c2.1-1.12,4.13-2.26,6.07-3.52a55.18,55.18,0,0,0,10.49-8.88c1.56-1.71,3-3.52,4.48-5.41a23.15,23.15,0,0,1-3.27,6.39,28.62,28.62,0,0,1-4.89,5.31,29,29,0,0,1-6,3.94A23.45,23.45,0,0,1,899.36,312.63Z"/><path class="cls-5" d="M866.35,311.2a26.1,26.1,0,0,1-6.42-2.21,33.17,33.17,0,0,1-10.72-8.33,25.64,25.64,0,0,1-3.72-5.68c1.64,1.57,3.21,3.12,4.84,4.59s3.3,2.9,5,4.23,3.51,2.61,5.34,3.84S864.42,310,866.35,311.2Z"/><path class="cls-5" d="M821.82,325.57a14.53,14.53,0,0,1-5.14-.7,19,19,0,0,1-8.68-5.65,14.53,14.53,0,0,1-2.7-4.43c1.29,1.16,2.52,2.27,3.79,3.31A47.35,47.35,0,0,0,813,321c1.36.88,2.76,1.7,4.22,2.45S820.24,324.85,821.82,325.57Z"/><path class="cls-5" d="M818.42,296.71c1.17,1.26,2.27,2.48,3.42,3.64s2.35,2.23,3.59,3.26,2.53,2,3.88,2.91,2.76,1.77,4.22,2.68a14.59,14.59,0,0,1-5-1.32,18.7,18.7,0,0,1-4.4-2.73,19,19,0,0,1-3.51-3.81A14.58,14.58,0,0,1,818.42,296.71Z"/><path class="cls-5" d="M885.52,309.11a26.15,26.15,0,0,0,7.47-9.36,44.08,44.08,0,0,0,2.22-5.6c.63-1.94,1.16-3.93,1.79-5.95a23.53,23.53,0,0,1-.28,6.32,22.45,22.45,0,0,1-1.93,6.1,18.53,18.53,0,0,1-3.79,5.24A13.08,13.08,0,0,1,885.52,309.11Z"/><path class="cls-5" d="M872.45,308.87a8.86,8.86,0,0,1-3-1.66,12.17,12.17,0,0,1-2.25-2.5,12,12,0,0,1-1.47-3,8.62,8.62,0,0,1-.42-3.35c.7.91,1.26,1.81,1.85,2.68l1.7,2.58,1.75,2.56C871.24,307,871.86,307.88,872.45,308.87Z"/><path class="cls-5" d="M862.48,292.7a17.8,17.8,0,0,1-1.92-3.66,26.78,26.78,0,0,1-1.24-3.9,27.29,27.29,0,0,1-.65-4,17.86,17.86,0,0,1,.05-4.13,26.05,26.05,0,0,1,1.48,3.83c.4,1.28.76,2.57,1.06,3.87s.57,2.61.79,3.94A28.31,28.31,0,0,1,862.48,292.7Z"/><path class="cls-5" d="M841,360.47c-.44.76-.89,1.37-1.31,2l-1.27,1.75L837.1,366c-.45.59-.89,1.21-1.48,1.86a5.11,5.11,0,0,1,0-2.52,6.91,6.91,0,0,1,2.9-4A5,5,0,0,1,841,360.47Z"/><path class="cls-5" d="M949.56,344.11a4.41,4.41,0,0,1,2.25-.5,6.16,6.16,0,0,1,4.11,1.75,4.47,4.47,0,0,1,1.2,2,15.83,15.83,0,0,1-2.07-.66c-.62-.24-1.22-.48-1.8-.73s-1.18-.51-1.78-.8A19.46,19.46,0,0,1,949.56,344.11Z"/><path class="cls-5" d="M928.4,355.21a7.45,7.45,0,0,1,1.83,2,10.39,10.39,0,0,1,1.09,2.43,10.18,10.18,0,0,1,.43,2.63,7.18,7.18,0,0,1-.42,2.69,15.56,15.56,0,0,1-1.13-2.39c-.3-.79-.56-1.57-.79-2.36s-.45-1.58-.63-2.4A16,16,0,0,1,928.4,355.21Z"/><path class="cls-6" d="M660.8,333.8c.87,2.3,1.89,4.54,2.92,6.77,1.23,2.67,3,5.47,3.91,7.93,2.52,7.15,1.93,17.35-.38,28.29-3.11,14.8-50.45,20.56-65,20.64-13.4.07-69.31,10.51-104.75-19.86-20.87-17.89-35.93-27.27-44.78-31.95a63.57,63.57,0,0,0-12.3-5c-7.4-2.12-25.27-9.74-12.6-31.93,12.54-22,32.72-25.42,41.87-31.11,3.3-2.05,70.61-25,74.42-25.77,17.58-3.61,64.57-4.79,93.39,34.61,1.46,2,8,13.85,12.23,21.39a101,101,0,0,1,6.66,14.21Z"/><path class="cls-7" d="M635.32,370.56s6.62.78,3.12-6.23-30.38-54.13-74.38-52.18-75.54,25.31-75.54,25.31-5.06,2.34,0,6.62,32.06,29.33,69.83,28.13S621,368.54,635.32,370.56Z"/><path class="cls-1" d="M627.71,356s-26.08-44.64-68.21-41.13-68.56,21.42-68.56,21.42-4.06,4.21.45,6.71,40,24,55.07,25,33.58-.16,45.32-1.55c11.56-1.36,26.9-3.46,29.91-4S629.74,361.43,627.71,356Z"/><path class="cls-3" d="M578.24,315.68S590,354,568.12,359.93c-26.68,7.28-37.39-8.21-37.39-34.27v-6.23S557.6,311.93,578.24,315.68Z"/><path d="M551.51,342.17c2.77,1.28,8-.32,10.91-1.31,3.55-1.22,7.85-3.76,7.59-8.85-.44-8.58-2.86-11-12.1-11.66s-14,4.86-13.83,12.12C544.21,336.64,548.4,340.74,551.51,342.17Z"/><path class="cls-1" d="M540.69,319.59s13.63.39,12.47,4.28c-.71,2.34-8,4.54-14.13,4.32-5.54-.19-5.41-8.5.13-8.61C539.64,319.57,540.15,319.58,540.69,319.59Z"/><path class="cls-4" d="M484.8,338.59a43.56,43.56,0,0,1-10.61-1.52,31.13,31.13,0,0,1-9.84-4.59,26.9,26.9,0,0,1-4.1-3.67,21,21,0,0,1-3.1-4.55,27.45,27.45,0,0,1-2.63-10.43,43.61,43.61,0,0,0,4,9.67,25.31,25.31,0,0,0,7,7.35,37.82,37.82,0,0,0,9.15,4.74C477.94,336.8,481.35,337.68,484.8,338.59Z"/><path class="cls-4" d="M483.76,338a31.21,31.21,0,0,1-9.42-4.33A37.55,37.55,0,0,1,461,317.82a31.44,31.44,0,0,1-2.69-10,56.83,56.83,0,0,0,4.09,9.32,50.17,50.17,0,0,0,5.71,8.26,50.71,50.71,0,0,0,7.19,7A57.26,57.26,0,0,0,483.76,338Z"/><path class="cls-4" d="M494.44,325.39a23,23,0,0,1-8.66-4.07,51.19,51.19,0,0,1-7.12-6.43,66.8,66.8,0,0,1-6-7.45,51.06,51.06,0,0,1-4.72-8.29c2,2.48,4,4.94,6,7.35s4.06,4.75,6.21,7a89.18,89.18,0,0,0,6.62,6.57A36.83,36.83,0,0,0,494.44,325.39Z"/><path class="cls-4" d="M497.54,302.21a15.44,15.44,0,0,1-3.9-3,20.68,20.68,0,0,1-5-8.48,15.22,15.22,0,0,1-.71-4.88l2.16,4.3c.71,1.4,1.46,2.76,2.24,4.11s1.61,2.66,2.48,4Z"/><path class="cls-4" d="M506.82,323.37a38.2,38.2,0,0,1-8.93-3.18,46.82,46.82,0,0,1-14.95-11.65,39.09,39.09,0,0,1-5.26-7.88c2.09,2.37,4.19,4.66,6.4,6.82a81.64,81.64,0,0,0,7,6.07,82.88,82.88,0,0,0,7.59,5.28C501.28,320.45,504,321.93,506.82,323.37Z"/><path class="cls-4" d="M536.86,318.34a79.9,79.9,0,0,1-9.5-1.12A71.83,71.83,0,0,1,518,315a49.44,49.44,0,0,1-8.86-3.79,32.06,32.06,0,0,1-7.65-5.82,69.62,69.62,0,0,0,8.35,4.42,84.77,84.77,0,0,0,8.77,3.29c3,1,6,1.79,9.05,2.64S533.82,317.35,536.86,318.34Z"/><path class="cls-4" d="M543.42,317a23.42,23.42,0,0,1-6.84-2.17,29,29,0,0,1-10.94-9.25,23.42,23.42,0,0,1-3.27-6.39c1.46,1.89,2.92,3.7,4.48,5.41a54.84,54.84,0,0,0,10.5,8.88C539.28,314.76,541.31,315.9,543.42,317Z"/><path class="cls-4" d="M576.42,315.59c1.93-1.2,3.82-2.35,5.66-3.56s3.62-2.48,5.33-3.84,3.39-2.76,5-4.23,3.21-3,4.85-4.59a26.28,26.28,0,0,1-3.73,5.68,33,33,0,0,1-10.71,8.33A26.17,26.17,0,0,1,576.42,315.59Z"/><path class="cls-4" d="M621,330c1.58-.72,3.09-1.39,4.56-2.14s2.86-1.57,4.22-2.45a45.75,45.75,0,0,0,3.95-2.88c1.28-1,2.5-2.15,3.79-3.31a14.53,14.53,0,0,1-2.7,4.43,18.85,18.85,0,0,1-8.68,5.65A14.47,14.47,0,0,1,621,330Z"/><path class="cls-4" d="M624.35,301.1a14.58,14.58,0,0,1-2.23,4.63,19,19,0,0,1-3.51,3.81,18.7,18.7,0,0,1-4.4,2.73,14.59,14.59,0,0,1-5,1.32c1.46-.91,2.87-1.77,4.22-2.68s2.63-1.89,3.88-2.91,2.44-2.11,3.59-3.26S623.18,302.36,624.35,301.1Z"/><path class="cls-4" d="M557.25,313.5a13.09,13.09,0,0,1-5.47-3.25A18.15,18.15,0,0,1,548,305a22.24,22.24,0,0,1-1.94-6.1,23.53,23.53,0,0,1-.27-6.32c.62,2,1.16,4,1.78,5.94a43.64,43.64,0,0,0,2.22,5.61A26.15,26.15,0,0,0,557.25,313.5Z"/><path class="cls-4" d="M570.33,313.26c.58-1,1.2-1.85,1.79-2.72l1.74-2.56,1.71-2.58c.58-.87,1.14-1.77,1.84-2.69a8.64,8.64,0,0,1-.42,3.36,12,12,0,0,1-1.47,3,12.17,12.17,0,0,1-2.25,2.5A8.81,8.81,0,0,1,570.33,313.26Z"/><path class="cls-4" d="M580.29,297.08a28.46,28.46,0,0,1,.43-4.08c.22-1.32.48-2.63.79-3.93s.67-2.59,1.07-3.87a26,26,0,0,1,1.47-3.83,17.86,17.86,0,0,1,.06,4.13,27.29,27.29,0,0,1-.65,4,28.06,28.06,0,0,1-1.24,3.9A17.52,17.52,0,0,1,580.29,297.08Z"/><path class="cls-4" d="M601.83,364.86a5.08,5.08,0,0,1,2.38.84,6.93,6.93,0,0,1,1.81,1.73,7,7,0,0,1,1.08,2.26,5,5,0,0,1,0,2.52c-.59-.65-1-1.27-1.48-1.86l-1.27-1.75-1.26-1.75C602.71,366.23,602.27,365.62,601.83,364.86Z"/><path class="cls-4" d="M493.21,348.5a17.42,17.42,0,0,1-1.91,1c-.6.28-1.18.55-1.77.8s-1.18.49-1.81.73a17.92,17.92,0,0,1-2.06.66,4.45,4.45,0,0,1,1.19-2,6.13,6.13,0,0,1,1.89-1.26A6.07,6.07,0,0,1,491,348,4.41,4.41,0,0,1,493.21,348.5Z"/><path class="cls-4" d="M514.37,359.6a15,15,0,0,1-.38,2.62c-.18.82-.39,1.62-.62,2.4s-.5,1.57-.8,2.36a15.07,15.07,0,0,1-1.13,2.39,7.2,7.2,0,0,1-.41-2.69,10.17,10.17,0,0,1,.42-2.63,10,10,0,0,1,1.1-2.43A7.25,7.25,0,0,1,514.37,359.6Z"/><path class="cls-1" d="M807.31,251.35c8.46-4.21,17.06-8.12,25.75-11.85s17.46-7.26,26.35-10.48,17.9-6.13,27.07-8.52,18.51-4.3,28.07-4.59a81.79,81.79,0,0,1,14.26,1c4.71.68,9.36,1.65,14,2.79A273.08,273.08,0,0,1,970,228c8.91,3.2,17.7,6.72,26.39,10.47s17.27,7.71,25.73,12l-1.19,1.5A241.15,241.15,0,0,0,1004,234.6q-8.88-8.29-18.5-15.74a198.79,198.79,0,0,0-20.09-13.59,129.78,129.78,0,0,0-21.84-10.43A86.68,86.68,0,0,0,920,189.69l-3-.07a27.48,27.48,0,0,0-3,0c-2,.12-4,.18-6,.44-4,.43-8.08.83-12.1,1.37a240.51,240.51,0,0,0-24,4.09,115.42,115.42,0,0,0-11.69,3.34,56.29,56.29,0,0,0-5.63,2.3,30,30,0,0,0-2.66,1.48,9.63,9.63,0,0,0-2.33,1.93,9.28,9.28,0,0,1,2.3-2,26.66,26.66,0,0,1,2.63-1.55A55.64,55.64,0,0,1,860,198.6a115.58,115.58,0,0,1,11.68-3.55,241.07,241.07,0,0,1,24-4.51c4-.63,8.07-1.07,12.11-1.54,2-.28,4.07-.36,6.11-.5a28.78,28.78,0,0,1,3.08-.05l3.07,0a88.16,88.16,0,0,1,24,5,128.36,128.36,0,0,1,22.2,10.34,199.59,199.59,0,0,1,20.32,13.64c6.48,5,12.71,10.24,18.69,15.78a241.89,241.89,0,0,1,17.14,17.49l3.23,3.68-4.42-2.18a511.68,511.68,0,0,0-51.86-22.47,271.85,271.85,0,0,0-27-8.37c-4.56-1.15-9.16-2.12-13.8-2.81a87.44,87.44,0,0,0-14-1c-9.35.19-18.65,2-27.78,4.26s-18.15,5.1-27.06,8.2C841.92,236.18,824.45,243.42,807.31,251.35Z"/><path class="cls-1" d="M793.28,242.06c.24-2.2.58-4.33.93-6.47l1-6.37,1.06-6.37c.35-2.13.71-4.26,1.19-6.42a34.51,34.51,0,0,1,.36,6.58,49.59,49.59,0,0,1-.64,6.54,48.71,48.71,0,0,1-1.5,6.4A35.23,35.23,0,0,1,793.28,242.06Z"/><path class="cls-1" d="M797.23,244.77c.61-2.36,1.09-4.73,1.72-7.06s1.27-4.65,2-7,1.43-4.6,2.23-6.87,1.65-4.53,2.43-6.84a33.18,33.18,0,0,1-.93,7.25c-.5,2.38-1.14,4.72-1.82,7s-1.49,4.62-2.39,6.87A36,36,0,0,1,797.23,244.77Z"/><path class="cls-1" d="M809.67,234.24c.91-1.64,1.57-3.32,2.31-5l2.13-5,2.13-5a45.7,45.7,0,0,0,1.89-5.15,14.07,14.07,0,0,1-.4,5.63A31.65,31.65,0,0,1,816,225a36.08,36.08,0,0,1-2.59,5A15.08,15.08,0,0,1,809.67,234.24Z"/><path class="cls-1" d="M818.37,232.21c.43-1.71.86-3.4,1.41-5.05s1.12-3.29,1.77-4.9,1.34-3.19,2.08-4.76,1.58-3.09,2.38-4.67a19.38,19.38,0,0,1-.92,5.22A49.73,49.73,0,0,1,823.4,223c-.65,1.62-1.37,3.21-2.18,4.76A23.83,23.83,0,0,1,818.37,232.21Z"/><path class="cls-1" d="M822.31,234.43c.4-1,.67-2,1-3.06s.62-2.05,1-3.06c.64-2,1.36-4.05,2.09-6.06s1.52-4,2.37-5.95,1.74-3.91,2.67-5.87a31.78,31.78,0,0,1-1.19,6.38c-.56,2.08-1.24,4.12-2,6.14s-1.57,4-2.52,5.94c-.46,1-1,1.93-1.51,2.87A13.28,13.28,0,0,1,822.31,234.43Z"/><path class="cls-1" d="M762.2,284.84c-3.61,8-7.65,15.77-10.35,24.06a68,68,0,0,0-3,12.64c-.15,1.07-.29,2.15-.37,3.23s-.18,2.16-.26,3.26q-.24,3.29-.56,6.55c-.82,8.74-2.06,17.4-2.88,26.09s-1.29,17.41-1.51,26.13a494.69,494.69,0,0,0,1.6,52.36q1,13.08,2.46,26.12c.9,8.7,2,17.38,3,26.08-1.47-8.63-2.74-17.29-4-26s-2.16-17.39-3-26.11-1.44-17.47-1.79-26.23-.51-17.53-.29-26.31.78-17.53,1.68-26.26,2.11-17.4,3.13-26.07q.38-3.26.69-6.51c.09-1.09.2-2.18.33-3.28s.27-2.19.44-3.29a70.31,70.31,0,0,1,3.36-12.78,117.66,117.66,0,0,1,5.3-12.05C758.12,292.58,760.17,288.72,762.2,284.84Z"/><path class="cls-8" d="M602.16,682.5c14.17-8.28,80.4-45.88,95.31-33.77a8.85,8.85,0,0,0,5.19,2.06,6.74,6.74,0,0,0,3.13-.46c2.23-1.12,11.66-6.57,32.24,1.4,18.67,7.24,49.6,20.09,58.92,21.93a1.76,1.76,0,0,1,1.27,2.44c-3.87,8.66-22.35,39.53-89.83,40.8-76.86,1.44-64.69-10.52-106.14-31.45A1.68,1.68,0,0,1,602.16,682.5Z"/><path class="cls-4" d="M599.86,683.09a91.65,91.65,0,0,0,18.64.84c6.21-.3,12.4-1,18.59-1.84s12.4-1.67,18.66-2.21a101.14,101.14,0,0,1,18.82-.15,181.22,181.22,0,0,0-18.65,1.7c-6.18.85-12.36,1.82-18.58,2.64a147.43,147.43,0,0,1-18.8,1.42A66.39,66.39,0,0,1,599.86,683.09Z"/><path class="cls-4" d="M679.6,679.67a110.38,110.38,0,0,0,11.36,0c3.78-.18,7.55-.41,11.32-.75s7.52-.72,11.27-1.18,7.49-1,11.21-1.89a49.21,49.21,0,0,1-11,3.43,99,99,0,0,1-11.36,1.63,100,100,0,0,1-11.48.31A47.36,47.36,0,0,1,679.6,679.67Z"/><path class="cls-4" d="M731,674.28a53,53,0,0,1,18.35-4,121.83,121.83,0,0,1,18.82.73c6.22.66,12.4,1.49,18.59,2.09a120.72,120.72,0,0,0,18.64.54,79.6,79.6,0,0,1-18.76,1c-6.27-.29-12.48-1-18.68-1.66a170,170,0,0,0-18.56-1.17A68,68,0,0,0,731,674.28Z"/></g></svg>